<svg xmlns="http://www.w3.org/2000/svg" width="133.415" height="96.283" viewBox="0 0 133.415 96.283"><defs><style>.a{mix-blend-mode:screen;isolation:isolate;}.b{fill:#f25fc5;}</style></defs><g class="a" transform="translate(0)"><path class="b" d="M7248.629,817.3c-.008-3.542-2.512-4.99-5.594-3.255l-7.7,4.444-1.224.708-2.043,1.178.071,23.244,3.26-1.882-.029-10.3,5.719-3.3,4.66,7.627,3.66-2.115-4.781-7.836A12.54,12.54,0,0,0,7248.629,817.3ZM7243,823.293l-7.642,4.413-.018-5.46,7.641-4.413c1.3-.752,2.377-.148,2.379,1.355A5.271,5.271,0,0,1,7243,823.293Z" transform="translate(-7208.342 -761.09)"/><path class="b" d="M7400.941,731.973,7401,755.22l3.252-1.877-.064-23.247Z" transform="translate(-7315.869 -708.101)"/><path class="b" d="M7433.489,698.883l.047,16.978-10.908-10.708-3.261,1.883.067,23.245,3.264-1.883-.049-16.9,10.905,10.633,3.262-1.883L7436.751,697Z" transform="translate(-7327.601 -687.028)"/><path class="b" d="M7495.55,677.147c-.02-6.844-4.958-9.571-11.007-6.078s-10.958,11.9-10.941,18.748,4.958,9.583,11.007,6.09S7495.57,684,7495.55,677.147Zm-18.864,10.891c-.017-4.915,3.517-10.958,7.866-13.47s7.891-.551,7.905,4.364-3.511,10.969-7.856,13.476S7476.7,692.961,7476.687,688.038Z" transform="translate(-7362.136 -669.548)"/><path class="b" d="M7344.222,767.735c.063,2,.951,3.359,2.508,3.847,1.483.464,3.429.072,5.478-1.111a17.278,17.278,0,0,0,5.46-5.2,13.057,13.057,0,0,0,2.478-6.725l-.035-16.154-3.272,1.889.042,15.933c.007,2.016-2.141,4.97-4.686,6.438s-4.708,1-4.711-1.012l-.047-15.933-3.263,1.883.046,15.954Z" transform="translate(-7279.727 -715.927)"/><path class="b" d="M7295.2,785.782l-4.666,2.7-.748.432-2.513,1.451.064,23.311,3.263-1.894,4.686-2.707c5.573-3.229,10.1-11.074,10.085-17.492S7300.793,782.562,7295.2,785.782Zm.038,19.574-4.649,2.68-.045-15.811,4.648-2.684c3.8-2.2,6.906-.438,6.919,3.92A15.162,15.162,0,0,1,7295.236,805.356Z" transform="translate(-7243.494 -742.678)"/><path class="b" d="M7171.667,873.8l11.523-6.655,1.416,3.125,3.52-2.031-8.348-18.486-4.8,2.771-8.222,28.052,3.525-2.037Zm5.72-19.5,4.454,9.881L7173,869.285Z" transform="translate(-7166.757 -784.287)"/></g></svg>