<svg xmlns="http://www.w3.org/2000/svg" xmlns:xlink="http://www.w3.org/1999/xlink" width="82.895" height="70.327" viewBox="0 0 82.895 70.327"><defs><style>.a{mix-blend-mode:screen;isolation:isolate;}.b{fill:url(#a);}</style><linearGradient id="a" y1="0.5" x2="1" y2="0.5" gradientUnits="objectBoundingBox"><stop offset="0" stop-color="#fa39ff"/><stop offset="1" stop-color="#ff57b3"/></linearGradient></defs><g class="a" transform="translate(0 0)"><path class="b" d="M6813.36,1479.606a26.679,26.679,0,0,0,8.2-7.793,30.34,30.34,0,0,0,4.786-10.484l-3.6.931c-1.2,5.28-5.065,10.72-9.4,13.221-5.42,3.127-9.834.818-9.849-5.14s4.368-13.351,9.788-16.478c4.139-2.389,7.86-1.65,9.262,1.847l3.524-3.429c-1.934-4.825-7.08-5.846-12.8-2.541-7.474,4.315-13.54,14.521-13.515,22.761S6805.885,1483.921,6813.36,1479.606Z" transform="translate(-6799.758 -1411.205)"/><path class="b" d="M6903.156,1412.967c-.022-8.313-6.011-11.622-13.336-7.394-7.342,4.239-13.292,14.441-13.268,22.754s6.01,11.614,13.354,7.373C6897.23,1431.472,6903.179,1421.27,6903.156,1412.967Zm-22.857,13.2c-.017-5.976,4.254-13.3,9.535-16.347,5.266-3.042,9.565-.664,9.583,5.309s-4.254,13.3-9.522,16.339S6880.316,1432.129,6880.3,1426.163Z" transform="translate(-6848.657 -1383.137)"/><path class="b" d="M6964.262,1358.85l-4.078,2.354.076,26.9,3.768-2.174-.046-16.214,5.767,12.9,5.571-3.216,5.669-19.5.045,16.212,3.767-2.175-.074-26.9-4.071,2.35-8.13,27.97Z" transform="translate(-6901.907 -1347.035)"/></g></svg>