<svg xmlns="http://www.w3.org/2000/svg" xmlns:xlink="http://www.w3.org/1999/xlink" width="122.695" height="234.671" viewBox="0 0 122.695 234.671"><defs><style>.a{fill:#fff;}.b{fill:#e95a0c;}.c{fill:#f4e19c;}.d{fill:#f15a24;}.e{fill:url(#a);}.f{fill:url(#b);}.g{fill:url(#c);}.h{fill:#ffb600;}.i{fill:#ffc952;}.j{fill:url(#d);}.k{fill:url(#e);}.l{fill:url(#f);}.m{fill:url(#g);}</style><linearGradient id="a" y1="0.5" x2="1" y2="0.5" gradientUnits="objectBoundingBox"><stop offset="0.042" stop-color="#a2abea"/><stop offset="1" stop-color="#8a84dc"/></linearGradient><linearGradient id="b" y1="0.5" x2="1" y2="0.5" gradientUnits="objectBoundingBox"><stop offset="0" stop-color="#d1cff7"/><stop offset="0.98" stop-color="#8a84dc"/><stop offset="1" stop-color="#7559be"/></linearGradient><linearGradient id="c" y1="0.5" x2="1" y2="0.5" gradientUnits="objectBoundingBox"><stop offset="0" stop-color="#7559be"/><stop offset="1" stop-color="#624c9e"/></linearGradient><linearGradient id="d" x1="0.485" y1="0.819" x2="0.534" y2="-0.297" gradientUnits="objectBoundingBox"><stop offset="0" stop-color="#f6a509"/><stop offset="0.749" stop-color="#e84e1b"/></linearGradient><linearGradient id="e" x1="0.475" y1="0.558" x2="0.779" y2="0.224" gradientUnits="objectBoundingBox"><stop offset="0" stop-color="#ffd56c"/><stop offset="1" stop-color="#ffa91f"/></linearGradient><linearGradient id="f" x1="0.38" y1="0.947" x2="0.632" y2="0.161" xlink:href="#e"/><linearGradient id="g" x1="0.385" y1="0.191" x2="0.293" y2="-0.071" xlink:href="#e"/></defs><g transform="translate(20.299 192.754)"><path class="a" d="M7224.179,3393.64c-.006-.02-.022-.041-.029-.06l-1.206,6.629a1.685,1.685,0,0,0,.751.765,4.539,4.539,0,0,0,4.008,0c.885-.471.665-.831.781-1.125,0,0-1.46-1.61-.875-5.022C7228.3,3390.827,7224.078,3393.169,7224.179,3393.64Z" transform="translate(-7222.221 -3392.531)"/><path class="b" d="M7230.529,3413.862a2.694,2.694,0,0,1-3.432-1.123,1.275,1.275,0,0,1-.736,1.143,4.453,4.453,0,0,1-3.929,0,1.651,1.651,0,0,1-.735-.748v-.109c-1.632,2.338-.2,3.739-.186,3.789l-.01,2.967s.094,1.045,2.116.832a1.778,1.778,0,0,0,1.049-.527V3417.2c1.214,0,3.494,1.385,4.216,1.144a7.356,7.356,0,0,0,3.293-2.014C7233.572,3415.1,7231.831,3413.179,7230.529,3413.862Z" transform="translate(-7220.917 -3405.538)"/></g><g transform="translate(59.237 208.725)"><path class="a" d="M7333.458,3438.461c-.009-.02-.02-.041-.03-.062l-1.2,6.628a1.682,1.682,0,0,0,.75.767,4.544,4.544,0,0,0,4.009,0c.886-.47.667-.833.779-1.124,0,0-1.46-1.61-.874-5.022C7337.577,3435.647,7333.358,3437.988,7333.458,3438.461Z" transform="translate(-7331.499 -3437.351)"/><path class="b" d="M7339.8,3458.676a2.688,2.688,0,0,1-3.429-1.124,1.285,1.285,0,0,1-.738,1.146,4.455,4.455,0,0,1-3.931,0,1.682,1.682,0,0,1-.735-.746v-.112c-1.63,2.338-.2,3.741-.182,3.788l-.01,2.968s.093,1.046,2.116.833a1.774,1.774,0,0,0,1.049-.529v-2.885c1.213,0,3.492,1.388,4.215,1.148a7.374,7.374,0,0,0,3.294-2.015C7342.848,3459.911,7341.108,3457.993,7339.8,3458.676Z" transform="translate(-7330.191 -3450.353)"/></g><g transform="translate(93.002 37.514)"><path class="c" d="M7454.664,3408.969l-13.377,34.444s-.627,1.615-1.528,1.615c-.845,0-1.372-1.61-1.372-1.61l-13.377-34.449Z" transform="translate(-7424.987 -3247.871)"/><path class="d" d="M7459.417,3478.231h-5.789l-2.669-2.408,4.125,10.607s.525,1.61,1.37,1.61c.9,0,1.529-1.614,1.529-1.614l4.131-10.634Z" transform="translate(-7441.69 -3290.882)"/><g transform="translate(0 7.855)"><rect class="e" width="14.914" height="161.174" transform="translate(7.39)"/><path class="f" d="M7432.391,3140.089l-7.445-7.874v-153.3h7.445Z" transform="translate(-7424.946 -2978.915)"/><path class="g" d="M7494.835,3132.215l-7.442,7.874V2978.915h7.442Z" transform="translate(-7465.142 -2978.915)"/><rect class="h" width="14.914" height="161.174" transform="translate(7.39)"/><path class="i" d="M7432.391,3140.089l-7.445-7.874v-153.3h7.445Z" transform="translate(-7424.946 -2978.915)"/><path class="j" d="M7494.835,3132.215l-7.442,7.874V2978.915h7.442Z" transform="translate(-7465.142 -2978.915)"/></g><path class="c" d="M7447.229,2956.87H7432.46l-7.438,7.855,7.438,7.865h14.769l7.437-7.865Z" transform="translate(-7424.995 -2956.87)"/><g transform="translate(9.287 4.412)"><path class="d" d="M7460.489,2974.75a8.67,8.67,0,0,1-7.864.005c-2.165-1.258-2.155-3.3.02-4.56a8.681,8.681,0,0,1,7.871,0C7462.68,2971.443,7462.672,2973.49,7460.489,2974.75Z" transform="translate(-7451.008 -2969.251)"/></g></g><path class="k" d="M7226.638,2938.682l-1.383-2.393a3.807,3.807,0,0,0-2.584-1.822,4.542,4.542,0,0,0-3.369.661l-.635.452c-.417.286-1.018.733-1.779,1.313a73.151,73.151,0,0,0-6.12,5.122,46.958,46.958,0,0,0-7.542,8.887,30.029,30.029,0,0,0-3.018,6.185,23.453,23.453,0,0,0-1.362,7.123,26.386,26.386,0,0,0,3.282,13.248,45.192,45.192,0,0,0,6.481,9.1c2.133,2.4,4.085,4.167,5.426,5.424,1.378,1.211,2.164,1.9,2.164,1.9l2.667-2.813-1.868-2.036c-1.136-1.326-2.806-3.2-4.513-5.606a39.674,39.674,0,0,1-4.817-8.544,19.588,19.588,0,0,1-1.442-10.079,18.744,18.744,0,0,1,4.125-8.908,38.155,38.155,0,0,1,6.78-6.388,63.559,63.559,0,0,1,5.732-3.822c.718-.436,1.291-.772,1.69-.988s.611-.339.611-.339A4.272,4.272,0,0,0,7226.638,2938.682Z" transform="translate(-7186.404 -2904.881)"/><path class="a" d="M7486.387,3053.443a.4.4,0,0,0,.159-.537l-.072-.14a.391.391,0,0,0-.531-.165l-2.675,1.422-.1-.174,3.181-1.7a.391.391,0,0,0,.163-.538l-.072-.138a.4.4,0,0,0-.536-.167l-3.181,1.7-.1-.185,3.452-1.839a.4.4,0,0,0,.162-.536l-.076-.141a.4.4,0,0,0-.537-.165l-3.451,1.838-.125-.234,3.022-1.608a.4.4,0,0,0,.164-.535l-.076-.139a.4.4,0,0,0-.536-.169l-3.022,1.61v-.006s-2.028,1-2.181,1.027c0,0-.5-1.343-.946-2.589a.7.7,0,0,0-1.114-.393,6.607,6.607,0,0,1,.3,4.456c-.207.883-.288.661-2.767,2.045-.28.157.558,1.523.558,1.523a11.583,11.583,0,0,1,3.877-.912,10.2,10.2,0,0,0,3.145-.8Z" transform="translate(-7364.057 -2978.524)"/><g transform="translate(49.229 81.74)"><path class="d" d="M7319.9,3091.556c-.768-6.455-5.34-11.162-10.213-10.512s-8.219,6.253-7.472,12.521c0,0,.08.457.231,1.3s.391,2.093.623,3.681c.488,3.179,1.186,7.716,2.026,13.162.405,2.727.762,5.691,1.188,8.822q.309,2.348.639,4.821c.22,1.646.446,3.328.62,5.043.752,6.857,1.636,14.176,2.228,21.524,1.409,14.682,2.165,29.44,2.684,40.523.349,11.1.579,18.493.579,18.493l4.635.165s.59-7.395,1.478-18.491c.17-2.78.358-5.793.55-8.979s.44-6.552.553-10.038c.145-3.488.294-7.09.448-10.754.036-.915.077-1.836.113-2.759.018-.925.039-1.849.057-2.778.042-1.856.082-3.721.119-5.584.225-7.463.168-14.931.178-21.955.013-1.754-.019-3.48-.06-5.172s-.069-3.342-.1-4.956c-.072-3.222-.111-6.275-.207-9.094-.239-5.64-.439-10.352-.582-13.673-.054-1.664-.169-2.971-.22-3.876S7319.9,3091.589,7319.9,3091.556Z" transform="translate(-7302.106 -3080.984)"/></g><g transform="translate(21.492 81.246)"><path class="d" d="M7248.244,3090.34c.217-5.834-3.292-10.643-7.838-10.741s-8.4,4.39-8.609,10.03c0,0,.009.415.025,1.187s.062,1.9.043,3.337c-.009,2.88-.024,6.987-.043,11.915-.025,2.469-.127,5.137-.194,7.964q-.062,2.123-.12,4.351c-.037,1.487-.075,3-.168,4.545-.324,6.167-.591,12.762-1.146,19.337-.889,13.179-2.432,26.325-3.638,36.193-1.377,9.85-2.293,16.416-2.293,16.416l4.2.888s1.664-6.438,4.167-16.1c.578-2.431,1.205-5.064,1.866-7.85s1.393-5.723,2.02-8.789c.655-3.06,1.333-6.224,2.024-9.44.172-.8.342-1.613.516-2.423q.234-1.221.467-2.448.47-2.455.939-4.922c1.319-6.568,2.361-13.191,3.4-19.407.274-1.552.5-3.082.707-4.585s.422-2.973.626-4.405c.4-2.865.813-5.576,1.137-8.088.593-5.034,1.088-9.24,1.442-12.2.188-1.481.27-2.659.351-3.468S7248.244,3090.371,7248.244,3090.34Z" transform="translate(-7224.264 -3079.597)"/></g><g transform="translate(33.094 91.974)"><path class="d" d="M7279.818,3113.121c-4.694-2.2-13.548-4.451-18.321-2.9-4.513,1.463-8.044,10.679.725,15.6,1.922,1.081,12.335,4.075,16.317,3.671C7290.038,3128.329,7285.248,3115.665,7279.818,3113.121Z" transform="translate(-7256.825 -3109.706)"/></g><path class="l" d="M7278.576,2973.138c2.954-18.974.179-22.624-2.1-27.575-1.157-2.518-4.217-4.372-6.656-5.779l-14.246-6.654c-6.75-2.973-11.66,4.638-10.672,8.1-.3,4.444,5.523,18.555,4.336,26.959-1.392,9.881-3.388,13.677-5.856,25.921-.3,1.492-.166,6.812,9.065,10.739a71.774,71.774,0,0,0,9.017,2.955c14.771,3.66,21.729-.925,21.5-4.08C7281.755,2987.1,7277.233,2981.746,7278.576,2973.138Z" transform="translate(-7215.03 -2903.641)"/><path class="a" d="M7292.18,2903.555c.008,1.841-1.524,3-3.415,3h0c-1.893,0-3.431-1.142-3.437-2.981l-.061-19.166a3.383,3.383,0,0,1,3.416-3.344h0a3.379,3.379,0,0,1,3.435,3.321Z" transform="translate(-7242.039 -2870.565)"/><path class="a" d="M7292.253,2878.318c-1.148,3.19-5.749,2.229-7.9,1.274-3.308-1.479-6.573-4.438-7.22-12.625-.306-3.883.855-8.882,9.457-8.289C7294.88,2859.251,7294.773,2871.32,7292.253,2878.318Z" transform="translate(-7236.771 -2856.123)"/><path class="m" d="M7314.519,2967.093l-2.452,1.278c-2,1.045-2.654,3.752-1.434,6.076,0,0,.571.967,1.576,2.658s2.468,4.122,4.348,7.019a91.422,91.422,0,0,0,7.116,9.674,42.994,42.994,0,0,0,10.875,9.328,33.588,33.588,0,0,0,6.762,3,37.866,37.866,0,0,0,6.9,1.428,49.555,49.555,0,0,0,12.044-.312c1.724-.22,3.265-.546,4.64-.8,1.361-.308,2.54-.575,3.507-.817l3.014-.813-.893-3.773-2.951.49c-.941.138-2.083.276-3.388.439-1.309.111-2.782.272-4.379.315a43.788,43.788,0,0,1-10.65-.766,30.671,30.671,0,0,1-5.522-1.729,26.367,26.367,0,0,1-5.077-2.893c-6.371-4.595-10.539-12.069-13.5-17.733-1.477-2.856-2.638-5.331-3.458-7.059-.812-1.745-1.277-2.74-1.277-2.74C7319.114,2967.084,7316.518,2966.047,7314.519,2967.093Z" transform="translate(-7257.969 -2925.674)"/><path class="b" d="M7222.27,2858.2c-.453-4.746-12.657-10.412-19.01-3.095-1.366,1.572-2.588,7.89-3.162,9.209-1.929,4.44-6.725,5.572-8.812,3.491-1.592-1.593-4.169-6.972-8.577-6.16-7.791,1.432-4.439,9.986-12.713,13.314-7.7,3.1-7.655,12.748-2.072,17.758,4.881,4.381,13.239.11,15.167-4.976s-.059-11.087,3.357-8.057a8.283,8.283,0,0,0,13.348-3.009c1.392-3.339,6.111-1.757,7.274-1.782,5.944-.142,9.348-4.81,11.14-9.319C7219.628,2862.006,7222.662,2862.3,7222.27,2858.2Z" transform="translate(-7163.949 -2851.593)"/></svg>