<svg xmlns="http://www.w3.org/2000/svg" width="242.751" height="241.535" viewBox="0 0 242.751 241.535"><defs><style>.a{opacity:0.8;mix-blend-mode:screen;}.a,.c{isolation:isolate;}.b{fill:#50c5ff;}.d{fill:#ee4bf7;}.e{fill:#1cf2ec;}</style></defs><g class="a"><g transform="translate(110.222 61.143)"><path class="b" d="M8708.957,711.811l.021,6.747-24.836,14.336-.021-6.745Z" transform="translate(-8684.12 -711.811)"/></g><g transform="translate(111.966 116.715)"><path class="b" d="M8698.8,864.79l.017,6.745-9.872,5.705-.024-6.747Z" transform="translate(-8688.918 -864.79)"/></g><g transform="translate(114.722 145.768)"><path class="b" d="M8736.339,944.766l.021,6.751-39.833,23-.021-6.752Z" transform="translate(-8696.506 -944.766)"/></g><g transform="translate(158.295 126.776)"><path class="b" d="M8845.608,892.486l.018,6.751-29.153,16.833-.018-6.753Z" transform="translate(-8816.455 -892.486)"/></g><g transform="translate(145.278 122.953)"><path class="b" d="M8808.652,881.961l.021,6.752L8780.637,904.9l-.016-6.754Z" transform="translate(-8780.621 -881.961)"/></g><g transform="translate(108.574 141.616)"><path class="b" d="M8711.988,933.337l.019,6.754L8679.6,958.8l-.016-6.753Z" transform="translate(-8679.586 -933.337)"/></g><g class="c" transform="translate(51.209 69.565)"><g transform="translate(76.246 27.726)"><path class="b" d="M8759.59,811.318l.021,6.748-28.037,16.186-.016-6.747Z" transform="translate(-8731.558 -811.318)"/></g><g transform="translate(45.311 49.042)"><path class="b" d="M8709.961,870l.016,6.75-63.56,36.7-.016-6.75Z" transform="translate(-8646.401 -869.997)"/></g><g transform="translate(33.7 40.304)"><path class="b" d="M8683.981,845.942,8684,852.7l-69.542,40.148-.021-6.749Z" transform="translate(-8614.438 -845.942)"/></g><g transform="translate(62.558 11.657)"><path class="b" d="M8721.915,767.085l.017,6.745L8693.9,790.017l-.018-6.747Z" transform="translate(-8693.879 -767.085)"/></g><g transform="translate(48.656 16.377)"><path class="b" d="M8710.129,780.078l.019,6.747L8655.633,818.3l-.023-6.748Z" transform="translate(-8655.609 -780.078)"/></g><g transform="translate(39.389)"><path class="b" d="M8680.735,735l.021,6.747-50.637,29.234-.02-6.747Z" transform="translate(-8630.1 -734.995)"/></g><g transform="translate(18.231 31.234)"><path class="b" d="M8610.307,820.977l.021,6.745-38.446,22.2-.023-6.744Z" transform="translate(-8571.857 -820.977)"/></g><g transform="translate(27.817 31.966)"><path class="d" d="M8605.081,822.989l.022,6.747-6.843,3.95-.017-6.745Z" transform="translate(-8598.244 -822.989)"/></g><g transform="translate(13.894 9.615)"><path class="b" d="M8598.633,761.462l.018,6.745-38.711,22.354-.022-6.748Z" transform="translate(-8559.917 -761.462)"/></g><g transform="translate(0 13.979)"><path class="b" d="M8545.958,773.478l.022,6.748-24.3,14.032-.016-6.751Z" transform="translate(-8521.668 -773.478)"/></g></g><g transform="translate(93.372 58.89)"><path class="b" d="M8662.563,705.609l.02,6.753-24.82,14.333-.025-6.751Z" transform="translate(-8637.736 -705.609)"/></g><g transform="translate(71.677 41.429)"><path class="e" d="M8613.26,657.544l.021,6.752-35.254,20.351-.015-6.75Z" transform="translate(-8578.012 -657.544)"/></g><g transform="translate(142.005 48.502)"><path class="b" d="M8786.558,677.015l.022,6.747-14.955,8.633-.013-6.747Z" transform="translate(-8771.612 -677.015)"/></g><g transform="translate(147.677 71.816)"><path class="b" d="M8797.636,741.193l.022,6.75-10.411,6.01-.024-6.745Z" transform="translate(-8787.223 -741.193)"/></g><g transform="translate(146.571 61.635)"><path class="e" d="M8792.581,713.165l.022,6.744-8.4,4.848-.021-6.745Z" transform="translate(-8784.181 -713.165)"/></g><g transform="translate(124.348 39.157)"><path class="b" d="M8751.038,651.29l.016,6.751-28.03,16.186-.019-6.751Z" transform="translate(-8723.005 -651.29)"/></g><g transform="translate(115.763 37.675)"><path class="b" d="M8717.8,647.209l.019,6.75L8699.394,664.6l-.021-6.751Z" transform="translate(-8699.372 -647.209)"/></g><g transform="translate(112.529 22.006)"><path class="e" d="M8718.509,604.075l.018,6.751-28.04,16.192-.017-6.754Z" transform="translate(-8690.47 -604.075)"/></g><g transform="translate(156.952 32.316)"><path class="b" d="M8840.8,632.458l.015,6.747-28.03,16.186-.024-6.747Z" transform="translate(-8812.756 -632.458)"/></g><g transform="translate(177.048 101.06)"><path class="b" d="M8902.257,821.7l.015,6.751L8868.1,848.182l-.019-6.753Z" transform="translate(-8868.078 -821.695)"/></g><g transform="translate(179.326 72.82)"><path class="b" d="M8934.406,743.956l.021,6.75-60.066,34.677-.015-6.752Z" transform="translate(-8874.347 -743.956)"/></g><g transform="translate(158.124 67.906)"><path class="b" d="M8843.486,730.428l.016,6.747L8816,753.051l-.021-6.745Z" transform="translate(-8815.982 -730.428)"/></g><g transform="translate(160.297 88.813)"><path class="e" d="M8831.84,787.982l.021,6.747-9.882,5.7-.015-6.747Z" transform="translate(-8821.965 -787.982)"/></g><g transform="translate(158.194 87.854)"><path class="b" d="M8850.565,785.342l.021,6.751-34.393,19.857-.02-6.753Z" transform="translate(-8816.174 -785.342)"/></g><g class="c" transform="translate(162.36 50.081)"><g transform="translate(28.072 10.115)"><path class="e" d="M8913.464,709.2l.015,6.748-8.543,4.934-.019-6.745Z" transform="translate(-8904.917 -709.203)"/></g><g transform="translate(14.486 11.445)"><path class="b" d="M8908.106,712.865l.018,6.747-40.585,23.432-.021-6.744Z" transform="translate(-8867.519 -712.865)"/></g><path class="b" d="M8861.019,681.359l.019,6.748-33.374,19.271-.021-6.75Z" transform="translate(-8827.642 -681.359)"/></g><g transform="translate(166.105 110.034)"><path class="e" d="M8846.773,846.4l.021,6.752-8.82,5.09-.021-6.751Z" transform="translate(-8837.953 -846.397)"/></g><g transform="translate(27.701 94.995)"><path class="d" d="M8464.165,805l.021,6.748-7.211,4.165-.02-6.753Z" transform="translate(-8456.955 -805)"/></g><g transform="translate(21.48 76.735)"><path class="d" d="M8464.13,754.733l.017,6.75-24.294,14.027-.021-6.751Z" transform="translate(-8439.832 -754.733)"/></g><g transform="translate(81.358 75.537)"><path class="d" d="M8612.675,751.436l.023,6.75-8.014,4.628-.021-6.75Z" transform="translate(-8604.664 -751.436)"/></g><g transform="translate(27.764 113.685)"><path class="d" d="M8473.424,856.448l.018,6.745-16.286,9.4-.023-6.748Z" transform="translate(-8457.132 -856.448)"/></g><g transform="translate(27.834 137.616)"><path class="d" d="M8473.612,922.324l.019,6.745-16.285,9.4-.021-6.745Z" transform="translate(-8457.324 -922.324)"/></g><g transform="translate(85.498 120.712)"><path class="d" d="M8624.723,875.791l.023,6.748-8.669,5-.018-6.748Z" transform="translate(-8616.06 -875.791)"/></g><g transform="translate(27.904 161.546)"><path class="d" d="M8473.8,988.2l.02,6.748-16.29,9.4-.02-6.747Z" transform="translate(-8457.515 -988.199)"/></g><g transform="translate(72.672 152.626)"><path class="d" d="M8588.475,963.646l.018,6.751-7.719,4.459-.02-6.753Z" transform="translate(-8580.754 -963.646)"/></g><g transform="translate(65.242 125.964)"><path class="b" d="M8600.885,890.25,8600.9,897l-40.586,23.433-.015-6.747Z" transform="translate(-8560.299 -890.25)"/></g><g transform="translate(51.27 109.169)"><path class="b" d="M8543.2,844.018l.023,6.748L8521.86,863.1l-.023-6.747Z" transform="translate(-8521.837 -844.018)"/></g><g transform="translate(48.865 107.057)"><path class="d" d="M8521.891,838.2l.014,6.747-6.668,3.852-.021-6.747Z" transform="translate(-8515.216 -838.203)"/></g><g transform="translate(51.34 130.635)"><path class="b" d="M8547.664,903.108l.014,6.748-25.63,14.8-.02-6.747Z" transform="translate(-8522.028 -903.108)"/></g><g transform="translate(48.929 130.989)"><path class="d" d="M8522.068,904.083l.021,6.744-6.673,3.854-.024-6.748Z" transform="translate(-8515.393 -904.083)"/></g><g transform="translate(73.653 180.956)"><path class="b" d="M8603.4,1041.632l.021,6.753-19.955,11.518-.015-6.753Z" transform="translate(-8583.452 -1041.632)"/></g><g class="c" transform="translate(51.409 159.958)"><g transform="translate(13.902 3.961)"><path class="b" d="M8576.773,994.732l.02,6.751-16.289,9.4-.016-6.75Z" transform="translate(-8560.488 -994.732)"/></g><g transform="translate(0.064 9.932)"><path class="b" d="M8562.941,1011.168l.02,6.748-40.544,23.409-.021-6.753Z" transform="translate(-8522.396 -1011.168)"/></g><path class="b" d="M8538.508,983.827l.021,6.752-16.294,9.4-.016-6.752Z" transform="translate(-8522.219 -983.827)"/></g><g transform="translate(48.995 154.918)"><path class="d" d="M8522.25,969.954l.022,6.748-6.677,3.853-.02-6.745Z" transform="translate(-8515.576 -969.954)"/></g><g transform="translate(27.971 185.411)"><path class="d" d="M8473.987,1053.9l.014,6.749-16.282,9.4-.021-6.75Z" transform="translate(-8457.698 -1053.896)"/></g><g transform="translate(49.065 178.785)"><path class="d" d="M8522.442,1035.654l.017,6.748-6.67,3.856-.021-6.753Z" transform="translate(-8515.768 -1035.654)"/></g><g transform="translate(99.43 172.631)"><path class="d" d="M8663,1018.715l.019,6.751-8.592,4.961-.021-6.753Z" transform="translate(-8654.41 -1018.715)"/></g><g transform="translate(97.649 163.063)"><path class="d" d="M8655.7,992.376l.017,6.749-6.185,3.572-.021-6.75Z" transform="translate(-8649.507 -992.376)"/></g><g transform="translate(0.101 129.196)"><path class="b" d="M8398.068,899.148l.021,6.745L8381,915.757l-.019-6.744Z" transform="translate(-8380.981 -899.148)"/></g><g transform="translate(0.07 117.229)"><path class="b" d="M8397.979,866.2l.019,6.75-17.089,9.868-.017-6.752Z" transform="translate(-8380.893 -866.203)"/></g><g transform="translate(0.035 105.266)"><path class="b" d="M8397.88,833.272l.023,6.748-17.087,9.866-.02-6.75Z" transform="translate(-8380.797 -833.272)"/></g><g transform="translate(0 93.297)"><path class="b" d="M8397.789,800.324l.02,6.751-17.088,9.864-.02-6.747Z" transform="translate(-8380.701 -800.324)"/></g><g transform="translate(50.887 68.195)"><path class="b" d="M8551.223,731.226l.013,6.753L8520.8,755.549l-.019-6.75Z" transform="translate(-8520.782 -731.226)"/></g><g transform="translate(51.386 64.093)"><path class="b" d="M8538.44,719.934l.022,6.752-16.283,9.4-.025-6.75Z" transform="translate(-8522.154 -719.934)"/></g><g transform="translate(157.454 24.667)"><path class="b" d="M8834.161,611.4l.019,6.749-20.024,11.563-.018-6.753Z" transform="translate(-8814.138 -611.402)"/></g><g transform="translate(144.306 11.219)"><path class="b" d="M8792.891,574.382l.019,6.751-14.95,8.631-.016-6.75Z" transform="translate(-8777.943 -574.382)"/></g><g transform="translate(85.33 51.701)"><path class="b" d="M8640.163,685.819l.015,6.749-24.568,14.186L8615.6,700Z" transform="translate(-8615.596 -685.819)"/></g><g transform="translate(188.729 21.525)"><path class="b" d="M8915.186,602.753l.02,6.745-14.957,8.632-.019-6.747Z" transform="translate(-8900.229 -602.753)"/></g><g transform="translate(214.695 22.949)"><path class="b" d="M8999.745,606.671l.021,6.75L8971.729,629.6l-.02-6.744Z" transform="translate(-8971.71 -606.671)"/></g><g transform="translate(184.157 0)"><path class="b" d="M8923.692,543.5l.017,6.751-36.045,20.813-.02-6.754Z" transform="translate(-8887.645 -543.498)"/></g><g transform="translate(0.241 177.057)"><path class="b" d="M8398.45,1030.9l.018,6.748-17.089,9.867-.014-6.748Z" transform="translate(-8381.365 -1030.898)"/></g><g transform="translate(0.206 165.093)"><path class="b" d="M8398.355,997.963l.02,6.748-17.092,9.861-.014-6.742Z" transform="translate(-8381.27 -997.963)"/></g><g transform="translate(0.171 153.128)"><path class="b" d="M8398.259,965.026l.024,6.748-17.093,9.862-.018-6.747Z" transform="translate(-8381.173 -965.026)"/></g><g transform="translate(0.133 141.162)"><path class="b" d="M8398.161,932.087l.02,6.747-17.09,9.864-.022-6.749Z" transform="translate(-8381.068 -932.087)"/></g><g transform="translate(199.478 41.914)"><path class="b" d="M8940.229,658.877l.017,6.745-10.409,6.01-.016-6.747Z" transform="translate(-8929.821 -658.877)"/></g><g transform="translate(0.273 189.02)"><path class="b" d="M8398.541,1063.83l.021,6.751-17.09,9.864-.018-6.751Z" transform="translate(-8381.455 -1063.83)"/></g><g transform="translate(0.371 224.917)"><path class="b" d="M8398.813,1162.646l.019,6.751-17.087,9.867-.024-6.751Z" transform="translate(-8381.721 -1162.646)"/></g><g transform="translate(0.34 212.951)"><path class="b" d="M8398.725,1129.706l.02,6.751-17.089,9.867-.02-6.754Z" transform="translate(-8381.636 -1129.706)"/></g><g transform="translate(0.305 200.986)"><path class="b" d="M8398.63,1096.77l.021,6.751-17.091,9.867-.021-6.754Z" transform="translate(-8381.539 -1096.77)"/></g><g transform="translate(85.6 157.532)"><path class="b" d="M8623.4,977.15l.016,6.747-7.056,4.079-.021-6.75Z" transform="translate(-8616.339 -977.15)"/></g><g transform="translate(51.508 195.854)"><path class="b" d="M8538.781,1082.642l.019,6.751-16.288,9.406-.019-6.751Z" transform="translate(-8522.493 -1082.642)"/></g></g></svg>