<svg xmlns="http://www.w3.org/2000/svg" xmlns:xlink="http://www.w3.org/1999/xlink" width="646.958" height="438.984" viewBox="0 0 646.958 438.984"><defs><style>.a{fill:#989899;}.b{fill:#457edb;}.c{opacity:0.8;}.d{mix-blend-mode:screen;}.d,.i{isolation:isolate;}.e{fill:#50c5ff;}.f{fill:url(#a);}.g{fill:url(#b);}.h{fill:url(#c);}.j{clip-path:url(#e);}.k{fill:url(#f);}.l{fill:#e8e9ea;}.m{fill:#c2c3c4;}.n{fill:url(#g);}.o{fill:url(#h);}.p{fill:#ffe5d4;}.q{fill:url(#j);}.r{fill:#fff;}.s{fill:#e95a0c;}.t{fill:#f4e19c;}.u{fill:#f15a24;}.v{fill:url(#l);}.w{fill:url(#m);}.x{fill:url(#n);}.y{fill:#ffb600;}.z{fill:#ffc952;}.aa{fill:url(#o);}.ab{fill:url(#p);}.ac{fill:url(#q);}.ad{fill:url(#r);}.ae{fill:url(#s);}.af{fill:#ff76a7;}.ag{clip-path:url(#x);}.ah{fill:url(#z);}.ai{fill:url(#aa);}.aj{fill:url(#ab);}</style><linearGradient id="a" x1="-167.453" y1="0.896" x2="-166.454" y2="0.896" gradientUnits="objectBoundingBox"><stop offset="0" stop-color="#f6a509"/><stop offset="0.749" stop-color="#e84e1b"/></linearGradient><linearGradient id="b" y1="0.5" x2="1" y2="0.5" gradientUnits="objectBoundingBox"><stop offset="0" stop-color="#ffa91f"/><stop offset="1" stop-color="#ffd56c"/></linearGradient><linearGradient id="c" x1="-164.71" y1="0.889" x2="-163.71" y2="0.889" xlink:href="#a"/><clipPath id="e"><path class="a" d="M8081.3,3387.116l0,2.137-35.513-19.914c-4.377-2.454-7.925-.451-7.925,4.453l.014,39.858c0,4.907,3.554,10.883,7.931,13.338l35.391,19.841-1.92,1.044-33.471-18.746c-5.421-3.042-9.836-10.46-9.836-16.543l-.014-39.863c0-6.081,4.408-8.558,9.833-5.519Z" transform="translate(-8035.957 -3365.904)"/></clipPath><linearGradient id="f" x1="-44.908" y1="0.569" x2="-43.908" y2="0.569" gradientUnits="objectBoundingBox"><stop offset="0" stop-color="#e5332a"/><stop offset="1" stop-color="#ec6d1c"/></linearGradient><linearGradient id="g" x1="-43.84" y1="0.189" x2="-43.351" y2="0.746" xlink:href="#f"/><linearGradient id="h" x1="0.71" y1="0.892" x2="0.374" y2="0.321" xlink:href="#b"/><linearGradient id="j" x1="-123.056" y1="0.703" x2="-122.056" y2="0.703" xlink:href="#a"/><linearGradient id="l" y1="0.5" x2="1" y2="0.5" gradientUnits="objectBoundingBox"><stop offset="0.042" stop-color="#a2abea"/><stop offset="1" stop-color="#8a84dc"/></linearGradient><linearGradient id="m" y1="0.5" x2="1" y2="0.5" gradientUnits="objectBoundingBox"><stop offset="0" stop-color="#d1cff7"/><stop offset="0.98" stop-color="#8a84dc"/><stop offset="1" stop-color="#7559be"/></linearGradient><linearGradient id="n" y1="0.5" x2="1" y2="0.5" gradientUnits="objectBoundingBox"><stop offset="0" stop-color="#7559be"/><stop offset="1" stop-color="#624c9e"/></linearGradient><linearGradient id="o" x1="0.485" y1="0.819" x2="0.534" y2="-0.297" xlink:href="#a"/><linearGradient id="p" x1="0.475" y1="0.558" x2="0.779" y2="0.224" gradientUnits="objectBoundingBox"><stop offset="0" stop-color="#ffd56c"/><stop offset="1" stop-color="#ffa91f"/></linearGradient><linearGradient id="q" x1="0.38" y1="0.947" x2="0.632" y2="0.161" xlink:href="#p"/><linearGradient id="r" x1="0.385" y1="0.191" x2="0.293" y2="-0.071" xlink:href="#p"/><linearGradient id="s" x1="1.795" y1="0.56" x2="1.212" y2="0.492" gradientUnits="objectBoundingBox"><stop offset="0" stop-color="#e7358a"/><stop offset="1" stop-color="#ec6d1c"/></linearGradient><clipPath id="x"><path class="b" d="M6714.206,3873.712l0,2.079,34.545-19.509c4.25-2.4,7.723-.465,7.735,4.312l.114,38.84c.014,4.78-3.435,10.619-7.69,13.023l-34.422,19.44,1.873,1.01,32.557-18.368c5.272-2.981,9.55-10.222,9.533-16.149l-.111-38.841c-.016-5.928-4.322-8.323-9.6-5.347Z" transform="translate(-6714.206 -3852.922)"/></clipPath><linearGradient id="z" x1="2.174" y1="0.815" x2="2.06" y2="0.434" xlink:href="#s"/><linearGradient id="aa" x1="1.246" y1="1" x2="1.246" gradientUnits="objectBoundingBox"><stop offset="0" stop-color="#7a4694"/><stop offset="1" stop-color="#b54f97"/></linearGradient><linearGradient id="ab" x1="2.238" y1="-0.32" x2="1.54" y2="0.109" xlink:href="#s"/></defs><g transform="translate(434.426 19.455)"><g class="c"><g class="d" transform="translate(1.729 54.885)"><path class="e" d="M7757.914,3098.6c-1.333.753-1.338,1.974-.013,2.728l42.829,24.352a5.394,5.394,0,0,0,4.806,0l66.947-37.82c1.334-.751,1.344-1.969.02-2.721l-42.83-24.354a5.391,5.391,0,0,0-4.809,0Z" transform="translate(-7756.91 -3060.218)"/></g><g class="d"><path class="e" d="M7754.463,2944.332a5.148,5.148,0,0,0-2.405,4.076l.139,48.5c0,1.495,1.091,2.1,2.419,1.347l66.951-37.82a5.165,5.165,0,0,0,2.405-4.071l-.143-48.5c0-1.5-1.087-2.1-2.418-1.347Z" transform="translate(-7752.058 -2906.19)"/></g></g><g transform="translate(35.687 30.079)"><g transform="translate(70.161 164.752)"><path class="f" d="M8054.19,3472.921c2.3,1.164,4.192,1.688,6.042.633v.613c.2,1.6.614,2.063,1.3,2.45a7.81,7.81,0,0,0,6.884-.023,2.885,2.885,0,0,0,1.28-1.292v-.185a7.012,7.012,0,0,1,.367,7.785l0,2.116s-.4,1.937-3.954,1.992c-3.111.05-5.269-2.926-5.269-2.926v-2.4c-2.09-.78-4.309-.182-5-.406-3.59-1.159-4.823-1.917-5.788-3.245C8047.06,3473.906,8051.9,3471.76,8054.19,3472.921Z" transform="translate(-8049.107 -3465.605)"/><path class="g" d="M8085.945,3454.3c1.292,3.237,2.984,8.284,2.984,8.284-1.229,3.294-10.58,3.291-9.546-1.678,0,0,1.61-.919-.437-5.7C8078,3452.985,8085,3451.932,8085.945,3454.3Z" transform="translate(-8068.256 -3452.956)"/></g><g transform="translate(39.915 171.253)"><path class="h" d="M7969.312,3491.169c2.3,1.163,4.192,1.687,6.041.632v.613c.2,1.6.615,2.063,1.3,2.449a7.8,7.8,0,0,0,6.884-.021,2.858,2.858,0,0,0,1.28-1.289v-.191a7.017,7.017,0,0,1,.364,7.79l.007,2.115s-.392,1.931-3.956,1.987c-3.108.051-5.269-2.922-5.269-2.922v-2.4c-2.091-.776-4.3-.177-5-.4-3.59-1.162-4.821-1.918-5.787-3.246C7962.18,3492.152,7967.023,3490.006,7969.312,3491.169Z" transform="translate(-7964.228 -3483.851)"/><path class="g" d="M8001.066,3472.545c1.291,3.235,2.982,8.28,2.982,8.28-1.229,3.3-10.578,3.29-9.543-1.676,0,0,1.616-.918-.437-5.7C7993.119,3471.229,8000.125,3470.173,8001.066,3472.545Z" transform="translate(-7983.378 -3471.199)"/></g><g transform="translate(65.475 107.083)"><g class="i" transform="translate(0 26.65)"><path class="a" d="M8081.3,3387.116l0,2.137-35.513-19.914c-4.377-2.454-7.925-.451-7.925,4.453l.014,39.858c0,4.907,3.554,10.883,7.931,13.338l35.391,19.841-1.92,1.044-33.471-18.746c-5.421-3.042-9.836-10.46-9.836-16.543l-.014-39.863c0-6.081,4.408-8.558,9.833-5.519Z" transform="translate(-8035.957 -3365.904)"/><g class="j"><path class="b" d="M8081.3,3387.116l0,2.137-35.513-19.914c-4.377-2.454-7.925-.451-7.925,4.453l.014,39.858c0,4.907,3.554,10.883,7.931,13.338l35.436,19.841-1.965,1.044-33.471-18.746c-5.421-3.042-9.836-10.46-9.836-16.543l-.014-39.863c0-6.081,4.408-8.558,9.833-5.519Z" transform="translate(-8035.957 -3365.904)"/></g></g><path class="b" d="M8205.967,3372.115h0l-.014-.006c-.029-.019-.055-.039-.081-.056l-.007,0-35.408-19.856c-4.375-2.454-7.93-8.435-7.932-13.341l-.015-39.857c0-4.907,3.552-6.905,7.93-4.454l35.51,19.917v-2.139l-35.514-19.914c-5.421-3.04-9.832-.561-9.83,5.521l.017,39.856c0,6.089,4.412,13.507,9.834,16.547l33.521,18.793h0c4.344,2.454,4.333,6.462-.026,8.947L8175,3398.563c-4.357,2.482-11.43,2.5-15.774.05l-1.9,1.08c5.384,3.041,14.166,3.014,19.565-.061l28.951-16.488C8211.208,3380.09,8211.252,3375.161,8205.967,3372.115Z" transform="translate(-8114.079 -3291.115)"/></g><path class="k" d="M8114.462,3256.053c6.36,4.543,7.738,12.672,3.446,17.891-4.319,5.254-12.377,5.868-18.133,1.759,0,0-1.6-1.339-4.417-3.569-2.828-2.208-6.887-5.366-11.887-8.693-2.5-1.666-5.225-3.383-8.127-4.979a60.6,60.6,0,0,0-9.036-4.147,21.171,21.171,0,0,0-8.054-1.457,5.063,5.063,0,0,0-4.414,2.722c-1.349,2.159-2.234,5.632-2.559,9.243a65.107,65.107,0,0,0,.037,11.215,144.429,144.429,0,0,0,3.416,20.759c1.4,6.107,5.276,18.807,5.569,19.754s-6.949,2.112-7.372,1.2c-.725-1.545-4.834-12.167-7.14-18.258a155.144,155.144,0,0,1-6.619-21.527,77.846,77.846,0,0,1-1.855-13.192,45.5,45.5,0,0,1,.216-7.366,30.919,30.919,0,0,1,1.966-8.035,21.519,21.519,0,0,1,14.553-13.03,30.139,30.139,0,0,1,9.033-1.042,45.405,45.405,0,0,1,7.791.91,77.338,77.338,0,0,1,12.949,3.87c3.868,1.492,7.346,3.088,10.491,4.622,6.287,3.081,11.217,5.965,14.683,8,1.714,1.035,3.08,1.848,4,2.427Z" transform="translate(-7971.32 -3148.101)"/><g transform="translate(60.455 100.297)"><path class="l" d="M8052.766,3278.8a286.636,286.636,0,0,0,11.482,12.756q2.5,1.659,5.015,3.331a23.23,23.23,0,0,0,16.986,1.234,22.608,22.608,0,0,0,13.307-11.206,21.662,21.662,0,0,0,2.314-11.063c-.111-.593-.22-1.184-.336-1.781,1.549.788,3.137,1.63,4.758,2.539a86.384,86.384,0,0,1,17.34,12.436l-51.751,29.64a86.514,86.514,0,0,0-17.343-12.44,134.672,134.672,0,0,0-23.13-10.255c-1.739-.975-3.315-1.063-4.451-.411Z" transform="translate(-8025.144 -3272.07)"/><path class="m" d="M8028.133,3332.088a134.635,134.635,0,0,1,23.131,10.255,88.129,88.129,0,0,1,16.605,11.766l14.354,14.643c0,.235,0,.468,0,.7,0,3.881-2.8,5.453-6.264,3.511l-47.824-26.819a13.4,13.4,0,0,1-6.269-10.533C8021.87,3331.721,8024.675,3330.151,8028.133,3332.088Z" transform="translate(-8021.87 -3310.168)"/></g><path class="n" d="M8029.224,3274.555c6.364,4.544,7.742,12.677,3.445,17.895-4.314,5.254-12.371,5.865-18.133,1.757,0,0-1.595-1.34-4.415-3.57-2.827-2.207-6.883-5.368-11.886-8.691-2.5-1.664-5.227-3.385-8.127-4.983a60.453,60.453,0,0,0-9.039-4.145,21.122,21.122,0,0,0-8.051-1.457,5.055,5.055,0,0,0-4.414,2.721c-1.349,2.16-2.234,5.633-2.554,9.241a64.3,64.3,0,0,0,.033,11.217,144.314,144.314,0,0,0,3.417,20.763c1.4,6.1,5.251,18.641,5.547,19.585s-7.1,2.116-7.526,1.2-4.662-12-6.964-18.092a156.012,156.012,0,0,1-6.62-21.53,78.555,78.555,0,0,1-1.857-13.19,46.206,46.206,0,0,1,.218-7.365,31.017,31.017,0,0,1,1.967-8.037,21.567,21.567,0,0,1,14.557-13.031,30.3,30.3,0,0,1,9.03-1.038,44.982,44.982,0,0,1,7.791.909,77.983,77.983,0,0,1,12.951,3.87c3.864,1.493,7.344,3.083,10.487,4.622,6.289,3.083,11.218,5.963,14.684,8,1.714,1.033,3.08,1.848,3.994,2.429Z" transform="translate(-7916.455 -3160.011)"/><path class="o" d="M8098.859,3107.3c-16.838,12.826,12.389,30.627,5.812,63.048-4.255,16.963,51.071,9.322,52.115-16.616,1.054-26.128-7.825-44.148-11.59-50.371-6.549-10.825-15.086-13.743-20.739-10.974C8116.074,3096.488,8105.875,3101.957,8098.859,3107.3Z" transform="translate(-8007.556 -3055.483)"/><path class="p" d="M7853.37,3143.675a.546.546,0,0,1-.453-.625l.034-.209a.551.551,0,0,1,.629-.453l4.16.659.045-.268-4.951-.78a.543.543,0,0,1-.459-.622l.037-.212a.547.547,0,0,1,.63-.45l4.951.785.048-.286-5.369-.849a.539.539,0,0,1-.456-.619l.034-.212a.552.552,0,0,1,.632-.452l5.375.849.058-.353-4.708-.744a.54.54,0,0,1-.452-.619l.034-.21a.555.555,0,0,1,.631-.454l4.7.744v-.006s1.142.179,2.2.348a3.343,3.343,0,0,0,1.2-.015l-3.114-2.14a.561.561,0,0,1-.165-.756l.008-.013s.359-.715.9-.367c.166.108,3.043,1.986,3.709,2.548a12.056,12.056,0,0,1,1.585,1.878c.952,1.1,2.891.846,5.438,4.059.27.344-1.67,1.637-1.67,1.637s-2.638-3.677-4.771-1.541c-1.284,1.28-4.583.671-4.583.671-.017,0-.037-.005-.056-.005Z" transform="translate(-7852.21 -3083.709)"/><path class="p" d="M7909.46,3109.973a.6.6,0,0,0-.359.729l.065.218a.537.537,0,0,0,.689.37l.433-.149.083.275-1.2.41a.592.592,0,0,0-.361.73l.065.215a.536.536,0,0,0,.691.368l1.2-.407.09.286-1.612.554a.591.591,0,0,0-.359.729l.063.216a.541.541,0,0,0,.692.37l1.606-.548.109.363-4.56,1.556a.593.593,0,0,0-.364.727l.065.22a.546.546,0,0,0,.692.368l4.561-1.558,0,.009s1.1-.382,2.125-.728a3.234,3.234,0,0,1,1.193-.184l-2.784,2.768a.622.622,0,0,0-.055.819l.007.019a.766.766,0,0,0,1.055.1s3.194-3.144,3.2-3.156v0l0-.006a10.248,10.248,0,0,0,1.426-2.378c1-2.543,4.61-3.047,4.61-3.047l-.663-2.512s-3.928,1.527-5.066,1.207a7.855,7.855,0,0,0-3.731.037A15.583,15.583,0,0,0,7909.46,3109.973Z" transform="translate(-7887.093 -3065.992)"/><path class="g" d="M8036.452,3082.4a6.969,6.969,0,0,1,3.355,4.2,7.041,7.041,0,0,1-.654,5.31,8.6,8.6,0,0,1-4,3.705,6.638,6.638,0,0,1-4.868.322,5.337,5.337,0,0,1-.773-.242l-3.3-1.569c-2.148-.892-5.21-2.236-9.066-3.443-1.9-.7-4.043-1.176-6.287-1.817-1.119-.336-2.306-.51-3.5-.789-1.208-.234-2.422-.568-3.693-.739-2.532-.393-5.151-.848-7.855-1.06-2.692-.339-5.457-.406-8.228-.557a138.148,138.148,0,0,0-30.621,2.785c-4.141.892-7.6,1.694-9.978,2.4-2.4.667-3.765,1.044-3.765,1.044l-1.87-4.978s1.366-.541,3.756-1.482c2.38-.986,5.854-2.187,10.066-3.57a146.935,146.935,0,0,1,32.144-6.328c3.014-.153,6.033-.391,9.021-.336,2.992-.065,5.937.121,8.8.268,1.435.048,2.825.265,4.2.383,1.371.168,2.732.239,4.03.479,2.6.448,5.094.747,7.344,1.307,4.54.921,8.254,2.086,10.858,2.869,2.571.9,4.043,1.416,4.043,1.416A7.618,7.618,0,0,1,8036.452,3082.4Z" transform="translate(-7909.582 -3045.089)"/><g transform="translate(106.572 63.181)"><path class="l" d="M8237.68,3168.429a2.776,2.776,0,0,0-2.768-.25l-51.751,29.639a2.787,2.787,0,0,1,2.771.254c2.449,1.375,4.891,5.229,4.308,8.485-4.952,27.446-4.2,43.658-4.2,57.751,0,1.925-.688,3.287-1.811,3.926l51.75-29.641c1.12-.642,1.812-2,1.812-3.926-.006-14.09-.758-30.3,4.193-57.749C8242.573,3173.66,8240.13,3169.8,8237.68,3168.429Z" transform="translate(-8171.803 -3167.91)"/><g transform="translate(0 29.64)"><path class="m" d="M8151.712,3303c.063.063.132.118.2.182a503.312,503.312,0,0,1,9.321-49.525c.646-2.74,2.417-3.039,4.185-2.045,2.45,1.374,4.893,5.229,4.309,8.485-4.952,27.447-4.2,43.659-4.194,57.752,0,3.881-2.8,5.452-6.266,3.511l-7.977-4.473C8151.314,3312.647,8151.415,3308.068,8151.712,3303Z" transform="translate(-8151.288 -3251.091)"/></g></g><g transform="translate(89.965)"><g transform="translate(4.982 5.254)"><path class="p" d="M8148.157,3057.172c.009,2.54,2.153,4.123,4.788,4.117h0c2.636-.009,4.772-1.607,4.765-4.147l-.086-26.453a4.691,4.691,0,0,0-4.793-4.585h0a4.693,4.693,0,0,0-4.762,4.617Z" transform="translate(-8137.591 -3018.708)"/><path class="p" d="M8121.1,3030.177c1.718,3.934,8.092,2.58,11.063,1.3,4.553-1.958,8.99-5.773,9.582-16.006.278-4.861-1.528-11.056-13.49-10.006C8116.724,3006.478,8117.331,3021.535,8121.1,3030.177Z" transform="translate(-8118.666 -3005.347)"/></g><path class="q" d="M8104.694,2998.14c-.521-7.582,20.376-7.628,21.938-7.516,15.873,1.152,4.279,24.872,4.074,25.762-.745,3.207-5.227,2.9-6.354,2.791-1.26-.124-1.295-5.17-.581-10.938.518-3.382-3.234-3.046-3.525-1.68-.322,1.51-3.047,7.638-2.51,4.424.256-1.513.737-5.313-.35-6.558C8114.065,3000.612,8105.066,3003.612,8104.694,2998.14Z" transform="translate(-8104.685 -2990.602)"/></g><path class="g" d="M7967.092,3135.809c2.864-1.749,6.989-.909,9.485,2.146,2.482,3.039,2.388,7.228-.239,9.6a6.145,6.145,0,0,1-.643.566s-1.187.781-3.268,2.155c-2.106,1.349-5.112,3.291-8.95,5.451a79.973,79.973,0,0,1-14.1,6.4,48.02,48.02,0,0,1-8.986,1.98,41.125,41.125,0,0,1-9.565-.008,57.9,57.9,0,0,1-16.967-5.137,135.147,135.147,0,0,1-12.867-6.916c-3.622-2.167-6.547-4.062-8.592-5.384s-3.2-2.1-3.2-2.1l2.789-4.548s1.229.629,3.375,1.716,5.217,2.618,8.933,4.323a128.686,128.686,0,0,0,12.772,5.157,48.392,48.392,0,0,0,14.514,2.781,31.839,31.839,0,0,0,13.411-2.973,67.469,67.469,0,0,0,11.026-6.594c3.162-2.268,5.746-4.37,7.553-5.835,1.8-1.5,2.828-2.349,2.828-2.349A5.57,5.57,0,0,1,7967.092,3135.809Z" transform="translate(-7876.02 -3083.487)"/></g></g><g transform="translate(224.863)"><g transform="translate(20.299 192.754)"><path class="r" d="M7224.179,3393.64c-.006-.02-.022-.041-.029-.06l-1.206,6.629a1.685,1.685,0,0,0,.751.765,4.539,4.539,0,0,0,4.008,0c.885-.471.665-.831.781-1.125,0,0-1.46-1.61-.875-5.022C7228.3,3390.827,7224.078,3393.169,7224.179,3393.64Z" transform="translate(-7222.221 -3392.531)"/><path class="s" d="M7230.529,3413.862a2.694,2.694,0,0,1-3.432-1.123,1.275,1.275,0,0,1-.736,1.143,4.453,4.453,0,0,1-3.929,0,1.651,1.651,0,0,1-.735-.748v-.109c-1.632,2.338-.2,3.739-.186,3.789l-.01,2.967s.094,1.045,2.116.832a1.778,1.778,0,0,0,1.049-.527V3417.2c1.214,0,3.494,1.385,4.216,1.144a7.356,7.356,0,0,0,3.293-2.014C7233.572,3415.1,7231.831,3413.179,7230.529,3413.862Z" transform="translate(-7220.917 -3405.538)"/></g><g transform="translate(59.237 208.725)"><path class="r" d="M7333.458,3438.461c-.009-.02-.02-.041-.03-.062l-1.2,6.628a1.682,1.682,0,0,0,.75.767,4.544,4.544,0,0,0,4.009,0c.886-.47.667-.833.779-1.124,0,0-1.46-1.61-.874-5.022C7337.577,3435.647,7333.358,3437.988,7333.458,3438.461Z" transform="translate(-7331.499 -3437.351)"/><path class="s" d="M7339.8,3458.676a2.688,2.688,0,0,1-3.429-1.124,1.285,1.285,0,0,1-.738,1.146,4.455,4.455,0,0,1-3.931,0,1.682,1.682,0,0,1-.735-.746v-.112c-1.63,2.338-.2,3.741-.182,3.788l-.01,2.968s.093,1.046,2.116.833a1.774,1.774,0,0,0,1.049-.529v-2.885c1.213,0,3.492,1.388,4.215,1.148a7.374,7.374,0,0,0,3.294-2.015C7342.848,3459.911,7341.108,3457.993,7339.8,3458.676Z" transform="translate(-7330.191 -3450.353)"/></g><g transform="translate(93.002 37.514)"><path class="t" d="M7454.664,3408.969l-13.377,34.444s-.627,1.615-1.528,1.615c-.845,0-1.372-1.61-1.372-1.61l-13.377-34.449Z" transform="translate(-7424.987 -3247.871)"/><path class="u" d="M7459.417,3478.231h-5.789l-2.669-2.408,4.125,10.607s.525,1.61,1.37,1.61c.9,0,1.529-1.614,1.529-1.614l4.131-10.634Z" transform="translate(-7441.69 -3290.882)"/><g transform="translate(0 7.855)"><rect class="v" width="14.914" height="161.174" transform="translate(7.39)"/><path class="w" d="M7432.391,3140.089l-7.445-7.874v-153.3h7.445Z" transform="translate(-7424.946 -2978.915)"/><path class="x" d="M7494.835,3132.215l-7.442,7.874V2978.915h7.442Z" transform="translate(-7465.142 -2978.915)"/><rect class="y" width="14.914" height="161.174" transform="translate(7.39)"/><path class="z" d="M7432.391,3140.089l-7.445-7.874v-153.3h7.445Z" transform="translate(-7424.946 -2978.915)"/><path class="aa" d="M7494.835,3132.215l-7.442,7.874V2978.915h7.442Z" transform="translate(-7465.142 -2978.915)"/></g><path class="t" d="M7447.229,2956.87H7432.46l-7.438,7.855,7.438,7.865h14.769l7.437-7.865Z" transform="translate(-7424.995 -2956.87)"/><g transform="translate(9.287 4.412)"><path class="u" d="M7460.489,2974.75a8.67,8.67,0,0,1-7.864.005c-2.165-1.258-2.155-3.3.02-4.56a8.681,8.681,0,0,1,7.871,0C7462.68,2971.443,7462.672,2973.49,7460.489,2974.75Z" transform="translate(-7451.008 -2969.251)"/></g></g><path class="ab" d="M7226.638,2938.682l-1.383-2.393a3.807,3.807,0,0,0-2.584-1.822,4.542,4.542,0,0,0-3.369.661l-.635.452c-.417.286-1.018.733-1.779,1.313a73.151,73.151,0,0,0-6.12,5.122,46.958,46.958,0,0,0-7.542,8.887,30.029,30.029,0,0,0-3.018,6.185,23.453,23.453,0,0,0-1.362,7.123,26.386,26.386,0,0,0,3.282,13.248,45.192,45.192,0,0,0,6.481,9.1c2.133,2.4,4.085,4.167,5.426,5.424,1.378,1.211,2.164,1.9,2.164,1.9l2.667-2.813-1.868-2.036c-1.136-1.326-2.806-3.2-4.513-5.606a39.674,39.674,0,0,1-4.817-8.544,19.588,19.588,0,0,1-1.442-10.079,18.744,18.744,0,0,1,4.125-8.908,38.155,38.155,0,0,1,6.78-6.388,63.559,63.559,0,0,1,5.732-3.822c.718-.436,1.291-.772,1.69-.988s.611-.339.611-.339A4.272,4.272,0,0,0,7226.638,2938.682Z" transform="translate(-7186.404 -2904.881)"/><path class="r" d="M7486.387,3053.443a.4.4,0,0,0,.159-.537l-.072-.14a.391.391,0,0,0-.531-.165l-2.675,1.422-.1-.174,3.181-1.7a.391.391,0,0,0,.163-.538l-.072-.138a.4.4,0,0,0-.536-.167l-3.181,1.7-.1-.185,3.452-1.839a.4.4,0,0,0,.162-.536l-.076-.141a.4.4,0,0,0-.537-.165l-3.451,1.838-.125-.234,3.022-1.608a.4.4,0,0,0,.164-.535l-.076-.139a.4.4,0,0,0-.536-.169l-3.022,1.61v-.006s-2.028,1-2.181,1.027c0,0-.5-1.343-.946-2.589a.7.7,0,0,0-1.114-.393,6.607,6.607,0,0,1,.3,4.456c-.207.883-.288.661-2.767,2.045-.28.157.558,1.523.558,1.523a11.583,11.583,0,0,1,3.877-.912,10.2,10.2,0,0,0,3.145-.8Z" transform="translate(-7364.057 -2978.524)"/><g transform="translate(49.229 81.74)"><path class="u" d="M7319.9,3091.556c-.768-6.455-5.34-11.162-10.213-10.512s-8.219,6.253-7.472,12.521c0,0,.08.457.231,1.3s.391,2.093.623,3.681c.488,3.179,1.186,7.716,2.026,13.162.405,2.727.762,5.691,1.188,8.822q.309,2.348.639,4.821c.22,1.646.446,3.328.62,5.043.752,6.857,1.636,14.176,2.228,21.524,1.409,14.682,2.165,29.44,2.684,40.523.349,11.1.579,18.493.579,18.493l4.635.165s.59-7.395,1.478-18.491c.17-2.78.358-5.793.55-8.979s.44-6.552.553-10.038c.145-3.488.294-7.09.448-10.754.036-.915.077-1.836.113-2.759.018-.925.039-1.849.057-2.778.042-1.856.082-3.721.119-5.584.225-7.463.168-14.931.178-21.955.013-1.754-.019-3.48-.06-5.172s-.069-3.342-.1-4.956c-.072-3.222-.111-6.275-.207-9.094-.239-5.64-.439-10.352-.582-13.673-.054-1.664-.169-2.971-.22-3.876S7319.9,3091.589,7319.9,3091.556Z" transform="translate(-7302.106 -3080.984)"/></g><g transform="translate(21.492 81.246)"><path class="u" d="M7248.244,3090.34c.217-5.834-3.292-10.643-7.838-10.741s-8.4,4.39-8.609,10.03c0,0,.009.415.025,1.187s.062,1.9.043,3.337c-.009,2.88-.024,6.987-.043,11.915-.025,2.469-.127,5.137-.194,7.964q-.062,2.123-.12,4.351c-.037,1.487-.075,3-.168,4.545-.324,6.167-.591,12.762-1.146,19.337-.889,13.179-2.432,26.325-3.638,36.193-1.377,9.85-2.293,16.416-2.293,16.416l4.2.888s1.664-6.438,4.167-16.1c.578-2.431,1.205-5.064,1.866-7.85s1.393-5.723,2.02-8.789c.655-3.06,1.333-6.224,2.024-9.44.172-.8.342-1.613.516-2.423q.234-1.221.467-2.448.47-2.455.939-4.922c1.319-6.568,2.361-13.191,3.4-19.407.274-1.552.5-3.082.707-4.585s.422-2.973.626-4.405c.4-2.865.813-5.576,1.137-8.088.593-5.034,1.088-9.24,1.442-12.2.188-1.481.27-2.659.351-3.468S7248.244,3090.371,7248.244,3090.34Z" transform="translate(-7224.264 -3079.597)"/></g><g transform="translate(33.094 91.974)"><path class="u" d="M7279.818,3113.121c-4.694-2.2-13.548-4.451-18.321-2.9-4.513,1.463-8.044,10.679.725,15.6,1.922,1.081,12.335,4.075,16.317,3.671C7290.038,3128.329,7285.248,3115.665,7279.818,3113.121Z" transform="translate(-7256.825 -3109.706)"/></g><path class="ac" d="M7278.576,2973.138c2.954-18.974.179-22.624-2.1-27.575-1.157-2.518-4.217-4.372-6.656-5.779l-14.246-6.654c-6.75-2.973-11.66,4.638-10.672,8.1-.3,4.444,5.523,18.555,4.336,26.959-1.392,9.881-3.388,13.677-5.856,25.921-.3,1.492-.166,6.812,9.065,10.739a71.774,71.774,0,0,0,9.017,2.955c14.771,3.66,21.729-.925,21.5-4.08C7281.755,2987.1,7277.233,2981.746,7278.576,2973.138Z" transform="translate(-7215.03 -2903.641)"/><path class="r" d="M7292.18,2903.555c.008,1.841-1.524,3-3.415,3h0c-1.893,0-3.431-1.142-3.437-2.981l-.061-19.166a3.383,3.383,0,0,1,3.416-3.344h0a3.379,3.379,0,0,1,3.435,3.321Z" transform="translate(-7242.039 -2870.565)"/><path class="r" d="M7292.253,2878.318c-1.148,3.19-5.749,2.229-7.9,1.274-3.308-1.479-6.573-4.438-7.22-12.625-.306-3.883.855-8.882,9.457-8.289C7294.88,2859.251,7294.773,2871.32,7292.253,2878.318Z" transform="translate(-7236.771 -2856.123)"/><path class="ad" d="M7314.519,2967.093l-2.452,1.278c-2,1.045-2.654,3.752-1.434,6.076,0,0,.571.967,1.576,2.658s2.468,4.122,4.348,7.019a91.422,91.422,0,0,0,7.116,9.674,42.994,42.994,0,0,0,10.875,9.328,33.588,33.588,0,0,0,6.762,3,37.866,37.866,0,0,0,6.9,1.428,49.555,49.555,0,0,0,12.044-.312c1.724-.22,3.265-.546,4.64-.8,1.361-.308,2.54-.575,3.507-.817l3.014-.813-.893-3.773-2.951.49c-.941.138-2.083.276-3.388.439-1.309.111-2.782.272-4.379.315a43.788,43.788,0,0,1-10.65-.766,30.671,30.671,0,0,1-5.522-1.729,26.367,26.367,0,0,1-5.077-2.893c-6.371-4.595-10.539-12.069-13.5-17.733-1.477-2.856-2.638-5.331-3.458-7.059-.812-1.745-1.277-2.74-1.277-2.74C7319.114,2967.084,7316.518,2966.047,7314.519,2967.093Z" transform="translate(-7257.969 -2925.674)"/><path class="s" d="M7222.27,2858.2c-.453-4.746-12.657-10.412-19.01-3.095-1.366,1.572-2.588,7.89-3.162,9.209-1.929,4.44-6.725,5.572-8.812,3.491-1.592-1.593-4.169-6.972-8.577-6.16-7.791,1.432-4.439,9.986-12.713,13.314-7.7,3.1-7.655,12.748-2.072,17.758,4.881,4.381,13.239.11,15.167-4.976s-.059-11.087,3.357-8.057a8.283,8.283,0,0,0,13.348-3.009c1.392-3.339,6.111-1.757,7.274-1.782,5.944-.142,9.348-4.81,11.14-9.319C7219.628,2862.006,7222.662,2862.3,7222.27,2858.2Z" transform="translate(-7163.949 -2851.593)"/></g><g transform="translate(0 184.044)"><g class="c" transform="translate(88.691)"><g class="d" transform="translate(0 54.885)"><path class="e" d="M6897.377,3560.5c1.334.754,1.34,1.974.013,2.728l-42.829,24.351a5.39,5.39,0,0,1-4.807,0l-66.948-37.818c-1.332-.753-1.34-1.97-.017-2.722l42.829-24.354a5.4,5.4,0,0,1,4.811,0Z" transform="translate(-6781.803 -3522.114)"/></g><g class="d" transform="translate(46.395)"><path class="e" d="M6981.51,3406.228a5.15,5.15,0,0,1,2.4,4.078l-.141,48.494c0,1.5-1.089,2.1-2.418,1.347l-66.949-37.817a5.161,5.161,0,0,1-2.4-4.072l.139-48.5c.006-1.5,1.091-2.1,2.422-1.349Z" transform="translate(-6912.004 -3368.086)"/></g></g><g transform="translate(0 39.333)"><path class="ae" d="M6662.944,3571.661a6.753,6.753,0,0,0-2.6,9.28,8.388,8.388,0,0,0,3.911,3.6,6.5,6.5,0,0,0,4.747.3,5.431,5.431,0,0,0,.751-.236l3.212-1.537c2.089-.876,5.072-2.2,8.825-3.384,1.844-.692,3.938-1.157,6.116-1.79,1.09-.33,2.247-.507,3.413-.779,1.174-.232,2.358-.561,3.6-.732,2.464-.391,5.015-.839,7.649-1.054,2.624-.34,5.316-.411,8.017-.569a134.415,134.415,0,0,1,29.849,2.621c4.036.859,7.409,1.627,9.728,2.308,2.336.645,3.674,1.009,3.674,1.009l1.8-4.858s-1.331-.519-3.659-1.431c-2.321-.953-5.711-2.115-9.823-3.449a143.068,143.068,0,0,0-31.339-6.069c-2.937-.139-5.878-.362-8.793-.3-2.915-.057-5.785.134-8.572.286-1.394.05-2.753.265-4.094.389-1.336.165-2.662.239-3.925.477-2.532.444-4.965.743-7.15,1.3-4.426.909-8.04,2.055-10.576,2.827l-3.934,1.39A8.992,8.992,0,0,0,6662.944,3571.661Z" transform="translate(-6614.357 -3533.893)"/><g transform="translate(90.439 161.911)"><path class="g" d="M6799.406,3946.65c-1.722.881-3.147,1.281-4.542.49v.461c-.149,1.2-.458,1.556-.974,1.845a5.837,5.837,0,0,1-5.18,0,2.14,2.14,0,0,1-.967-.967v-.14a5.268,5.268,0,0,0-.256,5.862v1.591s.3,1.455,2.982,1.488c2.338.031,3.955-2.215,3.955-2.215l0-1.8c1.571-.592,3.241-.145,3.761-.316,2.7-.879,3.624-1.453,4.348-2.457C6804.779,3947.375,6801.125,3945.771,6799.406,3946.65Z" transform="translate(-6786.71 -3941.578)"/><path class="af" d="M6790.117,3934.013a29.356,29.356,0,0,1-.68,5.683c.933,2.476,7.971,2.452,7.183-1.285a5.377,5.377,0,0,1-1.264-3.865C6795.356,3932.736,6789.992,3932.1,6790.117,3934.013Z" transform="translate(-6788.466 -3932.85)"/></g><g transform="translate(112.061 173.416)"><path class="g" d="M6860.085,3978.938c-1.724.88-3.146,1.279-4.544.491v.46c-.146,1.2-.456,1.553-.974,1.848a5.864,5.864,0,0,1-5.176,0,2.164,2.164,0,0,1-.971-.972v-.141a5.285,5.285,0,0,0-.257,5.865v1.593s.305,1.454,2.986,1.487c2.336.03,3.956-2.214,3.956-2.214l-.005-1.8c1.57-.593,3.241-.147,3.762-.318,2.694-.882,3.623-1.454,4.349-2.457C6865.456,3979.661,6861.805,3978.057,6860.085,3978.938Z" transform="translate(-6847.388 -3973.866)"/><path class="af" d="M6850.8,3966.3a29.55,29.55,0,0,1-.68,5.686c.93,2.477,7.97,2.451,7.18-1.283a5.384,5.384,0,0,1-1.264-3.865C6856.033,3965.023,6850.672,3964.39,6850.8,3966.3Z" transform="translate(-6849.144 -3965.138)"/></g><path class="g" d="M6631.806,3736.476c.031-.023.527-.333,1.426-.9s2.217-1.366,3.884-2.38c3.373-2,8.167-4.822,14.284-7.839,3.062-1.507,6.445-3.072,10.208-4.537a75.6,75.6,0,0,1,12.607-3.812,44.068,44.068,0,0,1,7.59-.907,29.5,29.5,0,0,1,8.8.986,20.991,20.991,0,0,1,14.224,12.652,30.1,30.1,0,0,1,1.94,7.826,44.544,44.544,0,0,1,.236,7.176c-.011.2-.025.4-.037.592h-13.541c-.014-.165-.016-.336-.034-.5a21.764,21.764,0,0,0-2.521-9,4.93,4.93,0,0,0-4.309-2.636,20.5,20.5,0,0,0-7.841,1.446,58.682,58.682,0,0,0-8.79,4.066c-2.827,1.565-5.479,3.248-7.906,4.876-4.863,3.255-8.808,6.346-11.557,8.509s-4.288,3.487-4.288,3.487c-5.6,4.021-13.452,3.447-17.679-1.657C6624.3,3748.849,6625.622,3740.923,6631.806,3736.476Z" transform="translate(-6592.872 -3631.418)"/><path class="g" d="M6812.977,3794.955a77.189,77.189,0,0,1-1.73,12.262,152.183,152.183,0,0,1-6.382,21c-2.226,5.942-4.33,10.752-5.812,14.107-.739,1.677-1.343,2.986-1.754,3.873s-.629,1.369-.629,1.369l-5.905-2.193s.151-.494.432-1.416.694-2.272,1.2-4c1-3.448,2.4-8.385,3.751-14.337a140.2,140.2,0,0,0,3.264-20.236,63.988,63.988,0,0,0,.031-10.426Z" transform="translate(-6698.878 -3682.18)"/><g transform="translate(15.536 107.602)"><g class="i" transform="translate(49.068 25.828)"><path class="b" d="M6714.206,3873.712l0,2.079,34.545-19.509c4.25-2.4,7.723-.465,7.735,4.312l.114,38.84c.014,4.78-3.435,10.619-7.69,13.023l-34.422,19.44,1.873,1.01,32.557-18.368c5.272-2.981,9.55-10.222,9.533-16.149l-.111-38.841c-.016-5.928-4.322-8.323-9.6-5.347Z" transform="translate(-6714.206 -3852.922)"/><g class="ag"><path class="b" d="M6714.206,3873.712l0,2.079,34.545-19.509c4.25-2.4,7.723-.465,7.735,4.312l.114,38.84c.014,4.78-3.435,10.619-7.69,13.023l-34.465,19.44,1.915,1.01,32.557-18.368c5.272-2.981,9.55-10.222,9.533-16.149l-.111-38.841c-.016-5.928-4.322-8.323-9.6-5.347Z" transform="translate(-6714.206 -3852.922)"/></g></g><path class="b" d="M6580.32,3859.488h0l.011-.007c.029-.017.051-.039.08-.053l.006.006,34.441-19.46c4.257-2.4,7.7-8.241,7.686-13.018l-.111-38.836c-.011-4.783-3.482-6.721-7.739-4.317l-34.537,19.511-.007-2.081,34.54-19.514c5.274-2.978,9.579-.576,9.594,5.35l.114,38.838c.017,5.931-4.257,13.172-9.533,16.15l-32.6,18.418h0c-4.229,2.4-4.206,6.3.048,8.71l28.265,15.979a17.264,17.264,0,0,0,15.373,0l1.852,1.048c-5.238,2.978-13.79,2.978-19.064,0l-28.265-15.979C6575.234,3867.274,6575.178,3862.471,6580.32,3859.488Z" transform="translate(-6576.503 -3780.44)"/></g><path class="l" d="M6651.283,3768.461a22.179,22.179,0,0,1-8.312,9.429,21.928,21.928,0,0,1-2.841,3.032q-2.437,1.629-4.874,3.261a22.628,22.628,0,0,1-16.549,1.254,22.051,22.051,0,0,1-13-10.881,21.165,21.165,0,0,1-2.292-10.77c.11-.579.219-1.154.324-1.735-1.5.771-3.049,1.6-4.625,2.487a84.218,84.218,0,0,0-16.855,12.17l50.519,28.722a84.351,84.351,0,0,1,16.856-12.171,131.519,131.519,0,0,1,22.51-10.061c1.694-.956,3.224-1.044,4.338-.417Z" transform="translate(-6564.67 -3661.002)"/><path class="g" d="M6692.888,3766.549c-6.18,4.448-7.5,12.374-3.3,17.445,4.224,5.1,12.075,5.678,17.678,1.656,0,0,1.549-1.309,4.289-3.488,2.749-2.159,6.691-5.25,11.554-8.5,2.424-1.632,5.085-3.317,7.906-4.879a59.272,59.272,0,0,1,8.79-4.068,20.67,20.67,0,0,1,7.843-1.448,4.954,4.954,0,0,1,4.309,2.639,21.73,21.73,0,0,1,2.519,9,62.59,62.59,0,0,1,0,10.928,140.394,140.394,0,0,1-3.262,20.239c-1.348,5.952-2.754,10.888-3.748,14.338-.5,1.724-.916,3.081-1.2,4s-.432,1.416-.432,1.416l5.908,2.19s.219-.474.628-1.366,1.013-2.2,1.76-3.873c1.479-3.355,3.579-8.162,5.807-14.1a152.408,152.408,0,0,0,6.384-21,76.66,76.66,0,0,0,1.767-12.853,44.527,44.527,0,0,0-.236-7.179,30.215,30.215,0,0,0-1.94-7.823,21.015,21.015,0,0,0-14.227-12.656,29.588,29.588,0,0,0-8.8-.983,43.709,43.709,0,0,0-7.587.909,75.509,75.509,0,0,0-12.61,3.807c-3.763,1.471-7.146,3.029-10.2,4.539-6.123,3.02-10.911,5.841-14.281,7.843-1.671,1.013-3,1.807-3.887,2.378S6692.922,3766.527,6692.888,3766.549Z" transform="translate(-6632.189 -3650.776)"/><g transform="translate(27.444 35.596)"><path class="ah" d="M6666.317,3593.76c16.449,12.451-11.975,29.88-5.463,61.454,4.2,16.518-49.731,9.239-50.833-16.032-1.11-25.455,7.485-43.044,11.132-49.119,6.347-10.57,14.66-13.436,20.175-10.756C6649.51,3583.285,6659.464,3588.58,6666.317,3593.76Z" transform="translate(-6609.923 -3578.365)"/></g><g transform="translate(0 64.987)"><path class="l" d="M6537.165,3661.356a2.725,2.725,0,0,1,2.7-.253l50.521,28.724a2.727,2.727,0,0,0-2.7.253c-2.381,1.347-4.749,5.113-4.172,8.285,4.916,26.727,4.233,42.526,4.269,56.259.008,1.874.683,3.2,1.776,3.817l-50.519-28.724a4.145,4.145,0,0,1-1.776-3.816c-.04-13.731.642-29.532-4.269-56.262C6532.413,3666.468,6534.78,3662.7,6537.165,3661.356Z" transform="translate(-6532.904 -3660.847)"/><path class="m" d="M6678.941,3741.968c1.722-.969,3.444-.683,4.084,1.983a488.879,488.879,0,0,1,9.24,48.225c.063-.06.128-.115.191-.176,0,.02,0,.037,0,.052l.521-.531a85.71,85.71,0,0,1,16.141-11.517,131.492,131.492,0,0,1,22.51-10.061c3.361-1.9,6.1-.378,6.113,3.407a13.033,13.033,0,0,1-6.073,10.283l-38.758,21.895h0l-7.76,4.383c-3.369,1.9-6.1.38-6.116-3.4-.037-13.732.646-29.532-4.268-56.259C6674.192,3747.081,6676.559,3743.315,6678.941,3741.968Z" transform="translate(-6624.162 -3712.734)"/></g><g transform="translate(56.53)"><g transform="translate(2.451 6.608)"><path class="p" d="M6719.53,3522.234c-1.727,4.011-8.225,2.661-11.25,1.375-4.641-1.978-9.174-5.837-9.822-16.25-.308-4.945,1.5-11.25,13.679-10.236,8.114.677,12.687,10.857,12.044,18.351-.057.659-2.073.811-2.8.836A40.23,40.23,0,0,1,6719.53,3522.234Z" transform="translate(-6698.427 -3497.015)"/><path class="p" d="M6714.594,3549.756c0,2.584-2.172,4.2-4.849,4.206h0c-2.687.005-4.864-1.612-4.869-4.2l-.032-26.913a4.782,4.782,0,0,1,4.855-4.691h0a4.775,4.775,0,0,1,4.861,4.682Z" transform="translate(-6702.557 -3510.624)"/></g><path class="ai" d="M6715.5,3489.422c6.552-2.9,8.1-8.542,6.683-10.423-1.989-2.628-7.635,5.41-10.754,4.8s-13.1-2.444-17.937,4.424.791,12.672,1.34,13.856c.584,1.265.511,3.378,1.491,4.355.384.212.942.245,2.939-.124.64-.3,1.972-2.174.156-5.542-1.635-3.033-.818-6.14,1.538-6.484,1.445-.213,2.231.26,2.319,2.244.342,7.463-.674,14.674,1.725,16.346,2.5,1.742,5.473,2.521,9.578,2.171,2.684-.229,2.932-10.666,2.365-10.707-2.316-.168-5.111.845-5.865,2.01-1.289,1.993,0,4.542-4.6,2.8-3.18-1.207-1.835-17.244-.5-18.043C6708.592,3489.889,6709.756,3491.969,6715.5,3489.422Z" transform="translate(-6691.547 -3478.469)"/></g><path class="aj" d="M6748.871,3621.965c-2.794-1.7-6.815-.868-9.237,2.119s-2.3,7.053.266,9.355a5.806,5.806,0,0,0,.626.554l3.19,2.084c2.058,1.31,4.988,3.2,8.737,5.284a77.821,77.821,0,0,0,13.766,6.2,46.582,46.582,0,0,0,8.762,1.9,40.081,40.081,0,0,0,9.317-.036,56.534,56.534,0,0,0,16.517-5.062,131.707,131.707,0,0,0,12.52-6.773c3.519-2.12,6.362-3.977,8.352-5.272s3.107-2.054,3.107-2.054l-2.727-4.422s-1.195.615-3.284,1.684c-2.088,1.051-5.075,2.567-8.691,4.236a124.463,124.463,0,0,1-12.425,5.064,47.145,47.145,0,0,1-14.135,2.753,31.023,31.023,0,0,1-13.079-2.853,65.334,65.334,0,0,1-10.766-6.4c-3.088-2.194-5.612-4.234-7.377-5.657-1.758-1.454-2.764-2.284-2.764-2.284A6.264,6.264,0,0,0,6748.871,3621.965Z" transform="translate(-6664.852 -3570.273)"/><path class="p" d="M6938.818,3609.267l-4.224-2.168.174-.322,1.172.6a.558.558,0,0,0,.746-.232l.1-.186a.535.535,0,0,0-.228-.73l-1.173-.6.14-.256.8.4a.549.549,0,0,0,.742-.231l.1-.187a.522.522,0,0,0-.227-.727l-.8-.411.127-.239.088.043a.56.56,0,0,0,.746-.231l.1-.187a.531.531,0,0,0-.228-.732l-1.583-.809a.132.132,0,0,0-.034-.018l-1.713-.886a7.942,7.942,0,0,0-3.108-.54c-1.119.382-2.335-.259-4.091-.865l-.829,2.227c1.591.369,2.865,1.214,2.965,2.046a6.247,6.247,0,0,0,.788,3.129c.456.73,2.081,2.775,2.081,2.775h0l.213.286.009.016.469.618.154.208a.1.1,0,0,0,.14.015l.591-.422.009-.011a.558.558,0,0,0,.094-.766l-2.254-3a3.4,3.4,0,0,1,1.139.36c.946.482,1.972,1.016,1.972,1.016l0-.01,4.221,2.176a.57.57,0,0,0,.745-.23l.1-.193A.54.54,0,0,0,6938.818,3609.267Z" transform="translate(-6785.678 -3556.537)"/><path class="p" d="M6990.233,3619.246l-.08-.186a.487.487,0,0,0-.666-.241l-4.371,2-.1-.243,4.749-2.178a.532.532,0,0,0,.293-.679l-.069-.183a.477.477,0,0,0-.663-.242l-4.755,2.176-.125-.31,4.167-1.9a.544.544,0,0,0,.3-.675l-.077-.188a.49.49,0,0,0-.663-.25l-4.161,1.9,0,0-1.944.887a3.494,3.494,0,0,1-1.1.306l2.435-2.766a.529.529,0,0,0,.006-.725l-.009-.017-.5-.421a.107.107,0,0,0-.13.014l-.167.192-.51.567a.042.042,0,0,1-.009.02l-.227.259,0,0s-1.745,1.874-2.251,2.554a6.4,6.4,0,0,0-1.086,2.93c-.151.627-1.008,1.234-2.118,1.6l1.161,1.881a3.571,3.571,0,0,1,2.379-.188,7.583,7.583,0,0,0,2.939-.4l1.673-.77a.193.193,0,0,0,.055-.024l5.156-2.361a.542.542,0,0,0,.3-.684l-.075-.182a.487.487,0,0,0-.663-.242l-3.683,1.679-.095-.226,4.387-2A.564.564,0,0,0,6990.233,3619.246Z" transform="translate(-6818.365 -3566.54)"/></g></g></svg>