<svg xmlns="http://www.w3.org/2000/svg" width="86.72" height="155.708" viewBox="0 0 86.72 155.708"><defs><style>.a{fill:#29beff;mix-blend-mode:screen;isolation:isolate;}</style></defs><path class="a" d="M8494.558,1925.986l-.3,105.814,86.417,49.893.3-105.814Zm83.724,150.659-36.212-65.47.027-9.242,36.463-23.511Zm-44.843-81.078-17.642-31.892,1.742,1.006.021-6.983,15.955,9.214Zm25.831-6.791-17.168,11.071.079-27.933,15.96,9.214-.02,6.983Zm18.395-11.856-16.736,10.791.013-4.967.012-4.24-46.184-26.664-.028,9.928-17.211-31.112Zm-81.152-48.1-.854.553,1.3,2.346,36.472,65.941-.022,7.794-36.727,23.683.277-97.419-1.3-2.346Zm.964,101.887,35.929-23.164-.087,29.8-5.441-3.139-.008,3.421,19.542,11.285.012-3.422-5.444-3.141.082-29.076,35.1,63.442Z" transform="translate(-8494.261 -1925.986)"/></svg>