<svg xmlns="http://www.w3.org/2000/svg" xmlns:xlink="http://www.w3.org/1999/xlink" width="138.557" height="138.52" viewBox="0 0 138.557 138.52"><defs><style>.a{fill:#c3edff;}.b{clip-path:url(#a);}</style><clipPath id="a"><rect class="a" width="109.974" height="109.916"/></clipPath></defs><g transform="translate(0 33.984) rotate(-18)"><g class="b"><path class="a" d="M109.4,54.019l-.429-.648L94.351,38.14a2.423,2.423,0,0,1,1.281-3.651,15.41,15.41,0,0,0,6.137-3.585,14.8,14.8,0,0,0,.547-21.186,14.8,14.8,0,0,0-21.192-.4,15.235,15.235,0,0,0-3.852,5.966,2.424,2.424,0,0,1-3.7,1.116L59,1.107,58.372.652A2.411,2.411,0,0,0,55.028.7L38.134,16.9a2.28,2.28,0,0,1-2.4-1.63C34.3,10.308,30.167,6.021,23.163,4.667a6.067,6.067,0,0,0-2.207-.019C6.614,7.17,2.92,22.081,10.629,30.172a14.065,14.065,0,0,0,5.7,3.636,2.259,2.259,0,0,1,1.437,2.625L.776,52.736a2.41,2.41,0,0,0-.123,3.42L16.019,72.177l.274.212.092.1a2.421,2.421,0,0,0,4.059-1.233c1.408-5.414,5.884-10.245,13.355-11.716a14.947,14.947,0,0,1,4.171.277,16.405,16.405,0,0,1,7.5,4.253,16.385,16.385,0,0,1,3.907,7.687,14.659,14.659,0,0,1,.1,4.176c-1.812,7.4-6.84,11.652-12.311,12.806a2.426,2.426,0,0,0-1.41,4l.092.1.2.289L51.354,109.19a2.42,2.42,0,0,0,3.426.032L71.826,92.97a2.27,2.27,0,0,1,2.561,1.56,14.092,14.092,0,0,0,3.381,5.864c7.736,8.065,22.788,5.043,25.958-9.169a6.042,6.042,0,0,0,.077-2.207c-1.039-7.059-5.138-11.383-10.025-13.038a2.271,2.271,0,0,1-1.52-2.47L109.2,57.361a2.426,2.426,0,0,0,.2-3.342" transform="translate(0 0)"/></g></g></svg>