<svg xmlns="http://www.w3.org/2000/svg" xmlns:xlink="http://www.w3.org/1999/xlink" width="167.536" height="56.557" viewBox="0 0 167.536 56.557"><defs><style>.a{fill:none;}.b{clip-path:url(#a);}.c{fill:#ff68d4;}.d{fill:#fdfdfd;}.e{fill:#52cbff;}</style><clipPath id="a"><rect class="a" width="167.536" height="56.557"/></clipPath></defs><g class="b"><path class="c" d="M21.113,45.83q-2.815-2.4-2.99-7.059-.035-1.007-.035-2.99,0-2.014.035-3.024a9.367,9.367,0,0,1,3.042-7.075A11.306,11.306,0,0,1,28.831,23.2a11.375,11.375,0,0,1,7.683,2.486,9.233,9.233,0,0,1,3.025,7.075q.069,2.016.068,3.024,0,.974-.068,2.99-.175,4.658-2.991,7.059a11.529,11.529,0,0,1-7.717,2.4,11.535,11.535,0,0,1-7.718-2.4m10.76-3.755a5.051,5.051,0,0,0,1.2-3.512q.069-2.016.069-2.851,0-.9-.069-2.85a5,5,0,0,0-1.218-3.512A4.084,4.084,0,0,0,28.831,28.2a4.031,4.031,0,0,0-3.008,1.147,5.172,5.172,0,0,0-1.234,3.512q-.035.972-.035,2.85,0,1.845.035,2.851a5.22,5.22,0,0,0,1.216,3.512,4.023,4.023,0,0,0,3.025,1.147,4.08,4.08,0,0,0,3.042-1.147" transform="translate(6.495 8.329)"/><path class="c" d="M37.151,47.528a.832.832,0,0,1-.26-.609v-22.6a.818.818,0,0,1,.26-.627.865.865,0,0,1,.608-.243H53.752a.833.833,0,0,1,.868.87v3.51a.866.866,0,0,1-.243.609.815.815,0,0,1-.625.26H43.01v5.111H53.056a.814.814,0,0,1,.625.261.911.911,0,0,1,.245.643v3.477a.867.867,0,0,1-.245.609.814.814,0,0,1-.625.261H43.01v7.857a.833.833,0,0,1-.87.868H37.758a.832.832,0,0,1-.608-.26" transform="translate(13.247 8.421)"/><path class="d" d="M58.006,41.31a.847.847,0,0,1-.243-.627v-22.6a.821.821,0,0,1,.261-.627.865.865,0,0,1,.608-.243h4.486a.909.909,0,0,1,.641.243.823.823,0,0,1,.262.627v8.379h8.55V18.086a.833.833,0,0,1,.868-.87h4.485a.833.833,0,0,1,.87.87v22.6a.833.833,0,0,1-.87.87H73.44a.85.85,0,0,1-.625-.243.842.842,0,0,1-.243-.627V32.027h-8.55v8.656a.816.816,0,0,1-.262.627.909.909,0,0,1-.641.243H58.631a.846.846,0,0,1-.625-.243" transform="translate(20.741 6.181)"/><path class="d" d="M77.08,41.292a.832.832,0,0,1-.26-.609v-22.6a.818.818,0,0,1,.26-.627.865.865,0,0,1,.608-.243H93.924a.833.833,0,0,1,.868.87v3.267a.857.857,0,0,1-.243.608.82.82,0,0,1-.625.262H82.833v4.693H93.159a.814.814,0,0,1,.625.261.909.909,0,0,1,.245.643v3.025a.87.87,0,0,1-.245.609.813.813,0,0,1-.625.26H82.833v4.833H94.2a.833.833,0,0,1,.868.868v3.269a.866.866,0,0,1-.243.609.817.817,0,0,1-.625.26H77.687a.832.832,0,0,1-.608-.26" transform="translate(27.584 6.181)"/><path class="d" d="M93.426,41.292a.832.832,0,0,1-.26-.609v-22.6a.818.818,0,0,1,.26-.627.865.865,0,0,1,.608-.243h4.59a.833.833,0,0,1,.87.87V36.3h10.534a.816.816,0,0,1,.625.261.908.908,0,0,1,.243.643v3.477a.866.866,0,0,1-.243.609.815.815,0,0,1-.625.26H94.033a.832.832,0,0,1-.608-.26" transform="translate(33.454 6.181)"/><path class="d" d="M108.7,41.292a.834.834,0,0,1-.261-.609v-22.6a.819.819,0,0,1,.261-.627.865.865,0,0,1,.607-.243h9.735a10.89,10.89,0,0,1,7,2.051,7.217,7.217,0,0,1,2.555,5.98,6.949,6.949,0,0,1-2.537,5.859,11.221,11.221,0,0,1-7.022,1.964H114.9v7.614a.817.817,0,0,1-.261.627.909.909,0,0,1-.643.242H109.3a.832.832,0,0,1-.607-.26m10.169-13.02a3.455,3.455,0,0,0,2.4-.783,2.952,2.952,0,0,0,.868-2.312,3.154,3.154,0,0,0-.815-2.276,3.249,3.249,0,0,0-2.452-.852H114.8v6.223Z" transform="translate(38.937 6.181)"/><path class="e" d="M23.383,24.076a.835.835,0,0,1-.26-.609V.87a.818.818,0,0,1,.26-.627A.868.868,0,0,1,23.991,0h10.6q4.381,0,6.518,1.79a6.273,6.273,0,0,1,2.138,5.092,4.8,4.8,0,0,1-.886,2.94,5.683,5.683,0,0,1-2,1.756,6,6,0,0,1,3.373,5.387,6.73,6.73,0,0,1-2.3,5.424,9.818,9.818,0,0,1-6.534,1.946H23.991a.835.835,0,0,1-.609-.26M33.9,9.664a2.919,2.919,0,0,0,2.12-.712,2.531,2.531,0,0,0,.73-1.9,2.428,2.428,0,0,0-.73-1.842,2.961,2.961,0,0,0-2.12-.7H29.38V9.664Zm.313,10.152a2.939,2.939,0,0,0,2.225-.834,3.006,3.006,0,0,0,0-4.085,2.971,2.971,0,0,0-2.225-.817H29.38v5.737Z" transform="translate(8.303 0)"/><path class="e" d="M41.392,24.076a.832.832,0,0,1-.26-.609V.87a.818.818,0,0,1,.26-.627A.865.865,0,0,1,42,0h4.66A.912.912,0,0,1,47.3.243a.819.819,0,0,1,.261.627v22.6a.817.817,0,0,1-.261.627.911.911,0,0,1-.643.242H42a.832.832,0,0,1-.608-.26" transform="translate(14.77 0)"/><path class="e" d="M55.483,24.076a.832.832,0,0,1-.26-.609V5.458H49.034a.894.894,0,0,1-.87-.868V.87a.82.82,0,0,1,.262-.627A.863.863,0,0,1,49.034,0h18.7a.852.852,0,0,1,.625.243.85.85,0,0,1,.242.627V4.59a.831.831,0,0,1-.867.868H61.55V23.467a.866.866,0,0,1-.243.609.818.818,0,0,1-.627.26H56.09a.832.832,0,0,1-.608-.26" transform="translate(17.295 0)"/><path class="e" d="M.226,24.11a.7.7,0,0,1-.226-.5,1.12,1.12,0,0,1,.034-.314L8.2.973a1.272,1.272,0,0,1,.451-.7A1.409,1.409,0,0,1,9.56,0h5.145a1.406,1.406,0,0,1,.9.277,1.275,1.275,0,0,1,.453.7L24.2,23.292l.069.314a.7.7,0,0,1-.226.5.733.733,0,0,1-.54.226H19.224a1.08,1.08,0,0,1-1.112-.73L16.756,20.06H7.475L6.153,23.606a1.107,1.107,0,0,1-1.147.73H.73a.7.7,0,0,1-.5-.226m15.14-9.057L12.132,5.875,8.9,15.053Z" transform="translate(0 0)"/></g></svg>