<svg xmlns="http://www.w3.org/2000/svg" width="61.788" height="48.687" viewBox="0 0 61.788 48.687"><defs><style>.a{mix-blend-mode:screen;isolation:isolate;}.b{fill:#f25fc5;}</style></defs><g class="a" transform="translate(0 0)"><path class="b" d="M8738.625,1087.547c2.468,1.426,4.81,1.906,6.776,1.4a5.719,5.719,0,0,0,3.986-4.064l-2.97-2.663c-1.006,3.205-4.209,4-7.783,1.932-4.47-2.576-8.089-8.674-8.074-13.578s3.655-6.818,8.124-4.239a17.927,17.927,0,0,1,7.6,10.32l2.92.536c-1.582-5.811-5.8-11.535-10.517-14.256-6.162-3.557-11.193-.931-11.214,5.86S8732.46,1083.99,8738.625,1087.547Z" transform="translate(-8727.479 -1061.344)"/><path class="b" d="M8802.72,1125.153l2.7,1.561.023-8.086,7.046,4.068.009-3.1-7.048-4.071.023-8.086-2.7-1.561-.021,8.086-7.04-4.061-.008,3.1,7.039,4.064Z" transform="translate(-8770.92 -1089.698)"/><path class="b" d="M8858.354,1157.276l2.713,1.563.021-8.086,7.036,4.065.008-3.107-7.035-4.061.025-8.086L8858.4,1138l-.019,8.086-7.038-4.062-.009,3.1,7.034,4.064Z" transform="translate(-8806.344 -1110.151)"/></g></svg>