<svg xmlns="http://www.w3.org/2000/svg" width="101.305" height="80.591" viewBox="0 0 101.305 80.591"><defs><style>.a{mix-blend-mode:screen;isolation:isolate;}.b{fill:#50c5ff;}</style></defs><g class="a"><path class="b" d="M7022.741,1822.2l-7.236,4.178-3.544,2.05-7.248,4.182.011,4.085,7.244-4.182.062,21.239,3.549-2.048-.062-21.24,7.239-4.178Z" transform="translate(-6983.999 -1789.417)"/><path class="b" d="M7142.05,1789.369l-.062-21.1-3.526,2.037.069,25.151.562-.322,2.969-1.715,10.4-6-.014-4.056Z" transform="translate(-7069.159 -1755.076)"/><path class="b" d="M7193.11,1742.622c-1.491-.383-3.655.1-6.6,1.45-4.932,2.327-4.937.113-4.94-.725-.006-1.94,2.181-4.839,4.77-6.333s4.785-1.126,4.791.812l3.328-1.921c-.006-2-.941-3.4-2.556-3.818-1.511-.395-3.486.049-5.575,1.253a17.966,17.966,0,0,0-5.558,5.176,12.408,12.408,0,0,0-2.527,6.751c0,2.083.76,3.406,2.167,3.835,1.339.406,3.22.018,5.752-1.169,6.053-2.785,6.058-.345,6.064.7,0,2.266-2.513,5.64-5.509,7.369-2.98,1.72-5.517,1.265-5.522-1l-3.33,1.924c0,2.191.989,3.664,2.776,4.129,1.645.426,3.81-.061,6.086-1.376a19.782,19.782,0,0,0,6.081-5.651,13.3,13.3,0,0,0,2.745-7.314C7195.547,1744.4,7194.729,1743.031,7193.11,1742.622Z" transform="translate(-7094.251 -1731.947)"/><path class="b" d="M6963.159,1855.291l.029,10.093-11.883,6.861-.029-10.093-3.586,2.071.075,25.533,3.583-2.071-.032-11.323,11.883-6.861.032,11.323,3.586-2.067-.072-25.535Z" transform="translate(-6947.69 -1809.167)"/><path class="b" d="M7080.2,1783.4l-7.712,26.557-7.852-17.573-3.867,2.234.069,25.542,3.578-2.063-.044-15.4,5.469,12.257,5.292-3.055,5.382-18.51.043,15.388,3.583-2.071-.074-25.542Z" transform="translate(-7019.69 -1763.284)"/></g></svg>