<svg xmlns="http://www.w3.org/2000/svg" width="105.352" height="159.654" viewBox="0 0 105.352 159.654"><defs><style>.a{mix-blend-mode:screen;isolation:isolate;}.b{fill:#50c5ff;}</style></defs><g class="a" transform="translate(0 0)"><g transform="translate(15.166 33.495)"><g transform="translate(32.773 94.37)"><path class="b" d="M6932.736,1212.445c-.155.067-.3.13-.462.193C6932.432,1212.575,6932.582,1212.511,6932.736,1212.445Z" transform="translate(-6932.274 -1212.445)"/></g><g transform="translate(33.303 94.149)"><path class="b" d="M6934.169,1211.838c-.148.063-.292.126-.436.191C6933.876,1211.964,6934.021,1211.9,6934.169,1211.838Z" transform="translate(-6933.733 -1211.838)"/></g><g transform="translate(34.832 93.475)"><path class="b" d="M6937.942,1210.142c.106-.052.218-.105.326-.161C6938.161,1210.036,6938.048,1210.09,6937.942,1210.142Z" transform="translate(-6937.942 -1209.981)"/></g><g transform="translate(36.39 92.774)"><path class="b" d="M6942.231,1208.122l.13-.07C6942.32,1208.077,6942.277,1208.1,6942.231,1208.122Z" transform="translate(-6942.231 -1208.052)"/></g><g transform="translate(37.369 92.248)"><path class="b" d="M6944.925,1206.666c.038-.021.076-.044.111-.063C6945,1206.624,6944.964,1206.644,6944.925,1206.666Z" transform="translate(-6944.925 -1206.603)"/></g><g transform="translate(0 5.229)"><path class="b" d="M6842.057,1032.234c.063,21.93,14.338,31.9,32.752,24.173a29.054,29.054,0,0,1-13.834,2.49l7.077-18.26c-7.005-.666-11.73-6.668-11.76-16.622-.042-14.882,10.43-33.068,23.376-40.6l-.046-16.35C6858.832,979.124,6841.99,1008.331,6842.057,1032.234Z" transform="translate(-6842.057 -967.06)"/></g><g transform="translate(33.814 93.88)"><path class="b" d="M6935.139,1211.327c.167-.075.339-.151.5-.232C6935.479,1211.177,6935.307,1211.252,6935.139,1211.327Z" transform="translate(-6935.139 -1211.095)"/></g><g transform="translate(35.393 93.265)"><path class="b" d="M6939.487,1209.494c.062-.029.127-.061.188-.092C6939.614,1209.433,6939.548,1209.465,6939.487,1209.494Z" transform="translate(-6939.487 -1209.402)"/></g><g transform="translate(37 75.997)"><path class="b" d="M6943.912,1162c.08-.045.165-.089.244-.134C6944.077,1161.913,6943.995,1161.955,6943.912,1162Z" transform="translate(-6943.912 -1161.867)"/></g><g transform="translate(18.917)"><path class="b" d="M6912.88,957.833l-.054,16.411c13.087-7.556,23.686-1.51,23.725,13.411s-10.485,33.162-23.468,40.662c-.092.05-.182.1-.275.151-.15.088-.24.138-.328.184s-.182.1-.264.144c-.16.084-.234.124-.305.161-1.2.592-1.308.64-1.411.686a18.48,18.48,0,0,1-9.29,1.823l-7.078,18.266c4.618.426,9.834-.58,15.4-3.187.178-.081.259-.121.344-.16.279-.136.392-.19.5-.245.082-.039.158-.077.236-.118.291-.145.392-.2.5-.251l.5-.262c.266-.14.4-.215.538-.289l.442-.245c.254-.144.4-.227.543-.307,20.833-12.031,37.728-41.291,37.663-65.233S6933.718,945.8,6912.88,957.833Z" transform="translate(-6894.133 -952.665)"/></g></g><path class="b" d="M6800.57,1011.5l-.262-86.372c-.021-7.22,5.4-16.039,12.082-19.663l80.041-43.4a11.9,11.9,0,0,1,5.642-1.607c4.434,0,7.312,3.386,7.326,8.62l.261,86.37c.022,7.221-5.393,16.041-12.073,19.661l-80.043,43.4a11.885,11.885,0,0,1-5.645,1.608C6803.465,1020.115,6800.586,1016.734,6800.57,1011.5Zm92.683-147.919-80.044,43.4c-6.184,3.351-11.2,11.493-11.176,18.147l.259,86.37c.015,4.256,2.162,6.9,5.608,6.9a10.39,10.39,0,0,0,4.828-1.4l80.041-43.395c6.18-3.352,11.19-11.492,11.171-18.146l-.26-86.37c-.014-4.259-2.162-6.905-5.605-6.905A10.383,10.383,0,0,0,6893.253,863.58Z" transform="translate(-6800.309 -860.461)"/></g></svg>