<svg xmlns="http://www.w3.org/2000/svg" width="121.454" height="134.552" viewBox="0 0 121.454 134.552"><defs><style>.a{mix-blend-mode:screen;isolation:isolate;}.b{fill:#27bbff;}</style></defs><g transform="translate(0)"><g class="a"><path class="b" d="M7710.068,1376.593l-.189,65.139,57.18,32.73.189-65.139Zm53.833,90.951-24.106-41.4,24.261-13.707Zm-.953-57.045-24.28,13.723-24.121-41.426Zm-49.721-27.381,24.312,41.741-24.468,13.834Zm1,57.478,24.439-13.81,24.283,41.7Z" transform="translate(-7645.794 -1339.91)"/><path class="b" d="M7533.469,1340.753l57.176,32.725.188-65.135-57.177-32.731Zm4.342-1.137-2.182,1.232,2.182-1.232,24.431-13.812,24.283,41.694Zm-.995-57.479,24.309,41.743-24.472,13.834Zm50.655,84.4-24.095-41.374,24.254-13.711Zm-.94-57.021-24.278,13.726-24.121-41.429Z" transform="translate(-7533.469 -1275.612)"/></g></g></svg>