<svg xmlns="http://www.w3.org/2000/svg" xmlns:xlink="http://www.w3.org/1999/xlink" width="206.997" height="254.94" viewBox="0 0 206.997 254.94"><defs><style>.a{fill:#457edb;}.b{opacity:0.8;}.c{mix-blend-mode:screen;}.c,.h{isolation:isolate;}.d{fill:#50c5ff;}.e{fill:url(#a);}.f{fill:url(#b);}.g{fill:#ff76a7;}.i{clip-path:url(#f);}.j{fill:#e8e9ea;}.k{fill:url(#h);}.l{fill:#c2c3c4;}.m{fill:#ffe5d4;}.n{fill:url(#i);}.o{fill:url(#j);}</style><linearGradient id="a" x1="1.795" y1="0.56" x2="1.212" y2="0.492" gradientUnits="objectBoundingBox"><stop offset="0" stop-color="#e7358a"/><stop offset="1" stop-color="#ec6d1c"/></linearGradient><linearGradient id="b" y1="0.5" x2="1" y2="0.5" gradientUnits="objectBoundingBox"><stop offset="0" stop-color="#ffa91f"/><stop offset="1" stop-color="#ffd56c"/></linearGradient><clipPath id="f"><path class="a" d="M6714.206,3873.712l0,2.079,34.545-19.509c4.25-2.4,7.723-.465,7.735,4.312l.114,38.84c.014,4.78-3.435,10.619-7.69,13.023l-34.422,19.44,1.873,1.01,32.557-18.368c5.272-2.981,9.55-10.222,9.533-16.149l-.111-38.841c-.016-5.928-4.322-8.323-9.6-5.347Z" transform="translate(-6714.206 -3852.922)"/></clipPath><linearGradient id="h" x1="2.174" y1="0.815" x2="2.06" y2="0.434" xlink:href="#a"/><linearGradient id="i" x1="1.246" y1="1" x2="1.246" gradientUnits="objectBoundingBox"><stop offset="0" stop-color="#7a4694"/><stop offset="1" stop-color="#b54f97"/></linearGradient><linearGradient id="j" x1="2.238" y1="-0.32" x2="1.54" y2="0.109" xlink:href="#a"/></defs><g class="b" transform="translate(88.691)"><g class="c" transform="translate(0 54.885)"><path class="d" d="M6897.377,3560.5c1.334.754,1.34,1.974.013,2.728l-42.829,24.351a5.39,5.39,0,0,1-4.807,0l-66.948-37.818c-1.332-.753-1.34-1.97-.017-2.722l42.829-24.354a5.4,5.4,0,0,1,4.811,0Z" transform="translate(-6781.803 -3522.114)"/></g><g class="c" transform="translate(46.395)"><path class="d" d="M6981.51,3406.228a5.15,5.15,0,0,1,2.4,4.078l-.141,48.494c0,1.5-1.089,2.1-2.418,1.347l-66.949-37.817a5.161,5.161,0,0,1-2.4-4.072l.139-48.5c.006-1.5,1.091-2.1,2.422-1.349Z" transform="translate(-6912.004 -3368.086)"/></g></g><g transform="translate(0 39.333)"><path class="e" d="M6662.944,3571.661a6.753,6.753,0,0,0-2.6,9.28,8.388,8.388,0,0,0,3.911,3.6,6.5,6.5,0,0,0,4.747.3,5.431,5.431,0,0,0,.751-.236l3.212-1.537c2.089-.876,5.072-2.2,8.825-3.384,1.844-.692,3.938-1.157,6.116-1.79,1.09-.33,2.247-.507,3.413-.779,1.174-.232,2.358-.561,3.6-.732,2.464-.391,5.015-.839,7.649-1.054,2.624-.34,5.316-.411,8.017-.569a134.415,134.415,0,0,1,29.849,2.621c4.036.859,7.409,1.627,9.728,2.308,2.336.645,3.674,1.009,3.674,1.009l1.8-4.858s-1.331-.519-3.659-1.431c-2.321-.953-5.711-2.115-9.823-3.449a143.068,143.068,0,0,0-31.339-6.069c-2.937-.139-5.878-.362-8.793-.3-2.915-.057-5.785.134-8.572.286-1.394.05-2.753.265-4.094.389-1.336.165-2.662.239-3.925.477-2.532.444-4.965.743-7.15,1.3-4.426.909-8.04,2.055-10.576,2.827l-3.934,1.39A8.992,8.992,0,0,0,6662.944,3571.661Z" transform="translate(-6614.357 -3533.893)"/><g transform="translate(90.439 161.911)"><path class="f" d="M6799.406,3946.65c-1.722.881-3.147,1.281-4.542.49v.461c-.149,1.2-.458,1.556-.974,1.845a5.837,5.837,0,0,1-5.18,0,2.14,2.14,0,0,1-.967-.967v-.14a5.268,5.268,0,0,0-.256,5.862v1.591s.3,1.455,2.982,1.488c2.338.031,3.955-2.215,3.955-2.215l0-1.8c1.571-.592,3.241-.145,3.761-.316,2.7-.879,3.624-1.453,4.348-2.457C6804.779,3947.375,6801.125,3945.771,6799.406,3946.65Z" transform="translate(-6786.71 -3941.578)"/><path class="g" d="M6790.117,3934.013a29.356,29.356,0,0,1-.68,5.683c.933,2.476,7.971,2.452,7.183-1.285a5.377,5.377,0,0,1-1.264-3.865C6795.356,3932.736,6789.992,3932.1,6790.117,3934.013Z" transform="translate(-6788.466 -3932.85)"/></g><g transform="translate(112.061 173.416)"><path class="f" d="M6860.085,3978.938c-1.724.88-3.146,1.279-4.544.491v.46c-.146,1.2-.456,1.553-.974,1.848a5.864,5.864,0,0,1-5.176,0,2.164,2.164,0,0,1-.971-.972v-.141a5.285,5.285,0,0,0-.257,5.865v1.593s.305,1.454,2.986,1.487c2.336.03,3.956-2.214,3.956-2.214l-.005-1.8c1.57-.593,3.241-.147,3.762-.318,2.694-.882,3.623-1.454,4.349-2.457C6865.456,3979.661,6861.805,3978.057,6860.085,3978.938Z" transform="translate(-6847.388 -3973.866)"/><path class="g" d="M6850.8,3966.3a29.55,29.55,0,0,1-.68,5.686c.93,2.477,7.97,2.451,7.18-1.283a5.384,5.384,0,0,1-1.264-3.865C6856.033,3965.023,6850.672,3964.39,6850.8,3966.3Z" transform="translate(-6849.144 -3965.138)"/></g><path class="f" d="M6631.806,3736.476c.031-.023.527-.333,1.426-.9s2.217-1.366,3.884-2.38c3.373-2,8.167-4.822,14.284-7.839,3.062-1.507,6.445-3.072,10.208-4.537a75.6,75.6,0,0,1,12.607-3.812,44.068,44.068,0,0,1,7.59-.907,29.5,29.5,0,0,1,8.8.986,20.991,20.991,0,0,1,14.224,12.652,30.1,30.1,0,0,1,1.94,7.826,44.544,44.544,0,0,1,.236,7.176c-.011.2-.025.4-.037.592h-13.541c-.014-.165-.016-.336-.034-.5a21.764,21.764,0,0,0-2.521-9,4.93,4.93,0,0,0-4.309-2.636,20.5,20.5,0,0,0-7.841,1.446,58.682,58.682,0,0,0-8.79,4.066c-2.827,1.565-5.479,3.248-7.906,4.876-4.863,3.255-8.808,6.346-11.557,8.509s-4.288,3.487-4.288,3.487c-5.6,4.021-13.452,3.447-17.679-1.657C6624.3,3748.849,6625.622,3740.923,6631.806,3736.476Z" transform="translate(-6592.872 -3631.418)"/><path class="f" d="M6812.977,3794.955a77.189,77.189,0,0,1-1.73,12.262,152.183,152.183,0,0,1-6.382,21c-2.226,5.942-4.33,10.752-5.812,14.107-.739,1.677-1.343,2.986-1.754,3.873s-.629,1.369-.629,1.369l-5.905-2.193s.151-.494.432-1.416.694-2.272,1.2-4c1-3.448,2.4-8.385,3.751-14.337a140.2,140.2,0,0,0,3.264-20.236,63.988,63.988,0,0,0,.031-10.426Z" transform="translate(-6698.878 -3682.18)"/><g transform="translate(15.536 107.602)"><g class="h" transform="translate(49.068 25.828)"><path class="a" d="M6714.206,3873.712l0,2.079,34.545-19.509c4.25-2.4,7.723-.465,7.735,4.312l.114,38.84c.014,4.78-3.435,10.619-7.69,13.023l-34.422,19.44,1.873,1.01,32.557-18.368c5.272-2.981,9.55-10.222,9.533-16.149l-.111-38.841c-.016-5.928-4.322-8.323-9.6-5.347Z" transform="translate(-6714.206 -3852.922)"/><g class="i"><path class="a" d="M6714.206,3873.712l0,2.079,34.545-19.509c4.25-2.4,7.723-.465,7.735,4.312l.114,38.84c.014,4.78-3.435,10.619-7.69,13.023l-34.465,19.44,1.915,1.01,32.557-18.368c5.272-2.981,9.55-10.222,9.533-16.149l-.111-38.841c-.016-5.928-4.322-8.323-9.6-5.347Z" transform="translate(-6714.206 -3852.922)"/></g></g><path class="a" d="M6580.32,3859.488h0l.011-.007c.029-.017.051-.039.08-.053l.006.006,34.441-19.46c4.257-2.4,7.7-8.241,7.686-13.018l-.111-38.836c-.011-4.783-3.482-6.721-7.739-4.317l-34.537,19.511-.007-2.081,34.54-19.514c5.274-2.978,9.579-.576,9.594,5.35l.114,38.838c.017,5.931-4.257,13.172-9.533,16.15l-32.6,18.418h0c-4.229,2.4-4.206,6.3.048,8.71l28.265,15.979a17.264,17.264,0,0,0,15.373,0l1.852,1.048c-5.238,2.978-13.79,2.978-19.064,0l-28.265-15.979C6575.234,3867.274,6575.178,3862.471,6580.32,3859.488Z" transform="translate(-6576.503 -3780.44)"/></g><path class="j" d="M6651.283,3768.461a22.179,22.179,0,0,1-8.312,9.429,21.928,21.928,0,0,1-2.841,3.032q-2.437,1.629-4.874,3.261a22.628,22.628,0,0,1-16.549,1.254,22.051,22.051,0,0,1-13-10.881,21.165,21.165,0,0,1-2.292-10.77c.11-.579.219-1.154.324-1.735-1.5.771-3.049,1.6-4.625,2.487a84.218,84.218,0,0,0-16.855,12.17l50.519,28.722a84.351,84.351,0,0,1,16.856-12.171,131.519,131.519,0,0,1,22.51-10.061c1.694-.956,3.224-1.044,4.338-.417Z" transform="translate(-6564.67 -3661.002)"/><path class="f" d="M6692.888,3766.549c-6.18,4.448-7.5,12.374-3.3,17.445,4.224,5.1,12.075,5.678,17.678,1.656,0,0,1.549-1.309,4.289-3.488,2.749-2.159,6.691-5.25,11.554-8.5,2.424-1.632,5.085-3.317,7.906-4.879a59.272,59.272,0,0,1,8.79-4.068,20.67,20.67,0,0,1,7.843-1.448,4.954,4.954,0,0,1,4.309,2.639,21.73,21.73,0,0,1,2.519,9,62.59,62.59,0,0,1,0,10.928,140.394,140.394,0,0,1-3.262,20.239c-1.348,5.952-2.754,10.888-3.748,14.338-.5,1.724-.916,3.081-1.2,4s-.432,1.416-.432,1.416l5.908,2.19s.219-.474.628-1.366,1.013-2.2,1.76-3.873c1.479-3.355,3.579-8.162,5.807-14.1a152.408,152.408,0,0,0,6.384-21,76.66,76.66,0,0,0,1.767-12.853,44.527,44.527,0,0,0-.236-7.179,30.215,30.215,0,0,0-1.94-7.823,21.015,21.015,0,0,0-14.227-12.656,29.588,29.588,0,0,0-8.8-.983,43.709,43.709,0,0,0-7.587.909,75.509,75.509,0,0,0-12.61,3.807c-3.763,1.471-7.146,3.029-10.2,4.539-6.123,3.02-10.911,5.841-14.281,7.843-1.671,1.013-3,1.807-3.887,2.378S6692.922,3766.527,6692.888,3766.549Z" transform="translate(-6632.189 -3650.776)"/><g transform="translate(27.444 35.596)"><path class="k" d="M6666.317,3593.76c16.449,12.451-11.975,29.88-5.463,61.454,4.2,16.518-49.731,9.239-50.833-16.032-1.11-25.455,7.485-43.044,11.132-49.119,6.347-10.57,14.66-13.436,20.175-10.756C6649.51,3583.285,6659.464,3588.58,6666.317,3593.76Z" transform="translate(-6609.923 -3578.365)"/></g><g transform="translate(0 64.987)"><path class="j" d="M6537.165,3661.356a2.725,2.725,0,0,1,2.7-.253l50.521,28.724a2.727,2.727,0,0,0-2.7.253c-2.381,1.347-4.749,5.113-4.172,8.285,4.916,26.727,4.233,42.526,4.269,56.259.008,1.874.683,3.2,1.776,3.817l-50.519-28.724a4.145,4.145,0,0,1-1.776-3.816c-.04-13.731.642-29.532-4.269-56.262C6532.413,3666.468,6534.78,3662.7,6537.165,3661.356Z" transform="translate(-6532.904 -3660.847)"/><path class="l" d="M6678.941,3741.968c1.722-.969,3.444-.683,4.084,1.983a488.879,488.879,0,0,1,9.24,48.225c.063-.06.128-.115.191-.176,0,.02,0,.037,0,.052l.521-.531a85.71,85.71,0,0,1,16.141-11.517,131.492,131.492,0,0,1,22.51-10.061c3.361-1.9,6.1-.378,6.113,3.407a13.033,13.033,0,0,1-6.073,10.283l-38.758,21.895h0l-7.76,4.383c-3.369,1.9-6.1.38-6.116-3.4-.037-13.732.646-29.532-4.268-56.259C6674.192,3747.081,6676.559,3743.315,6678.941,3741.968Z" transform="translate(-6624.162 -3712.734)"/></g><g transform="translate(56.53)"><g transform="translate(2.451 6.608)"><path class="m" d="M6719.53,3522.234c-1.727,4.011-8.225,2.661-11.25,1.375-4.641-1.978-9.174-5.837-9.822-16.25-.308-4.945,1.5-11.25,13.679-10.236,8.114.677,12.687,10.857,12.044,18.351-.057.659-2.073.811-2.8.836A40.23,40.23,0,0,1,6719.53,3522.234Z" transform="translate(-6698.427 -3497.015)"/><path class="m" d="M6714.594,3549.756c0,2.584-2.172,4.2-4.849,4.206h0c-2.687.005-4.864-1.612-4.869-4.2l-.032-26.913a4.782,4.782,0,0,1,4.855-4.691h0a4.775,4.775,0,0,1,4.861,4.682Z" transform="translate(-6702.557 -3510.624)"/></g><path class="n" d="M6715.5,3489.422c6.552-2.9,8.1-8.542,6.683-10.423-1.989-2.628-7.635,5.41-10.754,4.8s-13.1-2.444-17.937,4.424.791,12.672,1.34,13.856c.584,1.265.511,3.378,1.491,4.355.384.212.942.245,2.939-.124.64-.3,1.972-2.174.156-5.542-1.635-3.033-.818-6.14,1.538-6.484,1.445-.213,2.231.26,2.319,2.244.342,7.463-.674,14.674,1.725,16.346,2.5,1.742,5.473,2.521,9.578,2.171,2.684-.229,2.932-10.666,2.365-10.707-2.316-.168-5.111.845-5.865,2.01-1.289,1.993,0,4.542-4.6,2.8-3.18-1.207-1.835-17.244-.5-18.043C6708.592,3489.889,6709.756,3491.969,6715.5,3489.422Z" transform="translate(-6691.547 -3478.469)"/></g><path class="o" d="M6748.871,3621.965c-2.794-1.7-6.815-.868-9.237,2.119s-2.3,7.053.266,9.355a5.806,5.806,0,0,0,.626.554l3.19,2.084c2.058,1.31,4.988,3.2,8.737,5.284a77.821,77.821,0,0,0,13.766,6.2,46.582,46.582,0,0,0,8.762,1.9,40.081,40.081,0,0,0,9.317-.036,56.534,56.534,0,0,0,16.517-5.062,131.707,131.707,0,0,0,12.52-6.773c3.519-2.12,6.362-3.977,8.352-5.272s3.107-2.054,3.107-2.054l-2.727-4.422s-1.195.615-3.284,1.684c-2.088,1.051-5.075,2.567-8.691,4.236a124.463,124.463,0,0,1-12.425,5.064,47.145,47.145,0,0,1-14.135,2.753,31.023,31.023,0,0,1-13.079-2.853,65.334,65.334,0,0,1-10.766-6.4c-3.088-2.194-5.612-4.234-7.377-5.657-1.758-1.454-2.764-2.284-2.764-2.284A6.264,6.264,0,0,0,6748.871,3621.965Z" transform="translate(-6664.852 -3570.273)"/><path class="m" d="M6938.818,3609.267l-4.224-2.168.174-.322,1.172.6a.558.558,0,0,0,.746-.232l.1-.186a.535.535,0,0,0-.228-.73l-1.173-.6.14-.256.8.4a.549.549,0,0,0,.742-.231l.1-.187a.522.522,0,0,0-.227-.727l-.8-.411.127-.239.088.043a.56.56,0,0,0,.746-.231l.1-.187a.531.531,0,0,0-.228-.732l-1.583-.809a.132.132,0,0,0-.034-.018l-1.713-.886a7.942,7.942,0,0,0-3.108-.54c-1.119.382-2.335-.259-4.091-.865l-.829,2.227c1.591.369,2.865,1.214,2.965,2.046a6.247,6.247,0,0,0,.788,3.129c.456.73,2.081,2.775,2.081,2.775h0l.213.286.009.016.469.618.154.208a.1.1,0,0,0,.14.015l.591-.422.009-.011a.558.558,0,0,0,.094-.766l-2.254-3a3.4,3.4,0,0,1,1.139.36c.946.482,1.972,1.016,1.972,1.016l0-.01,4.221,2.176a.57.57,0,0,0,.745-.23l.1-.193A.54.54,0,0,0,6938.818,3609.267Z" transform="translate(-6785.678 -3556.537)"/><path class="m" d="M6990.233,3619.246l-.08-.186a.487.487,0,0,0-.666-.241l-4.371,2-.1-.243,4.749-2.178a.532.532,0,0,0,.293-.679l-.069-.183a.477.477,0,0,0-.663-.242l-4.755,2.176-.125-.31,4.167-1.9a.544.544,0,0,0,.3-.675l-.077-.188a.49.49,0,0,0-.663-.25l-4.161,1.9,0,0-1.944.887a3.494,3.494,0,0,1-1.1.306l2.435-2.766a.529.529,0,0,0,.006-.725l-.009-.017-.5-.421a.107.107,0,0,0-.13.014l-.167.192-.51.567a.042.042,0,0,1-.009.02l-.227.259,0,0s-1.745,1.874-2.251,2.554a6.4,6.4,0,0,0-1.086,2.93c-.151.627-1.008,1.234-2.118,1.6l1.161,1.881a3.571,3.571,0,0,1,2.379-.188,7.583,7.583,0,0,0,2.939-.4l1.673-.77a.193.193,0,0,0,.055-.024l5.156-2.361a.542.542,0,0,0,.3-.684l-.075-.182a.487.487,0,0,0-.663-.242l-3.683,1.679-.095-.226,4.387-2A.564.564,0,0,0,6990.233,3619.246Z" transform="translate(-6818.365 -3566.54)"/></g></svg>