<svg xmlns="http://www.w3.org/2000/svg" xmlns:xlink="http://www.w3.org/1999/xlink" width="212.532" height="248.002" viewBox="0 0 212.532 248.002"><defs><style>.a{fill:#989899;}.b{opacity:0.8;}.c{mix-blend-mode:screen;}.c,.h{isolation:isolate;}.d{fill:#50c5ff;}.e{fill:url(#a);}.f{fill:url(#b);}.g{fill:url(#c);}.i{clip-path:url(#e);}.j{fill:#457edb;}.k{fill:url(#f);}.l{fill:#e8e9ea;}.m{fill:#c2c3c4;}.n{fill:url(#g);}.o{fill:url(#h);}.p{fill:#ffe5d4;}.q{fill:url(#j);}</style><linearGradient id="a" x1="-167.453" y1="0.896" x2="-166.454" y2="0.896" gradientUnits="objectBoundingBox"><stop offset="0" stop-color="#f6a509"/><stop offset="0.749" stop-color="#e84e1b"/></linearGradient><linearGradient id="b" y1="0.5" x2="1" y2="0.5" gradientUnits="objectBoundingBox"><stop offset="0" stop-color="#ffa91f"/><stop offset="1" stop-color="#ffd56c"/></linearGradient><linearGradient id="c" x1="-164.71" y1="0.889" x2="-163.71" y2="0.889" xlink:href="#a"/><clipPath id="e"><path class="a" d="M8081.3,3387.116l0,2.137-35.513-19.914c-4.377-2.454-7.925-.451-7.925,4.453l.014,39.858c0,4.907,3.554,10.883,7.931,13.338l35.391,19.841-1.92,1.044-33.471-18.746c-5.421-3.042-9.836-10.46-9.836-16.543l-.014-39.863c0-6.081,4.408-8.558,9.833-5.519Z" transform="translate(-8035.957 -3365.904)"/></clipPath><linearGradient id="f" x1="-44.908" y1="0.569" x2="-43.908" y2="0.569" gradientUnits="objectBoundingBox"><stop offset="0" stop-color="#e5332a"/><stop offset="1" stop-color="#ec6d1c"/></linearGradient><linearGradient id="g" x1="-43.84" y1="0.189" x2="-43.351" y2="0.746" xlink:href="#f"/><linearGradient id="h" x1="0.71" y1="0.892" x2="0.374" y2="0.321" xlink:href="#b"/><linearGradient id="j" x1="-123.056" y1="0.703" x2="-122.056" y2="0.703" xlink:href="#a"/></defs><g class="b"><g class="c" transform="translate(1.729 54.885)"><path class="d" d="M7757.914,3098.6c-1.333.753-1.338,1.974-.013,2.728l42.829,24.352a5.394,5.394,0,0,0,4.806,0l66.947-37.82c1.334-.751,1.344-1.969.02-2.721l-42.83-24.354a5.391,5.391,0,0,0-4.809,0Z" transform="translate(-7756.91 -3060.218)"/></g><g class="c"><path class="d" d="M7754.463,2944.332a5.148,5.148,0,0,0-2.405,4.076l.139,48.5c0,1.495,1.091,2.1,2.419,1.347l66.951-37.82a5.165,5.165,0,0,0,2.405-4.071l-.143-48.5c0-1.5-1.087-2.1-2.418-1.347Z" transform="translate(-7752.058 -2906.19)"/></g></g><g transform="translate(35.687 30.079)"><g transform="translate(70.161 164.752)"><path class="e" d="M8054.19,3472.921c2.3,1.164,4.192,1.688,6.042.633v.613c.2,1.6.614,2.063,1.3,2.45a7.81,7.81,0,0,0,6.884-.023,2.885,2.885,0,0,0,1.28-1.292v-.185a7.012,7.012,0,0,1,.367,7.785l0,2.116s-.4,1.937-3.954,1.992c-3.111.05-5.269-2.926-5.269-2.926v-2.4c-2.09-.78-4.309-.182-5-.406-3.59-1.159-4.823-1.917-5.788-3.245C8047.06,3473.906,8051.9,3471.76,8054.19,3472.921Z" transform="translate(-8049.107 -3465.605)"/><path class="f" d="M8085.945,3454.3c1.292,3.237,2.984,8.284,2.984,8.284-1.229,3.294-10.58,3.291-9.546-1.678,0,0,1.61-.919-.437-5.7C8078,3452.985,8085,3451.932,8085.945,3454.3Z" transform="translate(-8068.256 -3452.956)"/></g><g transform="translate(39.915 171.253)"><path class="g" d="M7969.312,3491.169c2.3,1.163,4.192,1.687,6.041.632v.613c.2,1.6.615,2.063,1.3,2.449a7.8,7.8,0,0,0,6.884-.021,2.858,2.858,0,0,0,1.28-1.289v-.191a7.017,7.017,0,0,1,.364,7.79l.007,2.115s-.392,1.931-3.956,1.987c-3.108.051-5.269-2.922-5.269-2.922v-2.4c-2.091-.776-4.3-.177-5-.4-3.59-1.162-4.821-1.918-5.787-3.246C7962.18,3492.152,7967.023,3490.006,7969.312,3491.169Z" transform="translate(-7964.228 -3483.851)"/><path class="f" d="M8001.066,3472.545c1.291,3.235,2.982,8.28,2.982,8.28-1.229,3.3-10.578,3.29-9.543-1.676,0,0,1.616-.918-.437-5.7C7993.119,3471.229,8000.125,3470.173,8001.066,3472.545Z" transform="translate(-7983.378 -3471.199)"/></g><g transform="translate(65.475 107.083)"><g class="h" transform="translate(0 26.65)"><path class="a" d="M8081.3,3387.116l0,2.137-35.513-19.914c-4.377-2.454-7.925-.451-7.925,4.453l.014,39.858c0,4.907,3.554,10.883,7.931,13.338l35.391,19.841-1.92,1.044-33.471-18.746c-5.421-3.042-9.836-10.46-9.836-16.543l-.014-39.863c0-6.081,4.408-8.558,9.833-5.519Z" transform="translate(-8035.957 -3365.904)"/><g class="i"><path class="j" d="M8081.3,3387.116l0,2.137-35.513-19.914c-4.377-2.454-7.925-.451-7.925,4.453l.014,39.858c0,4.907,3.554,10.883,7.931,13.338l35.436,19.841-1.965,1.044-33.471-18.746c-5.421-3.042-9.836-10.46-9.836-16.543l-.014-39.863c0-6.081,4.408-8.558,9.833-5.519Z" transform="translate(-8035.957 -3365.904)"/></g></g><path class="j" d="M8205.967,3372.115h0l-.014-.006c-.029-.019-.055-.039-.081-.056l-.007,0-35.408-19.856c-4.375-2.454-7.93-8.435-7.932-13.341l-.015-39.857c0-4.907,3.552-6.905,7.93-4.454l35.51,19.917v-2.139l-35.514-19.914c-5.421-3.04-9.832-.561-9.83,5.521l.017,39.856c0,6.089,4.412,13.507,9.834,16.547l33.521,18.793h0c4.344,2.454,4.333,6.462-.026,8.947L8175,3398.563c-4.357,2.482-11.43,2.5-15.774.05l-1.9,1.08c5.384,3.041,14.166,3.014,19.565-.061l28.951-16.488C8211.208,3380.09,8211.252,3375.161,8205.967,3372.115Z" transform="translate(-8114.079 -3291.115)"/></g><path class="k" d="M8114.462,3256.053c6.36,4.543,7.738,12.672,3.446,17.891-4.319,5.254-12.377,5.868-18.133,1.759,0,0-1.6-1.339-4.417-3.569-2.828-2.208-6.887-5.366-11.887-8.693-2.5-1.666-5.225-3.383-8.127-4.979a60.6,60.6,0,0,0-9.036-4.147,21.171,21.171,0,0,0-8.054-1.457,5.063,5.063,0,0,0-4.414,2.722c-1.349,2.159-2.234,5.632-2.559,9.243a65.107,65.107,0,0,0,.037,11.215,144.429,144.429,0,0,0,3.416,20.759c1.4,6.107,5.276,18.807,5.569,19.754s-6.949,2.112-7.372,1.2c-.725-1.545-4.834-12.167-7.14-18.258a155.144,155.144,0,0,1-6.619-21.527,77.846,77.846,0,0,1-1.855-13.192,45.5,45.5,0,0,1,.216-7.366,30.919,30.919,0,0,1,1.966-8.035,21.519,21.519,0,0,1,14.553-13.03,30.139,30.139,0,0,1,9.033-1.042,45.405,45.405,0,0,1,7.791.91,77.338,77.338,0,0,1,12.949,3.87c3.868,1.492,7.346,3.088,10.491,4.622,6.287,3.081,11.217,5.965,14.683,8,1.714,1.035,3.08,1.848,4,2.427Z" transform="translate(-7971.32 -3148.101)"/><g transform="translate(60.455 100.297)"><path class="l" d="M8052.766,3278.8a286.636,286.636,0,0,0,11.482,12.756q2.5,1.659,5.015,3.331a23.23,23.23,0,0,0,16.986,1.234,22.608,22.608,0,0,0,13.307-11.206,21.662,21.662,0,0,0,2.314-11.063c-.111-.593-.22-1.184-.336-1.781,1.549.788,3.137,1.63,4.758,2.539a86.384,86.384,0,0,1,17.34,12.436l-51.751,29.64a86.514,86.514,0,0,0-17.343-12.44,134.672,134.672,0,0,0-23.13-10.255c-1.739-.975-3.315-1.063-4.451-.411Z" transform="translate(-8025.144 -3272.07)"/><path class="m" d="M8028.133,3332.088a134.635,134.635,0,0,1,23.131,10.255,88.129,88.129,0,0,1,16.605,11.766l14.354,14.643c0,.235,0,.468,0,.7,0,3.881-2.8,5.453-6.264,3.511l-47.824-26.819a13.4,13.4,0,0,1-6.269-10.533C8021.87,3331.721,8024.675,3330.151,8028.133,3332.088Z" transform="translate(-8021.87 -3310.168)"/></g><path class="n" d="M8029.224,3274.555c6.364,4.544,7.742,12.677,3.445,17.895-4.314,5.254-12.371,5.865-18.133,1.757,0,0-1.595-1.34-4.415-3.57-2.827-2.207-6.883-5.368-11.886-8.691-2.5-1.664-5.227-3.385-8.127-4.983a60.453,60.453,0,0,0-9.039-4.145,21.122,21.122,0,0,0-8.051-1.457,5.055,5.055,0,0,0-4.414,2.721c-1.349,2.16-2.234,5.633-2.554,9.241a64.3,64.3,0,0,0,.033,11.217,144.314,144.314,0,0,0,3.417,20.763c1.4,6.1,5.251,18.641,5.547,19.585s-7.1,2.116-7.526,1.2-4.662-12-6.964-18.092a156.012,156.012,0,0,1-6.62-21.53,78.555,78.555,0,0,1-1.857-13.19,46.206,46.206,0,0,1,.218-7.365,31.017,31.017,0,0,1,1.967-8.037,21.567,21.567,0,0,1,14.557-13.031,30.3,30.3,0,0,1,9.03-1.038,44.982,44.982,0,0,1,7.791.909,77.983,77.983,0,0,1,12.951,3.87c3.864,1.493,7.344,3.083,10.487,4.622,6.289,3.083,11.218,5.963,14.684,8,1.714,1.033,3.08,1.848,3.994,2.429Z" transform="translate(-7916.455 -3160.011)"/><path class="o" d="M8098.859,3107.3c-16.838,12.826,12.389,30.627,5.812,63.048-4.255,16.963,51.071,9.322,52.115-16.616,1.054-26.128-7.825-44.148-11.59-50.371-6.549-10.825-15.086-13.743-20.739-10.974C8116.074,3096.488,8105.875,3101.957,8098.859,3107.3Z" transform="translate(-8007.556 -3055.483)"/><path class="p" d="M7853.37,3143.675a.546.546,0,0,1-.453-.625l.034-.209a.551.551,0,0,1,.629-.453l4.16.659.045-.268-4.951-.78a.543.543,0,0,1-.459-.622l.037-.212a.547.547,0,0,1,.63-.45l4.951.785.048-.286-5.369-.849a.539.539,0,0,1-.456-.619l.034-.212a.552.552,0,0,1,.632-.452l5.375.849.058-.353-4.708-.744a.54.54,0,0,1-.452-.619l.034-.21a.555.555,0,0,1,.631-.454l4.7.744v-.006s1.142.179,2.2.348a3.343,3.343,0,0,0,1.2-.015l-3.114-2.14a.561.561,0,0,1-.165-.756l.008-.013s.359-.715.9-.367c.166.108,3.043,1.986,3.709,2.548a12.056,12.056,0,0,1,1.585,1.878c.952,1.1,2.891.846,5.438,4.059.27.344-1.67,1.637-1.67,1.637s-2.638-3.677-4.771-1.541c-1.284,1.28-4.583.671-4.583.671-.017,0-.037-.005-.056-.005Z" transform="translate(-7852.21 -3083.709)"/><path class="p" d="M7909.46,3109.973a.6.6,0,0,0-.359.729l.065.218a.537.537,0,0,0,.689.37l.433-.149.083.275-1.2.41a.592.592,0,0,0-.361.73l.065.215a.536.536,0,0,0,.691.368l1.2-.407.09.286-1.612.554a.591.591,0,0,0-.359.729l.063.216a.541.541,0,0,0,.692.37l1.606-.548.109.363-4.56,1.556a.593.593,0,0,0-.364.727l.065.22a.546.546,0,0,0,.692.368l4.561-1.558,0,.009s1.1-.382,2.125-.728a3.234,3.234,0,0,1,1.193-.184l-2.784,2.768a.622.622,0,0,0-.055.819l.007.019a.766.766,0,0,0,1.055.1s3.194-3.144,3.2-3.156v0l0-.006a10.248,10.248,0,0,0,1.426-2.378c1-2.543,4.61-3.047,4.61-3.047l-.663-2.512s-3.928,1.527-5.066,1.207a7.855,7.855,0,0,0-3.731.037A15.583,15.583,0,0,0,7909.46,3109.973Z" transform="translate(-7887.093 -3065.992)"/><path class="f" d="M8036.452,3082.4a6.969,6.969,0,0,1,3.355,4.2,7.041,7.041,0,0,1-.654,5.31,8.6,8.6,0,0,1-4,3.705,6.638,6.638,0,0,1-4.868.322,5.337,5.337,0,0,1-.773-.242l-3.3-1.569c-2.148-.892-5.21-2.236-9.066-3.443-1.9-.7-4.043-1.176-6.287-1.817-1.119-.336-2.306-.51-3.5-.789-1.208-.234-2.422-.568-3.693-.739-2.532-.393-5.151-.848-7.855-1.06-2.692-.339-5.457-.406-8.228-.557a138.148,138.148,0,0,0-30.621,2.785c-4.141.892-7.6,1.694-9.978,2.4-2.4.667-3.765,1.044-3.765,1.044l-1.87-4.978s1.366-.541,3.756-1.482c2.38-.986,5.854-2.187,10.066-3.57a146.935,146.935,0,0,1,32.144-6.328c3.014-.153,6.033-.391,9.021-.336,2.992-.065,5.937.121,8.8.268,1.435.048,2.825.265,4.2.383,1.371.168,2.732.239,4.03.479,2.6.448,5.094.747,7.344,1.307,4.54.921,8.254,2.086,10.858,2.869,2.571.9,4.043,1.416,4.043,1.416A7.618,7.618,0,0,1,8036.452,3082.4Z" transform="translate(-7909.582 -3045.089)"/><g transform="translate(106.572 63.181)"><path class="l" d="M8237.68,3168.429a2.776,2.776,0,0,0-2.768-.25l-51.751,29.639a2.787,2.787,0,0,1,2.771.254c2.449,1.375,4.891,5.229,4.308,8.485-4.952,27.446-4.2,43.658-4.2,57.751,0,1.925-.688,3.287-1.811,3.926l51.75-29.641c1.12-.642,1.812-2,1.812-3.926-.006-14.09-.758-30.3,4.193-57.749C8242.573,3173.66,8240.13,3169.8,8237.68,3168.429Z" transform="translate(-8171.803 -3167.91)"/><g transform="translate(0 29.64)"><path class="m" d="M8151.712,3303c.063.063.132.118.2.182a503.312,503.312,0,0,1,9.321-49.525c.646-2.74,2.417-3.039,4.185-2.045,2.45,1.374,4.893,5.229,4.309,8.485-4.952,27.447-4.2,43.659-4.194,57.752,0,3.881-2.8,5.452-6.266,3.511l-7.977-4.473C8151.314,3312.647,8151.415,3308.068,8151.712,3303Z" transform="translate(-8151.288 -3251.091)"/></g></g><g transform="translate(89.965)"><g transform="translate(4.982 5.254)"><path class="p" d="M8148.157,3057.172c.009,2.54,2.153,4.123,4.788,4.117h0c2.636-.009,4.772-1.607,4.765-4.147l-.086-26.453a4.691,4.691,0,0,0-4.793-4.585h0a4.693,4.693,0,0,0-4.762,4.617Z" transform="translate(-8137.591 -3018.708)"/><path class="p" d="M8121.1,3030.177c1.718,3.934,8.092,2.58,11.063,1.3,4.553-1.958,8.99-5.773,9.582-16.006.278-4.861-1.528-11.056-13.49-10.006C8116.724,3006.478,8117.331,3021.535,8121.1,3030.177Z" transform="translate(-8118.666 -3005.347)"/></g><path class="q" d="M8104.694,2998.14c-.521-7.582,20.376-7.628,21.938-7.516,15.873,1.152,4.279,24.872,4.074,25.762-.745,3.207-5.227,2.9-6.354,2.791-1.26-.124-1.295-5.17-.581-10.938.518-3.382-3.234-3.046-3.525-1.68-.322,1.51-3.047,7.638-2.51,4.424.256-1.513.737-5.313-.35-6.558C8114.065,3000.612,8105.066,3003.612,8104.694,2998.14Z" transform="translate(-8104.685 -2990.602)"/></g><path class="f" d="M7967.092,3135.809c2.864-1.749,6.989-.909,9.485,2.146,2.482,3.039,2.388,7.228-.239,9.6a6.145,6.145,0,0,1-.643.566s-1.187.781-3.268,2.155c-2.106,1.349-5.112,3.291-8.95,5.451a79.973,79.973,0,0,1-14.1,6.4,48.02,48.02,0,0,1-8.986,1.98,41.125,41.125,0,0,1-9.565-.008,57.9,57.9,0,0,1-16.967-5.137,135.147,135.147,0,0,1-12.867-6.916c-3.622-2.167-6.547-4.062-8.592-5.384s-3.2-2.1-3.2-2.1l2.789-4.548s1.229.629,3.375,1.716,5.217,2.618,8.933,4.323a128.686,128.686,0,0,0,12.772,5.157,48.392,48.392,0,0,0,14.514,2.781,31.839,31.839,0,0,0,13.411-2.973,67.469,67.469,0,0,0,11.026-6.594c3.162-2.268,5.746-4.37,7.553-5.835,1.8-1.5,2.828-2.349,2.828-2.349A5.57,5.57,0,0,1,7967.092,3135.809Z" transform="translate(-7876.02 -3083.487)"/></g></svg>