<svg xmlns="http://www.w3.org/2000/svg" width="229.744" height="194.955" viewBox="0 0 229.744 194.955"><defs><style>.a,.b,.d{mix-blend-mode:screen;}.a,.b,.c,.d{isolation:isolate;}.b{fill:#ff57b3;}.d{fill:#22a1ff;}</style></defs><g class="a"><g transform="translate(0 0)"><g transform="translate(14.972 127.151)"><path class="b" d="M6916.366,1597.855l0,1.938c-10.062,5.81-18.218,19.933-18.185,31.5s8.241,16.253,18.306,10.441,18.224-19.949,18.191-31.516l1.689-.972c.036,12.635-8.884,28.078-19.876,34.429s-19.973,1.233-20.008-11.405C6896.452,1619.649,6905.379,1604.2,6916.366,1597.855Z" transform="translate(-6896.489 -1597.855)"/></g><g transform="translate(30.799 121.776)"><path class="b" d="M6943.61,1583.164c-.085.05-.167.1-.252.148-.037.026-.085.052-.127.078l-.259.164c-.034.019-.065.039-.1.059-.251.157-.5.32-.746.483l-.043.032c-.11.073-.221.146-.329.221-.02.013-.04.028-.061.04-.112.08-.229.159-.344.238-.007.006-.013.013-.019.018-.431.3-.855.619-1.281.942.433-.328.864-.642,1.3-.953.158-.1.325-.219.48-.324.645-.441,1.292-.863,1.95-1.25-.02.009-.038.02-.057.029C6943.685,1583.115,6943.644,1583.139,6943.61,1583.164Z" transform="translate(-6940.054 -1583.06)"/></g><g transform="translate(27.577 125.043)"><path class="b" d="M6933.289,1592.212c-.713.583-1.412,1.2-2.1,1.833.748-.695,1.512-1.362,2.289-1.993Z" transform="translate(-6931.186 -1592.053)"/></g><g transform="translate(25.419 127.233)"><path class="b" d="M6925.245,1600.029c.636-.67,1.289-1.324,1.949-1.947C6926.524,1598.71,6925.877,1599.362,6925.245,1600.029Z" transform="translate(-6925.245 -1598.082)"/></g><g transform="translate(25.218 129.18)"><path class="b" d="M6924.691,1603.652l.056-.06c.046-.049.1-.1.145-.151C6924.825,1603.514,6924.756,1603.581,6924.691,1603.652Z" transform="translate(-6924.691 -1603.442)"/></g><g transform="translate(24.191 117.561)"><path class="b" d="M6921.866,1571.853q.086-.08.167-.161l.255-.237C6922.15,1571.589,6922.01,1571.72,6921.866,1571.853Z" transform="translate(-6921.866 -1571.456)"/></g><g transform="translate(19.751 122.271)"><path class="b" d="M6909.642,1584.712c.045-.053.086-.1.132-.151s.084-.094.124-.139Z" transform="translate(-6909.642 -1584.422)"/></g><g transform="translate(18.784 123.072)"><path class="b" d="M6906.988,1587.222l-.009-.006q.259-.3.521-.59C6907.33,1586.822,6907.155,1587.02,6906.988,1587.222Z" transform="translate(-6906.979 -1586.626)"/></g><g transform="translate(34.267 110.221)"><path class="b" d="M6949.637,1551.259l-.034.017.045-.026Z" transform="translate(-6949.604 -1551.25)"/></g><g transform="translate(0.001 168.602)"><path class="b" d="M6855.306,1711.96c-.015.418-.028.839-.031,1.256C6855.281,1712.8,6855.289,1712.38,6855.306,1711.96Z" transform="translate(-6855.275 -1711.96)"/></g><g transform="translate(0.033 167.716)"><path class="b" d="M6855.4,1709.521c-.014.3-.026.592-.033.886C6855.369,1710.111,6855.383,1709.813,6855.4,1709.521Z" transform="translate(-6855.362 -1709.521)"/></g><g transform="translate(0.077 164.214)"><path class="b" d="M6855.681,1700.654c-.068.639-.117,1.274-.157,1.891-.017.221-.026.437-.042.665q.083-1.649.279-3.329C6855.733,1700.141,6855.7,1700.4,6855.681,1700.654Z" transform="translate(-6855.483 -1699.881)"/></g><g transform="translate(0.355 162.951)"><path class="b" d="M6856.252,1697.62c.045-.4.095-.809.148-1.214-.057.424-.1.842-.151,1.262C6856.25,1697.652,6856.252,1697.636,6856.252,1697.62Z" transform="translate(-6856.25 -1696.406)"/></g><g transform="translate(0.065 167.543)"><path class="b" d="M6855.451,1709.172c.007-.045.008-.084.012-.128,0,.057-.01.113-.012.173Z" transform="translate(-6855.451 -1709.045)"/></g><g transform="translate(0.901 157.087)"><path class="b" d="M6858.32,1680.894c-.11.495-.214.969-.307,1.441s-.176.916-.261,1.382q.309-1.724.717-3.455C6858.42,1680.473,6858.369,1680.685,6858.32,1680.894Z" transform="translate(-6857.751 -1680.262)"/></g><g transform="translate(2.065 153.556)"><path class="b" d="M6860.958,1672.271c.159-.574.314-1.152.48-1.728C6861.277,1671.12,6861.114,1671.7,6860.958,1672.271Z" transform="translate(-6860.958 -1670.543)"/></g><g transform="translate(1.783 155.284)"><path class="b" d="M6860.179,1676.426c.092-.376.188-.752.282-1.127C6860.367,1675.674,6860.271,1676.05,6860.179,1676.426Z" transform="translate(-6860.179 -1675.299)"/></g><g transform="translate(1.618 156.411)"><path class="b" d="M6859.792,1678.784c.035-.127.067-.255.1-.383-.057.227-.116.451-.166.676C6859.749,1678.98,6859.771,1678.883,6859.792,1678.784Z" transform="translate(-6859.725 -1678.402)"/></g><g transform="translate(0.712 160.542)"><path class="b" d="M6857.4,1689.892c.007-.042.019-.077.024-.118-.065.349-.132.7-.187,1.053C6857.287,1690.517,6857.338,1690.2,6857.4,1689.892Z" transform="translate(-6857.232 -1689.774)"/></g><g transform="translate(17.636 124.032)"><path class="b" d="M6904.527,1589.444c.048-.059.095-.115.139-.174-.284.343-.562.7-.847,1.043l.011-.012C6904.061,1590.008,6904.288,1589.722,6904.527,1589.444Z" transform="translate(-6903.819 -1589.27)"/></g><g transform="translate(15.354 126.369)"><path class="b" d="M6897.591,1597.269l-.051.071c.41-.554.826-1.1,1.246-1.638C6898.383,1596.217,6897.985,1596.742,6897.591,1597.269Z" transform="translate(-6897.54 -1595.702)"/></g><g transform="translate(18.792 116.846)"><path class="b" d="M6913.618,1569.487c-.266.236-.528.471-.792.715-.14.133-.278.264-.423.4q-2.157,2.042-4.186,4.313c-.084.1-.17.193-.256.29-.147.167-.3.338-.445.51-.171.2-.345.395-.513.6A73.066,73.066,0,0,1,6913.618,1569.487Z" transform="translate(-6907.003 -1569.487)"/></g><g transform="translate(29.767 112.384)"><path class="b" d="M6937.216,1558.08c.4-.3.81-.593,1.216-.876C6938.025,1557.487,6937.619,1557.781,6937.216,1558.08Z" transform="translate(-6937.216 -1557.204)"/></g><g transform="translate(29.347 113.26)"><path class="b" d="M6936.057,1559.939c.142-.108.282-.215.42-.324C6936.339,1559.725,6936.2,1559.832,6936.057,1559.939Z" transform="translate(-6936.057 -1559.615)"/></g><g transform="translate(28.462 113.584)"><path class="b" d="M6933.622,1561.192c.291-.232.584-.46.884-.685C6934.206,1560.731,6933.913,1560.959,6933.622,1561.192Z" transform="translate(-6933.622 -1560.507)"/></g><g transform="translate(27.746 114.268)"><path class="b" d="M6931.65,1562.966c.237-.193.477-.386.717-.574C6932.126,1562.58,6931.887,1562.773,6931.65,1562.966Z" transform="translate(-6931.65 -1562.392)"/></g><g class="c" transform="translate(0 109.937)"><g transform="translate(26.193 5.569)"><path class="b" d="M6927.849,1566.03c.087-.08.183-.156.274-.232l-.747.646C6927.528,1566.3,6927.688,1566.166,6927.849,1566.03Z" transform="translate(-6927.376 -1565.798)"/></g><g transform="translate(26.663 5.801)"><path class="b" d="M6928.673,1566.437a.009.009,0,0,1,0,.005h0S6928.673,1566.44,6928.673,1566.437Z" transform="translate(-6928.671 -1566.437)"/></g><g transform="translate(25.851 5.806)"><path class="b" d="M6927.246,1566.452h0c-.275.229-.542.463-.812.7.058-.052.115-.1.176-.151l.06-.062C6926.862,1566.774,6927.056,1566.613,6927.246,1566.452Z" transform="translate(-6926.435 -1566.452)"/></g><g transform="translate(25.45 5.502)"><path class="b" d="M6926.821,1565.681l-.748.647c-.112.1-.228.193-.337.292-.135.119-.267.248-.406.37q.78-.7,1.571-1.375C6926.875,1565.637,6926.85,1565.657,6926.821,1565.681Z" transform="translate(-6925.331 -1565.614)"/></g><g class="a"><path class="d" d="M6890.073,1550.468l.034,11.657c-.1.061-.208.123-.311.183-.255.154-.337.2-.42.252-.218.135-.3.189-.387.242-.348.216-.595.379-.841.542-.154.1-.265.178-.372.253-.174.121-.293.2-.4.279-.449.32-.875.634-1.3.959q-.472.361-.933.74-1.167.946-2.29,1.993c-.067.064-.139.129-.209.2-.73.689-1.449,1.407-2.15,2.157q-.733.778-1.442,1.6c-.138.163-.2.231-.256.3s-.108.122-.158.183c-.091.109-.18.214-.27.324a58.633,58.633,0,0,0-11.794,23.264l-.082.335c-.227.966-.418,1.938-.569,2.887-.163,1.012-.261,1.883-.332,2.73q-.031.342-.059.679c-.072.9-.108,1.793-.108,2.66.045,15.7,11.19,22.057,24.847,14.171l.035,11.66c-19.248,11.113-34.969,2.156-35.028-19.973,0-.116,0-.235,0-.351.006-.725.031-1.464.064-2.187.022-.276.031-.531.053-.792.039-.619.087-1.253.157-1.891.023-.276.051-.541.083-.823.046-.4.095-.808.148-1.213.021-.135.035-.236.051-.338.04-.3.087-.612.134-.92.075-.412.129-.723.185-1.034.092-.506.184-1,.286-1.5.093-.471.2-.946.308-1.441.074-.3.142-.618.215-.926q.392-1.614.861-3.238a82.465,82.465,0,0,1,12.749-25.469c.837-1.129,1.581-2.08,2.353-3.029.23-.287.457-.573.7-.852.244-.3.342-.427.441-.544a65.432,65.432,0,0,1,13.868-12.41c.168-.11.332-.213.493-.315.234-.148.362-.224.486-.3.279-.174.4-.244.515-.315C6889.738,1550.661,6889.909,1550.564,6890.073,1550.468Z" transform="translate(-6855.272 -1550.468)"/></g></g><g transform="translate(174.786 90.973)"><path class="b" d="M7336.421,1499.75q.523-.729,1.018-1.485C7337.105,1498.771,7336.77,1499.264,7336.421,1499.75Z" transform="translate(-7336.421 -1498.265)"/></g><g class="c" transform="translate(125.361 32.78)"><g transform="translate(45.569 59.678)"><path class="b" d="M7325.807,1507.162a52.987,52.987,0,0,0,3.855-4.809A53.341,53.341,0,0,1,7325.807,1507.162Z" transform="translate(-7325.807 -1502.354)"/></g><g transform="translate(41.35 64.487)"><path class="b" d="M7318.412,1515.591a48.337,48.337,0,0,1-4.218,4.136A46.781,46.781,0,0,0,7318.412,1515.591Z" transform="translate(-7314.194 -1515.591)"/></g><g transform="translate(52.123 31.814)"><path class="b" d="M7343.847,1449.36a52.144,52.144,0,0,0,7.459-22.358c.039-.458.059-.909.073-1.353C7351.124,1433.141,7348.4,1441.666,7343.847,1449.36Z" transform="translate(-7343.847 -1425.649)"/></g><g transform="translate(8.204 57.55)"><path class="d" d="M7230.705,1513.1a11.854,11.854,0,0,0,4.743,2.27c.1.023.18.042.258.057.125.028.183.038.244.051a1.046,1.046,0,0,1,.136.026c.047.005.085.011.125.02.067.01.134.024.206.031,4.058.6,8.688-.577,13.328-3.258a39.663,39.663,0,0,0,6.241-4.514,54.27,54.27,0,0,0,9.2-10.643c.038-.048.069-.1.1-.148s.072-.112.109-.168c.073-.11.142-.218.213-.327l6.538,5.176a77.638,77.638,0,0,1-11.9,14.386c-.087.085-.177.167-.265.245a56.889,56.889,0,0,1-10.2,7.636c-9.977,5.765-19.911,6.612-26.833,1.134Z" transform="translate(-7222.95 -1496.496)"/></g><g transform="translate(11.695 77.357)"><path class="b" d="M7266.1,1551.019a56.953,56.953,0,0,1-10.208,7.666c-8.689,5.018-16.96,6.111-23.337,3.231,6.567,2.959,14.941,1.6,23.343-3.261A56.912,56.912,0,0,0,7266.1,1551.019Z" transform="translate(-7232.559 -1551.019)"/></g><g transform="translate(8.915 86.659)"><path class="b" d="M7224.908,1576.627c.2.144.405.283.609.417C7225.313,1576.909,7225.107,1576.771,7224.908,1576.627Z" transform="translate(-7224.908 -1576.627)"/></g><g transform="translate(15.959 74.154)"><path class="b" d="M7249.042,1544.472a11.823,11.823,0,0,1-4.743-2.27A11.849,11.849,0,0,0,7249.042,1544.472Z" transform="translate(-7244.298 -1542.202)"/></g><g transform="translate(8.204 86.127)"><path class="b" d="M7222.95,1575.161c.214.171.432.335.655.494C7223.382,1575.5,7223.164,1575.332,7222.95,1575.161Z" transform="translate(-7222.95 -1575.161)"/></g><g transform="translate(10.206 61.11)"><path class="b" d="M7234.129,1519.258l.085.081c-3.5-2.777-5.4-7.43-5.753-13.043a21.2,21.2,0,0,0,2.538,9.24l.071.139c.249.4.5.8.783,1.168l.166.237c.261.329.53.65.812.952.083.083.154.185.238.267A11.1,11.1,0,0,0,7234.129,1519.258Z" transform="translate(-7228.46 -1506.295)"/></g><g transform="translate(14.955 22.003)"><path class="b" d="M7261.41,1398.643l0,1.94c-10.063,5.811-18.216,19.931-18.182,31.5s8.24,16.255,18.3,10.444,18.229-19.95,18.2-31.514l1.685-.975c.038,12.635-8.88,28.079-19.876,34.426s-19.969,1.235-20-11.4S7250.412,1404.992,7261.41,1398.643Z" transform="translate(-7241.534 -1398.643)"/></g><g class="a"><path class="b" d="M7261.962,1341.763c5.858,4.638,8.739,13.094,8.146,23.849-.014.276-.032.544-.049.813-.734,10.219-4.447,21.3-10.534,31.551-.139.229-.2.324-.252.416s-.123.206-.187.307c-.463.764-.884,1.435-1.311,2.1l-6.543-5.176q.467-.718.909-1.448c4.653-7.842,7.291-15.7,7.8-22.936.037-.458.058-.909.072-1.353.246-7.266-1.8-12.967-5.82-16.144-4.74-3.748-11.677-3.46-19.028.785-5.8,3.348-11.434,8.959-15.875,15.815a57.65,57.65,0,0,0-7.125,15.576c-.232.837-.445,1.665-.631,2.489-.127.577-.25,1.153-.352,1.725-.028.162-.06.326-.089.489a38.3,38.3,0,0,0-.6,6.9c.062,6.349,1.971,11.654,5.821,14.7l-7.754,11.973c-.18-.138-.351-.283-.524-.431-.364-.311-.709-.634-1.042-.972a21.446,21.446,0,0,1-4.9-8.2c-2-6.012-2.253-13.255-.87-21.056.051-.288.1-.573.162-.862.022-.123.043-.245.069-.368.07-.344.134-.656.2-.972.348-1.63.769-3.281,1.253-4.942q.71-2.42,1.61-4.866c.128-.356.266-.717.4-1.073.038-.1.079-.2.119-.308a83.449,83.449,0,0,1,7.7-14.987c6.258-9.667,14.2-17.575,22.38-22.3C7245.5,1336.884,7255.277,1336.483,7261.962,1341.763Z" transform="translate(-7200.365 -1338.073)"/></g></g><g transform="translate(135.501 92.233)"><path class="b" d="M7228.331,1503.235c-.029-.5-.049-.993-.055-1.5Q7228.285,1502.495,7228.331,1503.235Z" transform="translate(-7228.276 -1501.735)"/></g><g transform="translate(131.924 117.424)"><path class="b" d="M7218.45,1571.1l-.021-.024a.979.979,0,0,0,.076.08C7218.487,1571.139,7218.466,1571.123,7218.45,1571.1Z" transform="translate(-7218.429 -1571.079)"/></g><g transform="translate(129.93 74.861)"><path class="b" d="M7212.942,1454.22l.11-.308h.01C7213.021,1454.017,7212.979,1454.116,7212.942,1454.22Z" transform="translate(-7212.942 -1453.912)"/></g><g transform="translate(128.938 76.242)"><path class="b" d="M7210.211,1459.366c.191-.55.384-1.1.588-1.652C7210.6,1458.264,7210.406,1458.813,7210.211,1459.366Z" transform="translate(-7210.211 -1457.714)"/></g><g transform="translate(127.917 77.895)"><path class="b" d="M7208.142,1463.078c-.226.69-.452,1.384-.659,2.073-.028.1-.055.215-.083.325.314-1.07.659-2.14,1.021-3.213-.046.139-.1.275-.145.416Z" transform="translate(-7207.4 -1462.263)"/></g><g transform="translate(125.344 88.252)"><path class="b" d="M7201.205,1490.774c-.044.238-.073.434-.114.637-1.291,7.691-.957,14.646.92,20.227C7200.07,1505.818,7199.821,1498.575,7201.205,1490.774Z" transform="translate(-7200.317 -1490.774)"/></g><g transform="translate(136.095 84.84)"><path class="b" d="M7230,1481.382c-.028.163-.061.326-.089.489.009-.048.021-.1.029-.145C7229.961,1481.611,7229.981,1481.5,7230,1481.382Z" transform="translate(-7229.915 -1481.382)"/></g><g transform="translate(136.673 80.626)"><path class="b" d="M7232,1469.781c-.056.209-.11.418-.162.618-.114.432-.228.867-.331,1.3Q7231.729,1470.749,7232,1469.781Z" transform="translate(-7231.504 -1469.781)"/></g><g transform="translate(136.536 82.547)"><path class="b" d="M7231.226,1475.22c-.032.138-.067.278-.1.417.043-.189.093-.38.136-.568C7231.253,1475.118,7231.237,1475.168,7231.226,1475.22Z" transform="translate(-7231.128 -1475.069)"/></g><g class="a" transform="translate(83.48 94.717)"><path class="b" d="M7105.546,1508.571l.024,8.73-20.468,11.818-.027-8.731Z" transform="translate(-7085.075 -1508.571)"/></g><g transform="translate(83.606 139.082)"><path class="b" d="M7105.895,1630.7l.023,8.729-20.471,11.817-.024-8.729Z" transform="translate(-7085.422 -1630.699)"/></g><g transform="translate(209.125 22.175)"><path class="b" d="M7451.414,1308.88l.027,8.731-20.473,11.819-.022-8.731Z" transform="translate(-7430.947 -1308.88)"/></g><g transform="translate(209.186 44.352)"><path class="b" d="M7451.583,1369.927l.027,8.745-20.469,11.818-.025-8.746Z" transform="translate(-7431.116 -1369.927)"/></g><g transform="translate(34.376 109.937)"><path class="b" d="M6949.9,1550.715l.356-.206a.573.573,0,0,1,.068-.04C6950.186,1550.548,6950.042,1550.633,6949.9,1550.715Z" transform="translate(-6949.902 -1550.468)"/></g><g transform="translate(34.801 105.159)"><path class="b" d="M6951.072,1542.094c19.254-11.119,34.975-2.165,35.038,19.951s-15.554,49.177-34.811,60.294l-.034-11.659c13.668-7.888,24.739-27.07,24.7-42.775s-11.19-22.042-24.857-14.154Z" transform="translate(-6951.072 -1537.317)"/></g><g transform="translate(34.302 110.183)"><path class="b" d="M6949.709,1551.184l-.011.009a.822.822,0,0,1,.074-.046C6949.754,1551.16,6949.73,1551.173,6949.709,1551.184Z" transform="translate(-6949.699 -1551.147)"/></g><g transform="translate(16.601 125.075)"><path class="b" d="M6900.969,1593.434c.342-.436.687-.867,1.037-1.294C6901.652,1592.567,6901.311,1593,6900.969,1593.434Z" transform="translate(-6900.969 -1592.141)"/></g><g transform="translate(31.314 111.252)"><path class="b" d="M6941.472,1554.988c.445-.3.891-.606,1.337-.9C6942.363,1554.382,6941.917,1554.683,6941.472,1554.988Z" transform="translate(-6941.472 -1554.09)"/></g><g transform="translate(30.985 112.15)"><path class="b" d="M6940.566,1556.8c.11-.079.22-.155.33-.233C6940.786,1556.64,6940.676,1556.716,6940.566,1556.8Z" transform="translate(-6940.566 -1556.562)"/></g><g transform="translate(27.022 114.843)"><path class="b" d="M6929.657,1564.569c.243-.2.482-.4.724-.6C6930.139,1564.17,6929.9,1564.37,6929.657,1564.569Z" transform="translate(-6929.657 -1563.973)"/></g><g transform="translate(83.421 72.539)"><path class="b" d="M7105.378,1447.519l.024,8.731-20.471,11.819-.021-8.733Z" transform="translate(-7084.91 -1447.519)"/></g><g transform="translate(209.061)"><path class="b" d="M7451.242,1247.836l.022,8.731-20.47,11.817-.023-8.73Z" transform="translate(-7430.771 -1247.836)"/></g><g transform="translate(83.543 116.891)"><path class="d" d="M7105.717,1569.611l.026,8.744-20.469,11.816-.028-8.744Z" transform="translate(-7085.246 -1569.611)"/></g><g transform="translate(209.252 66.541)"><path class="d" d="M7451.763,1431.008l.026,8.729-20.468,11.82-.023-8.73Z" transform="translate(-7431.298 -1431.008)"/></g></g></g></svg>