<svg xmlns="http://www.w3.org/2000/svg" xmlns:xlink="http://www.w3.org/1999/xlink" width="174.068" height="185.914" viewBox="0 0 174.068 185.914"><defs><style>.a{mix-blend-mode:screen;isolation:isolate;}.b{fill:url(#a);}.c{fill:url(#b);}.d{fill:url(#c);}.e{fill:url(#d);}.f{fill:url(#e);}.g{fill:url(#f);}.h{fill:url(#g);}.i{fill:url(#h);}.j{fill:url(#i);}.k{fill:url(#j);}.l{fill:#4591ff;}.m{fill:#50c5ff;}.n{fill:#f25fc5;}</style><linearGradient id="a" x1="-7898.303" y1="0.5" x2="-7897.303" y2="0.5" gradientUnits="objectBoundingBox"><stop offset="0" stop-color="#fa39ff"/><stop offset="1" stop-color="#ff57b3"/></linearGradient><linearGradient id="b" x1="-8372.667" y1="0.499" x2="-8371.667" y2="0.499" xlink:href="#a"/><linearGradient id="c" x1="-11100.188" y1="0.5" x2="-11099.188" y2="0.5" xlink:href="#a"/><linearGradient id="d" x1="-27848.766" y1="0.5" x2="-27847.766" y2="0.5" xlink:href="#a"/><linearGradient id="e" x1="-32935.289" y1="0.5" x2="-32934.289" y2="0.5" xlink:href="#a"/><linearGradient id="f" x1="-97.602" y1="0.5" x2="-96.602" y2="0.5" xlink:href="#a"/><linearGradient id="g" x1="-7257.301" y1="0.5" x2="-7256.301" y2="0.5" xlink:href="#a"/><linearGradient id="h" x1="-19605.738" y1="0.499" x2="-19604.738" y2="0.499" xlink:href="#a"/><linearGradient id="i" x1="-14740.41" y1="0.5" x2="-14739.41" y2="0.5" xlink:href="#a"/><linearGradient id="j" x1="-0.668" y1="0.291" x2="-0.73" y2="0.743" gradientUnits="objectBoundingBox"><stop offset="0" stop-color="#f6a509"/><stop offset="0.749" stop-color="#e84e1b"/></linearGradient></defs><g transform="translate(0 0)"><g class="a" transform="translate(0 26.26)"><g transform="translate(14.61 33.494)"><g transform="translate(42.34 94.37)"><path class="b" d="M9080.659,1262.092c.153.067.307.131.462.194C9080.966,1262.222,9080.813,1262.159,9080.659,1262.092Z" transform="translate(-9080.659 -1262.092)"/></g><g transform="translate(41.838 94.15)"><path class="c" d="M9079.278,1261.486c.145.062.292.126.436.191C9079.57,1261.612,9079.423,1261.547,9079.278,1261.486Z" transform="translate(-9079.278 -1261.486)"/></g><g transform="translate(40.417 93.475)"><path class="d" d="M9075.691,1259.789c-.105-.052-.219-.106-.326-.161C9075.473,1259.683,9075.586,1259.737,9075.691,1259.789Z" transform="translate(-9075.365 -1259.628)"/></g><g transform="translate(39.056 92.774)"><path class="e" d="M9071.747,1257.769c-.045-.023-.086-.048-.13-.07C9071.661,1257.724,9071.7,1257.745,9071.747,1257.769Z" transform="translate(-9071.617 -1257.699)"/></g><g transform="translate(38.096 92.248)"><path class="f" d="M9069.086,1256.312l-.11-.062C9069.01,1256.272,9069.049,1256.29,9069.086,1256.312Z" transform="translate(-9068.976 -1256.25)"/></g><g transform="translate(37.965 5.229)"><path class="g" d="M9106.228,1081.88c-.063,21.931-14.339,31.9-32.754,24.173a29.06,29.06,0,0,0,13.833,2.491l-7.075-18.262c7.008-.664,11.73-6.667,11.76-16.621.044-14.881-10.429-33.068-23.374-40.6l.044-16.35C9089.453,1028.771,9106.295,1057.978,9106.228,1081.88Z" transform="translate(-9068.617 -1016.707)"/></g><g transform="translate(41.261 93.879)"><path class="h" d="M9078.19,1260.974c-.167-.075-.34-.151-.5-.232C9077.851,1260.823,9078.023,1260.9,9078.19,1260.974Z" transform="translate(-9077.689 -1260.742)"/></g><g transform="translate(39.996 93.264)"><path class="i" d="M9074.393,1259.142l-.187-.093Z" transform="translate(-9074.205 -1259.049)"/></g><g transform="translate(38.331 75.997)"><path class="j" d="M9069.87,1211.648c-.081-.045-.17-.089-.247-.134C9069.7,1211.561,9069.785,1211.6,9069.87,1211.648Z" transform="translate(-9069.623 -1211.515)"/></g><path class="k" d="M9002.015,1007.48l.054,16.411c-13.086-7.557-23.685-1.51-23.726,13.411s10.485,33.162,23.47,40.662l.271.151c.154.088.242.138.329.184s.183.1.27.144l.3.161c1.2.592,1.31.64,1.414.686a18.473,18.473,0,0,0,9.291,1.823l7.075,18.266c-4.618.427-9.835-.581-15.4-3.187-.178-.081-.264-.122-.346-.159-.278-.136-.393-.19-.5-.245-.082-.039-.157-.077-.235-.117-.291-.146-.392-.2-.5-.251-.248-.13-.371-.2-.5-.263-.269-.139-.4-.215-.538-.289-.158-.085-.3-.167-.444-.245-.252-.144-.395-.228-.543-.308-20.83-12.031-37.728-41.291-37.664-65.233S8981.178,995.45,9002.015,1007.48Z" transform="translate(-8964.103 -1002.312)"/></g><path class="l" d="M9021.648,1069.763a11.872,11.872,0,0,1-5.641-1.609l-80.046-43.395c-6.68-3.621-12.095-12.44-12.074-19.661l.261-86.37c.014-5.234,2.891-8.619,7.327-8.619a11.884,11.884,0,0,1,5.642,1.607l80.04,43.4c6.687,3.624,12.1,12.443,12.082,19.663l-.262,86.371C9028.963,1066.381,9026.085,1069.763,9021.648,1069.763Zm-90.173-157.934c-3.445,0-5.591,2.646-5.605,6.9l-.26,86.37c-.02,6.654,4.989,14.793,11.173,18.145l80.039,43.4a10.39,10.39,0,0,0,4.826,1.4c3.447,0,5.595-2.647,5.609-6.9l.261-86.37c.019-6.654-4.993-14.8-11.179-18.147l-80.043-43.4A10.379,10.379,0,0,0,8931.476,911.829Z" transform="translate(-8923.888 -910.109)"/></g><g class="a" transform="translate(51.005)"><path class="m" d="M9179.47,920.463l-19.065-11,.045-16.183-5.735-3.313-.119,40.942,5.74,3.313.052-18.156,19.061,11.007-.048,18.156,5.734,3.313.116-40.945-5.736-3.313Z" transform="translate(-9121.791 -871.021)"/><path class="m" d="M9282.619,963.807l-13.554-7.824-2.163-1.25-3.586-2.069-.112,40.942,5.746,3.319.052-18.144,13.484,7.786c5.445,3.107,9.888.566,9.906-5.7C9292.409,974.623,9288.035,967,9282.619,963.807Zm-.16,16.136-13.439-7.758.029-9.609,13.437,7.758a9.2,9.2,0,0,1,4.17,7.218C9286.647,980.2,9284.765,981.276,9282.459,979.944Z" transform="translate(-9190.948 -910.945)"/><path class="m" d="M9083.7,848.958l-13.552-7.824-2.164-1.248-3.573-2.065-.115,40.944,5.738,3.314.053-18.145,13.482,7.784c5.457,3.116,9.888.568,9.905-5.7C9093.494,859.773,9089.128,852.155,9083.7,848.958Zm-.163,16.139-13.433-7.758.025-9.612,13.438,7.758a9.2,9.2,0,0,1,4.169,7.221C9087.73,865.355,9085.846,866.428,9083.538,865.1Z" transform="translate(-9064.297 -837.82)"/></g><g class="a" transform="translate(84.027 55.807)"><path class="n" d="M9155.2,1000.451c-.027,8.207,6.016,18.376,13.452,22.667,2.986,1.726,5.817,2.3,8.192,1.686a6.929,6.929,0,0,0,4.813-4.906l-3.582-3.226c-1.216,3.882-5.087,4.836-9.409,2.338-5.388-3.11-9.767-10.473-9.752-16.412s4.425-8.231,9.812-5.121c4.127,2.382,7.813,7.383,9.186,12.463l3.524.65c-1.9-7.015-7-13.943-12.7-17.233C9161.3,989.064,9155.221,992.246,9155.2,1000.451Z" transform="translate(-9155.196 -991.445)"/><path class="n" d="M9244.665,1063.939c2.4,1.384,4.662,1.881,6.4,1.433,1.862-.485,2.9-2.025,2.911-4.326a12.465,12.465,0,0,0-2.536-7.235,27.646,27.646,0,0,0-6.9-6.461c-5.185-3.54-5.176-5.86-5.172-6.746,0-2.025,2.3-2.422,5.022-.849s5,4.613,5,6.638l3.5,2.022a13.019,13.019,0,0,0-2.655-7.091,18.977,18.977,0,0,0-5.827-5.416c-2.191-1.265-4.262-1.729-5.848-1.323-1.7.447-2.679,1.9-2.684,4.006a11.784,11.784,0,0,0,2.242,6.632,22.525,22.525,0,0,0,6.026,5.739c6.342,4.4,6.335,6.966,6.331,8.065,0,2.376-2.658,2.864-5.8,1.053s-5.78-5.358-5.772-7.731l-3.5-2.022a13.959,13.959,0,0,0,2.886,7.671A20.749,20.749,0,0,0,9244.665,1063.939Z" transform="translate(-9206.269 -1018.823)"/><path class="n" d="M9294.676,1066.979c-1.69.453-2.675,1.9-2.68,4.006a11.738,11.738,0,0,0,2.251,6.638,22.384,22.384,0,0,0,6.015,5.733c6.344,4.4,6.335,6.965,6.335,8.065-.006,2.376-2.657,2.864-5.789,1.056s-5.78-5.356-5.771-7.732l-3.5-2.02a13.837,13.837,0,0,0,2.874,7.662,20.679,20.679,0,0,0,6.386,5.948c2.388,1.381,4.659,1.883,6.389,1.43,1.873-.482,2.9-2.025,2.907-4.323a12.4,12.4,0,0,0-2.525-7.233,27.731,27.731,0,0,0-6.9-6.467c-5.18-3.533-5.171-5.854-5.166-6.739,0-2.026,2.306-2.423,5.016-.856s5.014,4.616,5.007,6.644l3.49,2.016a13,13,0,0,0-2.649-7.085,19,19,0,0,0-5.837-5.422C9298.343,1067.043,9296.27,1066.573,9294.676,1066.979Z" transform="translate(-9242.01 -1039.449)"/><path class="n" d="M9360.925,1127.194c-3.161-1.824-5.825-5.361-5.82-7.717l-3.517-2.031a13.83,13.83,0,0,0,2.891,7.633,21.176,21.176,0,0,0,6.437,5.938c2.408,1.393,4.693,1.915,6.442,1.494,1.884-.473,2.923-1.99,2.929-4.268a12.27,12.27,0,0,0-2.554-7.2,18.764,18.764,0,0,0-1.19-1.5,2.722,2.722,0,0,1,.294-.069c1.489-.438,2.284-1.8,2.29-3.972a12.864,12.864,0,0,0-2.678-7.047,19.186,19.186,0,0,0-5.871-5.431c-2.2-1.271-4.3-1.761-5.894-1.364-1.713.421-2.7,1.863-2.705,3.943l3.521,2.031c0-2.016,2.323-2.379,5.063-.8s5.053,4.619,5.047,6.635c0,.841-.019,3-4.687.951l-2.591-1.494-.008,3.986,2.121,1.271c6.332,4.4,6.329,6.928,6.323,8.019C9366.763,1128.566,9364.084,1129.016,9360.925,1127.194Z" transform="translate(-9280.245 -1061.543)"/></g></g></svg>