<svg xmlns="http://www.w3.org/2000/svg" width="101.403" height="95.101" viewBox="0 0 101.403 95.101"><defs><style>.a{mix-blend-mode:screen;isolation:isolate;}.b{fill:#50c5ff;}</style></defs><g class="a" transform="translate(0 0)"><path class="b" d="M7663.624,484.518l5.739-3.311-.117-40.944-5.737,3.313.046,16.183-19.052,11-.047-16.183-5.735,3.31.117,40.945,5.734-3.313-.053-18.156,19.053-11Z" transform="translate(-7605.907 -422.676)"/><path class="b" d="M7766.608,393.146l-13.551,7.825-2.165,1.251-3.575,2.063.117,40.944,5.738-3.313-.053-18.147,13.488-7.784c5.451-3.183,9.867-10.839,9.847-17.106C7776.436,392.636,7772.034,390.08,7766.608,393.146Zm-.066,16.27-13.439,7.761-.028-9.612,13.438-7.758c2.314-1.338,4.189-.258,4.2,2.391A9.19,9.19,0,0,1,7766.542,409.416Z" transform="translate(-7675.051 -391.85)"/><path class="b" d="M7554.25,556.762l-.052-18.144,13.476-7.781c5.452-3.18,9.867-10.839,9.85-17.106-.018-6.243-4.424-8.8-9.837-5.736l-13.555,7.825-2.159,1.247-3.585,2.072.115,40.942Zm13.34-42.108c2.306-1.332,4.188-.255,4.2,2.391a9.214,9.214,0,0,1-4.17,7.221l-13.438,7.758-.029-9.612Z" transform="translate(-7548.388 -464.98)"/></g></svg>