<svg xmlns="http://www.w3.org/2000/svg" width="35.332" height="165.206" viewBox="0 0 35.332 165.206"><defs><style>.a{mix-blend-mode:screen;isolation:isolate;}.b{fill:#1cf2ec;}.c{fill:#ee4bf7;}</style></defs><g class="a" transform="translate(0 0)"><g transform="translate(19.653 48.876)"><path class="b" d="M7203.3,1894.452l.018,7.081,15.431,8.854-.011-7.079Z" transform="translate(-7203.303 -1894.452)"/></g><g transform="translate(19.627 36.327)"><path class="c" d="M7203.231,1859.907l.014,7.079,15.435,8.854-.015-7.079Z" transform="translate(-7203.231 -1859.907)"/></g><g transform="translate(19.596 23.778)"><path class="c" d="M7203.144,1825.362l.018,7.077,15.438,8.859-.018-7.083Z" transform="translate(-7203.144 -1825.362)"/></g><g transform="translate(19.569 11.228)"><path class="b" d="M7203.072,1790.813l.016,7.081,15.433,8.856-.014-7.08Z" transform="translate(-7203.072 -1790.813)"/></g><g transform="translate(19.682 61.427)"><path class="c" d="M7203.383,1929l.014,7.078,15.438,8.857-.018-7.079Z" transform="translate(-7203.383 -1929.002)"/></g><g transform="translate(19.709 73.978)"><path class="c" d="M7203.455,1963.551l.019,7.074,15.437,8.853-.018-7.072Z" transform="translate(-7203.455 -1963.551)"/></g><g transform="translate(19.737 86.527)"><path class="c" d="M7203.534,1998.1l.018,7.076,15.435,8.855-.015-7.077Z" transform="translate(-7203.534 -1998.095)"/></g><g transform="translate(19.88 149.268)"><path class="c" d="M7203.925,2170.808l.015,7.083,15.438,8.856-.017-7.079Z" transform="translate(-7203.925 -2170.808)"/></g><g transform="translate(19.851 136.72)"><path class="c" d="M7203.847,2136.268l.018,7.076,15.435,8.86-.015-7.078Z" transform="translate(-7203.847 -2136.268)"/></g><g transform="translate(19.825 124.175)"><path class="c" d="M7203.774,2101.734l.018,7.075,15.431,8.855-.015-7.073Z" transform="translate(-7203.774 -2101.734)"/></g><g transform="translate(19.796 111.625)"><path class="c" d="M7203.695,2067.186l.017,7.076,15.434,8.857-.014-7.076Z" transform="translate(-7203.695 -2067.186)"/></g><g transform="translate(19.767 99.076)"><path class="b" d="M7203.615,2032.641l.015,7.074,15.437,8.858-.017-7.076Z" transform="translate(-7203.615 -2032.641)"/></g><g transform="translate(0.031 12.551)"><path class="c" d="M7149.286,1794.455l.016,7.079,15.436,8.859-.016-7.085Z" transform="translate(-7149.286 -1794.455)"/></g><g transform="translate(0.058 25.1)"><path class="c" d="M7149.361,1829l.016,7.08,15.437,8.856-.015-7.082Z" transform="translate(-7149.361 -1829)"/></g><g transform="translate(0.113 50.198)"><path class="c" d="M7149.514,1898.091l.016,7.083,15.439,8.856-.021-7.083Z" transform="translate(-7149.514 -1898.091)"/></g><g transform="translate(0.087 37.65)"><path class="b" d="M7149.441,1863.55l.015,7.079,15.435,8.854-.015-7.079Z" transform="translate(-7149.441 -1863.55)"/></g><g transform="translate(0.285 125.49)"><path class="c" d="M7149.985,2105.353l.016,7.084,15.434,8.855-.016-7.08Z" transform="translate(-7149.985 -2105.353)"/></g><g transform="translate(0.255 112.945)"><path class="b" d="M7149.9,2070.82l.016,7.076,15.438,8.86-.017-7.078Z" transform="translate(-7149.905 -2070.82)"/></g><g transform="translate(0.226 100.397)"><path class="b" d="M7149.825,2036.278l.014,7.076,15.436,8.856-.013-7.073Z" transform="translate(-7149.825 -2036.278)"/></g><path class="c" d="M7149.2,1759.906l.018,7.08,15.438,8.855-.021-7.081Z" transform="translate(-7149.201 -1759.906)"/><g transform="translate(0.144 62.746)"><path class="c" d="M7149.6,1932.632l.016,7.079,15.436,8.86-.015-7.08Z" transform="translate(-7149.597 -1932.632)"/></g><g transform="translate(0.171 75.299)"><path class="c" d="M7149.673,1967.188l.016,7.076,15.436,8.856-.017-7.077Z" transform="translate(-7149.673 -1967.188)"/></g><g transform="translate(0.199 87.847)"><path class="c" d="M7149.749,2001.729l.016,7.079,15.436,8.858-.011-7.076Z" transform="translate(-7149.749 -2001.729)"/></g><g transform="translate(0.312 138.039)"><path class="c" d="M7150.06,2139.9l.017,7.083,15.438,8.859-.018-7.082Z" transform="translate(-7150.06 -2139.897)"/></g></g></svg>