<svg xmlns="http://www.w3.org/2000/svg" width="174.195" height="100.832" viewBox="0 0 174.195 100.832"><defs><style>.a{mix-blend-mode:screen;}.a,.e{isolation:isolate;}.b{fill:#29beff;}.c{fill:#f42eff;}.d{fill:#4beeff;}.f{fill:#f6caff;}</style></defs><g class="a" transform="translate(0)"><g transform="translate(32.641 12.558)"><path class="b" d="M9123.543,1408.868c-.677.217-1.351.445-2,.677l-.538.2c-1.444.545-2.837,1.142-4.155,1.78a53.327,53.327,0,0,1,8.635-3.238c-.333.093-.67.187-1,.289S9123.857,1408.769,9123.543,1408.868Z" transform="translate(-9116.852 -1408.286)"/></g><g transform="translate(0.275 17.654)"><path class="b" d="M9028.445,1433.156c-.054.19-.136.377-.192.566a22.827,22.827,0,0,0-.5,2.24,25.725,25.725,0,0,1,7.374-13.647,30.479,30.479,0,0,0-4.552,5.967c-.04.074-.092.153-.133.229-.395.707-.745,1.425-1.071,2.15-.062.154-.136.3-.208.461C9028.895,1431.795,9028.658,1432.473,9028.445,1433.156Z" transform="translate(-9027.758 -1422.315)"/></g><g transform="translate(30.996 2.718)"><path class="b" d="M9116,1381.687c-.838.224-1.655.45-2.455.693-.414.122-.816.25-1.219.377q2.688-.859,5.533-1.558c-.06.017-.117.035-.173.048C9117.115,1381.389,9116.555,1381.541,9116,1381.687Z" transform="translate(-9112.325 -1381.2)"/></g><g transform="translate(42.195 1.181)"><path class="b" d="M9145.2,1376.968l-.237.044c-.606.094-1.208.2-1.811.3C9143.832,1377.188,9144.515,1377.075,9145.2,1376.968Z" transform="translate(-9143.152 -1376.968)"/></g><g transform="translate(44.522 0.65)"><path class="b" d="M9153.209,1375.506c-1.222.145-2.434.31-3.65.5v-.009Q9151.362,1375.718,9153.209,1375.506Z" transform="translate(-9149.559 -1375.506)"/></g><g transform="translate(50.666 68.99)"><path class="c" d="M9169.426,1563.862c.189.009.382.025.576.035.216.01.435.023.655.035-1.408-.072-2.806-.174-4.184-.3.949.086,1.9.159,2.872.223C9169.371,1563.86,9169.4,1563.86,9169.426,1563.862Z" transform="translate(-9166.474 -1563.633)"/></g><g transform="translate(31.565 65.235)"><path class="c" d="M9113.917,1553.3c.13.042.266.084.4.125,1.632.5,3.3.964,5.023,1.375-1.87-.447-3.684-.953-5.449-1.507A.148.148,0,0,1,9113.917,1553.3Z" transform="translate(-9113.89 -1553.295)"/></g><g transform="translate(0.156 31.657)"><path class="c" d="M9027.458,1461.108c.014-.083.023-.162.032-.244-.019.158-.043.318-.06.476a1.439,1.439,0,0,1,.017-.144C9027.451,1461.165,9027.455,1461.14,9027.458,1461.108Z" transform="translate(-9027.431 -1460.864)"/></g><g transform="translate(0.02 33.613)"><path class="c" d="M9027.055,1466.359c0-.038,0-.073.007-.112C9027.06,1466.285,9027.057,1466.321,9027.055,1466.359Z" transform="translate(-9027.055 -1466.247)"/></g><g transform="translate(0.006 33.725)"><path class="c" d="M9027.028,1466.612a.415.415,0,0,1,0,.049c0,.067,0,.133-.006.2v.026a.289.289,0,0,0,0,.061c0-.131.011-.258.013-.393Z" transform="translate(-9027.016 -1466.555)"/></g><g transform="translate(0.003 34.156)"><path class="c" d="M9027.008,1467.867v.26c0-.128,0-.254,0-.386C9027.01,1467.785,9027.01,1467.825,9027.008,1467.867Z" transform="translate(-9027.008 -1467.741)"/></g><g transform="translate(0.003 34.669)"><path class="c" d="M9027.008,1469.25v.009c0,.087,0,.16,0,.24h0v.057c0-.132,0-.268,0-.4Z" transform="translate(-9027.008 -1469.154)"/></g><g transform="translate(0.101 36.62)"><path class="c" d="M9027.281,1474.566a.145.145,0,0,0,0-.04c.013.125.027.251.042.378,0-.019,0-.035-.006-.049a.21.21,0,0,1,0-.049c-.009-.065-.018-.128-.021-.193A.252.252,0,0,0,9027.281,1474.566Z" transform="translate(-9027.277 -1474.526)"/></g><g transform="translate(0.142 36.999)"><path class="c" d="M9027.405,1475.69c0-.044-.009-.082-.015-.122C9027.4,1475.607,9027.4,1475.646,9027.405,1475.69Z" transform="translate(-9027.391 -1475.568)"/></g><g transform="translate(0.223 37.611)"><path class="c" d="M9027.637,1477.411a.124.124,0,0,1,.007.035c.006.055.018.109.028.165-.022-.118-.041-.239-.061-.357C9027.622,1477.305,9027.631,1477.359,9027.637,1477.411Z" transform="translate(-9027.611 -1477.253)"/></g><g transform="translate(1.134 41.325)"><path class="c" d="M9030.158,1487.585c-.015-.037-.025-.075-.036-.11C9030.133,1487.51,9030.144,1487.548,9030.158,1487.585Z" transform="translate(-9030.122 -1487.476)"/></g><g transform="translate(1.169 41.434)"><path class="c" d="M9030.334,1488.1c-.04-.108-.079-.216-.117-.325C9030.255,1487.887,9030.294,1487.995,9030.334,1488.1Z" transform="translate(-9030.217 -1487.778)"/></g><g transform="translate(2.048 43.605)"><path class="c" d="M9032.7,1493.892c-.024-.047-.044-.1-.065-.139C9032.66,1493.8,9032.68,1493.845,9032.7,1493.892Z" transform="translate(-9032.639 -1493.753)"/></g><g transform="translate(2.265 44.049)"><path class="c" d="M9033.293,1495.1c-.021-.042-.041-.083-.057-.12C9033.252,1495.012,9033.271,1495.053,9033.293,1495.1Z" transform="translate(-9033.236 -1494.975)"/></g><g transform="translate(3.316 45.976)"><path class="c" d="M9036.354,1500.653c-.078-.124-.154-.248-.228-.371C9036.2,1500.4,9036.275,1500.529,9036.354,1500.653Z" transform="translate(-9036.126 -1500.281)"/></g><g transform="translate(3.818 46.781)"><path class="c" d="M9037.6,1502.633c-.028-.048-.058-.093-.087-.137C9037.539,1502.54,9037.568,1502.585,9037.6,1502.633Z" transform="translate(-9037.51 -1502.497)"/></g><g transform="translate(3.905 46.918)"><path class="c" d="M9037.929,1503.141c-.062-.088-.12-.178-.181-.268C9037.809,1502.963,9037.866,1503.053,9037.929,1503.141Z" transform="translate(-9037.748 -1502.873)"/></g><g transform="translate(6.899 50.755)"><path class="c" d="M9046.2,1513.667l-.21-.232Z" transform="translate(-9045.99 -1513.435)"/></g><g transform="translate(11.584 55.104)"><path class="c" d="M9059.205,1525.657c-.108-.084-.211-.167-.317-.251C9058.994,1525.49,9059.1,1525.573,9059.205,1525.657Z" transform="translate(-9058.888 -1525.406)"/></g><g transform="translate(12.521 55.828)"><path class="c" d="M9061.783,1527.632c-.1-.077-.211-.157-.314-.232C9061.572,1527.475,9061.679,1527.555,9061.783,1527.632Z" transform="translate(-9061.469 -1527.4)"/></g><g transform="translate(13.429 56.495)"><path class="c" d="M9064.047,1529.29c-.03-.017-.056-.038-.081-.054C9063.991,1529.252,9064.017,1529.272,9064.047,1529.29Z" transform="translate(-9063.966 -1529.236)"/></g><g transform="translate(13.508 56.549)"><path class="c" d="M9064.571,1529.661c-.131-.1-.261-.186-.389-.277C9064.311,1529.475,9064.44,1529.565,9064.571,1529.661Z" transform="translate(-9064.183 -1529.384)"/></g><g transform="translate(14.059 56.936)"><path class="c" d="M9066.02,1530.67l-.317-.22Z" transform="translate(-9065.702 -1530.45)"/></g><g transform="translate(19.243 60.1)"><path class="c" d="M9080.1,1539.229c-.041-.023-.088-.045-.131-.069C9080.016,1539.184,9080.063,1539.205,9080.1,1539.229Z" transform="translate(-9079.973 -1539.159)"/></g><g transform="translate(25.171 62.912)"><path class="c" d="M9097.1,1547.233c-.269-.107-.54-.219-.81-.331C9096.558,1547.013,9096.829,1547.125,9097.1,1547.233Z" transform="translate(-9096.288 -1546.902)"/></g><g transform="translate(26.842 63.584)"><path class="c" d="M9101.013,1548.8c-.037-.018-.086-.034-.124-.048C9100.927,1548.765,9100.976,1548.781,9101.013,1548.8Z" transform="translate(-9100.889 -1548.751)"/></g><g transform="translate(27.785 63.942)"><path class="c" d="M9103.587,1549.772c-.037-.012-.07-.025-.1-.035C9103.517,1549.747,9103.55,1549.76,9103.587,1549.772Z" transform="translate(-9103.484 -1549.737)"/></g><g transform="translate(29.731 64.633)"><path class="c" d="M9109.653,1551.912c-.273-.09-.542-.181-.81-.274C9109.111,1551.731,9109.38,1551.822,9109.653,1551.912Z" transform="translate(-9108.844 -1551.638)"/></g><g transform="translate(31.501 65.216)"><path class="c" d="M9113.771,1553.26h0l-.058-.018A.181.181,0,0,1,9113.771,1553.26Z" transform="translate(-9113.717 -1553.243)"/></g><g transform="translate(37.039 66.749)"><path class="c" d="M9129.562,1557.609l-.6-.145Z" transform="translate(-9128.963 -1557.464)"/></g><g transform="translate(38.917 67.18)"><path class="c" d="M9134.235,1558.677c-.033-.01-.069-.016-.106-.028C9134.166,1558.661,9134.2,1558.667,9134.235,1558.677Z" transform="translate(-9134.129 -1558.65)"/></g><g transform="translate(40.332 67.482)"><path class="c" d="M9138.588,1559.591l-.562-.11Z" transform="translate(-9138.026 -1559.481)"/></g><g transform="translate(46.515 68.52)"><path class="c" d="M9155.577,1562.408l-.534-.068Z" transform="translate(-9155.043 -1562.34)"/></g><g transform="translate(47.049 68.589)"><path class="c" d="M9156.672,1562.549c-.053-.008-.105-.013-.158-.021C9156.566,1562.536,9156.619,1562.541,9156.672,1562.549Z" transform="translate(-9156.514 -1562.528)"/></g><g transform="translate(47.208 68.61)"><path class="c" d="M9157.478,1562.651l-.525-.064Z" transform="translate(-9156.952 -1562.587)"/></g><g transform="translate(47.734 68.674)"><path class="c" d="M9158.569,1562.786c-.053-.008-.113-.014-.169-.023C9158.456,1562.771,9158.517,1562.777,9158.569,1562.786Z" transform="translate(-9158.4 -1562.763)"/></g><g transform="translate(48.595 68.775)"><path class="c" d="M9161.313,1563.1l-.54-.061Z" transform="translate(-9160.773 -1563.042)"/></g><g transform="translate(31.426 52.915)"><path class="c" d="M9113.844,1519.556c-.111-.059-.221-.117-.335-.175C9113.623,1519.439,9113.732,1519.5,9113.844,1519.556Z" transform="translate(-9113.509 -1519.381)"/></g><g transform="translate(31.762 53.09)"><path class="c" d="M9114.721,1520.006c-.1-.048-.189-.093-.287-.142C9114.531,1519.913,9114.625,1519.958,9114.721,1520.006Z" transform="translate(-9114.434 -1519.864)"/></g><g transform="translate(35.549 54.83)"><path class="c" d="M9125.2,1524.792l-.345-.141Z" transform="translate(-9124.857 -1524.652)"/></g><g transform="translate(36.88 55.355)"><path class="c" d="M9128.89,1526.234c-.125-.047-.243-.093-.367-.136C9128.646,1526.141,9128.765,1526.188,9128.89,1526.234Z" transform="translate(-9128.522 -1526.098)"/></g><g transform="translate(38.632 55.981)"><path class="c" d="M9133.675,1527.931c-.114-.036-.219-.071-.33-.109C9133.456,1527.859,9133.561,1527.895,9133.675,1527.931Z" transform="translate(-9133.345 -1527.822)"/></g><g transform="translate(38.96 56.09)"><path class="c" d="M9134.622,1528.242c-.124-.037-.249-.081-.375-.12C9134.373,1528.161,9134.5,1528.2,9134.622,1528.242Z" transform="translate(-9134.247 -1528.122)"/></g><g transform="translate(45.116 57.767)"><path class="c" d="M9151.938,1532.894q-.371-.074-.745-.157Q9151.568,1532.821,9151.938,1532.894Z" transform="translate(-9151.193 -1532.738)"/></g><g transform="translate(49.192 58.523)"><path class="c" d="M9162.416,1534.819c1.394.209,2.813.386,4.26.515C9165.229,1535.2,9163.81,1535.028,9162.416,1534.819Z" transform="translate(-9162.416 -1534.819)"/></g><g transform="translate(79.852 86.772)"><path class="b" d="M9271.117,1621.291l-9.2,5.352-15.1-8.715,9.206-5.345Z" transform="translate(-9246.815 -1612.582)"/></g><g transform="translate(103.201 73.206)"><path class="c" d="M9335.379,1583.95l-9.19,5.344-15.1-8.715,9.192-5.341Z" transform="translate(-9311.091 -1575.237)"/></g><g transform="translate(149.896 46.065)"><path class="b" d="M9463.929,1509.24l-9.2,5.35-15.1-8.717,9.2-5.348Z" transform="translate(-9439.629 -1500.526)"/></g><g transform="translate(126.55 59.632)"><path class="c" d="M9399.658,1546.59l-9.2,5.349-15.092-8.717,9.194-5.348Z" transform="translate(-9375.366 -1537.873)"/></g><g transform="translate(28.699 51.342)"><path class="b" d="M9106,1515.052c.15.093.3.188.455.279C9106.3,1515.239,9106.151,1515.145,9106,1515.052Z" transform="translate(-9106.001 -1515.052)"/></g><g transform="translate(27.837 50.78)"><path class="b" d="M9103.629,1513.5c.077.052.153.1.228.154C9103.782,1513.605,9103.706,1513.555,9103.629,1513.5Z" transform="translate(-9103.629 -1513.503)"/></g><g transform="translate(27.439 50.508)"><path class="b" d="M9102.533,1512.756c.129.093.262.181.4.272C9102.795,1512.937,9102.662,1512.849,9102.533,1512.756Z" transform="translate(-9102.533 -1512.756)"/></g><g transform="translate(26.157 49.584)"><path class="b" d="M9099.006,1510.212c.155.116.311.236.476.353C9099.316,1510.448,9099.161,1510.328,9099.006,1510.212Z" transform="translate(-9099.006 -1510.212)"/></g><g transform="translate(26.059 49.507)"><path class="b" d="M9098.733,1510c.031.025.068.049.1.077C9098.8,1510.05,9098.765,1510.026,9098.733,1510Z" transform="translate(-9098.733 -1510.001)"/></g><g transform="translate(24.918 48.594)"><path class="b" d="M9095.592,1507.486q.554.464,1.14.914Q9096.144,1507.951,9095.592,1507.486Z" transform="translate(-9095.592 -1507.486)"/></g><g transform="translate(24.277 48.038)"><path class="b" d="M9093.828,1505.956c.039.03.074.065.111.092C9093.9,1506.021,9093.867,1505.986,9093.828,1505.956Z" transform="translate(-9093.828 -1505.956)"/></g><g transform="translate(19.896 42.917)"><path class="b" d="M9081.768,1491.86c.107.174.224.349.341.525C9081.991,1492.21,9081.875,1492.034,9081.768,1491.86Z" transform="translate(-9081.768 -1491.86)"/></g><g transform="translate(18.268 39.548)"><path class="b" d="M9077.289,1482.584c.065.174.125.345.2.516C9077.414,1482.929,9077.354,1482.758,9077.289,1482.584Z" transform="translate(-9077.289 -1482.584)"/></g><g transform="translate(18.074 38.95)"><path class="b" d="M9076.755,1480.939c.056.183.116.364.176.545C9076.871,1481.3,9076.811,1481.121,9076.755,1480.939Z" transform="translate(-9076.755 -1480.939)"/></g><g transform="translate(17.416 34.657)"><path class="d" d="M9074.945,1469.146c0,.066,0,.136,0,.2,0-.074,0-.151,0-.225A.061.061,0,0,1,9074.945,1469.146Z" transform="translate(-9074.942 -1469.122)"/></g><g transform="translate(17.417 34.681)"><path class="b" d="M9074.946,1469.388c0-.065,0-.135,0-.2v.2Z" transform="translate(-9074.945 -1469.187)"/></g><g transform="translate(17.416 34.335)"><path class="b" d="M9074.942,1468.442c0-.067,0-.138,0-.206,0,.1,0,.206,0,.308v-.047A.345.345,0,0,0,9074.942,1468.442Z" transform="translate(-9074.942 -1468.236)"/></g><g transform="translate(17.462 33.228)"><path class="d" d="M9075.094,1465.2a.228.228,0,0,1-.006.039c-.006.073-.014.145-.02.218.006-.094.018-.186.025-.276Z" transform="translate(-9075.068 -1465.186)"/></g><g transform="translate(17.462 33.285)"><path class="b" d="M9075.088,1465.345c-.006.074-.014.147-.02.22v0C9075.074,1465.49,9075.082,1465.418,9075.088,1465.345Z" transform="translate(-9075.068 -1465.345)"/></g><g transform="translate(17.453 33.573)"><path class="d" d="M9075.045,1466.136v0Z" transform="translate(-9075.045 -1466.136)"/></g><g transform="translate(17.453 33.506)"><path class="b" d="M9075.043,1466.019c0-.024.006-.047.009-.067,0,.032-.007.058-.009.088Z" transform="translate(-9075.043 -1465.952)"/></g><g transform="translate(17.497 32.888)"><path class="d" d="M9075.191,1464.259v.016c-.012.078-.021.154-.027.23.006-.085.016-.169.027-.253C9075.2,1464.254,9075.191,1464.257,9075.191,1464.259Z" transform="translate(-9075.164 -1464.251)"/></g><g transform="translate(17.488 32.911)"><path class="b" d="M9075.175,1464.315c-.014.078-.021.154-.027.23a.058.058,0,0,1-.008.034C9075.151,1464.49,9075.161,1464.4,9075.175,1464.315Z" transform="translate(-9075.14 -1464.315)"/></g><g transform="translate(17.485 33.175)"><path class="b" d="M9075.132,1465.094c0-.016,0-.037,0-.053,0,.023,0,.047,0,.071Z" transform="translate(-9075.132 -1465.041)"/></g><g transform="translate(17.523 32.546)"><path class="b" d="M9075.235,1463.651a0,0,0,0,1,0,.006c.016-.116.028-.229.046-.348C9075.264,1463.422,9075.252,1463.538,9075.235,1463.651Z" transform="translate(-9075.235 -1463.309)"/></g><g transform="translate(17.418 34.936)"><path class="d" d="M9074.949,1469.89v0Z" transform="translate(-9074.949 -1469.89)"/></g><g transform="translate(17.418 34.996)"><path class="d" d="M9074.952,1470.08a.13.13,0,0,1,0-.027c0,.076,0,.156.007.232C9074.957,1470.218,9074.954,1470.149,9074.952,1470.08Z" transform="translate(-9074.95 -1470.053)"/></g><g transform="translate(17.416 34.597)"><path class="d" d="M9074.942,1469v0Z" transform="translate(-9074.942 -1468.955)"/></g><g transform="translate(17.416 34.304)"><path class="d" d="M9074.945,1468.181c0,.068,0,.139,0,.206,0-.08,0-.159,0-.238Z" transform="translate(-9074.942 -1468.149)"/></g><g transform="translate(17.418 34.256)"><path class="d" d="M9074.95,1468.053v.012c0-.016,0-.032,0-.048C9074.95,1468.03,9074.952,1468.044,9074.95,1468.053Z" transform="translate(-9074.95 -1468.016)"/></g><g class="e"><g transform="translate(0.217 0.473)"><path class="c" d="M9044.975,1406.958l-.023.135-17.354-.888c.02-.117.04-.238.061-.357a21.255,21.255,0,0,1,.5-2.24c.055-.189.134-.375.19-.566q.313-1.025.721-2.034c.071-.156.146-.307.207-.461.327-.725.678-1.443,1.072-2.15.041-.077.092-.155.133-.229a30.533,30.533,0,0,1,4.552-5.968c4.712-4.874,11.438-9.043,19.692-12.12.233-.088.474-.172.707-.257.285-.1.563-.2.851-.3.606-.212,1.192-.406,1.784-.6.072-.023.147-.049.219-.072.437-.136.869-.27,1.314-.4.8-.244,1.616-.47,2.453-.694.559-.146,1.116-.3,1.688-.439.056-.013.113-.031.17-.048.168-.046.334-.091.508-.133.853-.2,1.716-.383,2.592-.567.161-.03.32-.071.487-.1.69-.139,1.387-.268,2.08-.387.6-.1,1.206-.207,1.811-.3l.238-.044.273-.049c1.221-.171,2.436-.337,3.658-.482.547-.063,1.095-.12,1.646-.177l2.926,9.949c-1.364.129-2.709.309-4.057.518-.957.154-1.909.317-2.845.5l-.18.039c-.548.112-1.08.234-1.615.359-.284.07-.571.139-.852.206-.4.1-.79.2-1.18.306-.25.068-.5.135-.743.2-.335.093-.672.188-1,.289s-.637.192-.949.293c-.675.217-1.351.445-2,.677-.188.069-.362.133-.539.2-1.444.545-2.836,1.142-4.155,1.78-5.975,2.9-10.521,6.721-13.025,11.049l-.091.163a15.577,15.577,0,0,0-.766,1.523c-.051.108-.1.222-.151.331-.188.465-.353.945-.51,1.423-.035.144-.1.283-.133.425A16.674,16.674,0,0,0,9044.975,1406.958Z" transform="translate(-9027.597 -1375.02)"/></g><g transform="translate(30.686 4.276)"><path class="b" d="M9111.688,1385.515c.032-.008.062-.017.092-.026-.1.032-.208.067-.311.1C9111.542,1385.564,9111.616,1385.538,9111.688,1385.515Z" transform="translate(-9111.47 -1385.489)"/></g><g transform="translate(0.151 32.134)"><path class="c" d="M9027.42,1462.191a.041.041,0,0,0-.006.019.185.185,0,0,0,.006-.035Z" transform="translate(-9027.414 -1462.175)"/></g><g transform="translate(0.101 32.554)"><path class="c" d="M9027.277,1463.41v.006c0-.026.007-.058.011-.084A.736.736,0,0,0,9027.277,1463.41Z" transform="translate(-9027.277 -1463.332)"/></g><g transform="translate(0.11 32.18)"><path class="c" d="M9027.334,1462.369c-.006.046-.009.1-.019.142s-.009.089-.011.13a.164.164,0,0,0,0,.035c.014-.125.026-.249.039-.374C9027.339,1462.324,9027.337,1462.345,9027.334,1462.369Z" transform="translate(-9027.302 -1462.302)"/></g><g transform="translate(0.055 32.686)"><path class="c" d="M9027.174,1463.886c0,.051-.013.1-.014.148a.486.486,0,0,1-.007.086.261.261,0,0,0,0,.036c.01-.153.025-.309.04-.462a.616.616,0,0,0-.006.07C9027.181,1463.807,9027.181,1463.847,9027.174,1463.886Z" transform="translate(-9027.151 -1463.695)"/></g><g transform="translate(0.029 33.152)"><path class="c" d="M9027.1,1465.107a.508.508,0,0,0-.008.071c-.006.067-.008.128-.014.192v.064c.006-.148.018-.3.026-.456C9027.1,1465.022,9027.1,1465.065,9027.1,1465.107Z" transform="translate(-9027.079 -1464.978)"/></g><g transform="translate(17.436 33.613)"><path class="d" d="M9075,1466.489c0-.069.008-.139.012-.212a.1.1,0,0,0,0-.03C9075.009,1466.328,9075,1466.41,9075,1466.489Z" transform="translate(-9074.998 -1466.247)"/></g><g transform="translate(17.436 33.813)"><path class="b" d="M9075,1466.84v.019l0-.061A.187.187,0,0,0,9075,1466.84Z" transform="translate(-9074.998 -1466.799)"/></g><g transform="translate(17.433 33.646)"><path class="b" d="M9074.991,1466.578l.006-.072c0-.058,0-.11.008-.167,0,.1-.014.2-.017.3a.175.175,0,0,1,0-.032Z" transform="translate(-9074.988 -1466.339)"/></g><g transform="translate(17.424 33.947)"><path class="d" d="M9074.974,1467.2c0,.073,0,.139-.008.209,0-.082.008-.167.008-.247Z" transform="translate(-9074.966 -1467.166)"/></g><g transform="translate(17.424 34.034)"><path class="b" d="M9074.966,1467.562v.026l0-.183C9074.97,1467.457,9074.966,1467.51,9074.966,1467.562Z" transform="translate(-9074.966 -1467.405)"/></g><g transform="translate(17.418 33.985)"><path class="b" d="M9074.952,1467.512v.018c0,.024,0,.038,0,.051,0-.106.007-.207.011-.312a.189.189,0,0,1,0,.049Z" transform="translate(-9074.95 -1467.27)"/></g><g transform="translate(17.424 35.143)"><path class="b" d="M9074.966,1470.46a.6.6,0,0,1,0,.084.134.134,0,0,0,0,.038v.077c0-.059,0-.122,0-.181Z" transform="translate(-9074.966 -1470.46)"/></g><g transform="translate(17.421 35.023)"><path class="b" d="M9074.957,1470.129c0,.04,0,.081,0,.12l0,.018C9074.96,1470.22,9074.96,1470.175,9074.957,1470.129Z" transform="translate(-9074.957 -1470.129)"/></g><g transform="translate(17.442 35.482)"><path class="d" d="M9075.018,1471.459a.322.322,0,0,1,0-.068l0,.052Z" transform="translate(-9075.013 -1471.391)"/></g><g transform="translate(17.431 35.275)"><path class="d" d="M9074.992,1471.029c0-.07-.01-.136-.012-.206,0,.025,0,.049,0,.07v.008c0,.058.01.122.013.18Z" transform="translate(-9074.98 -1470.823)"/></g><g transform="translate(0.011 35.22)"><path class="c" d="M9027.034,1470.7a.161.161,0,0,1,0-.029c0,.068.007.136.01.2,0-.058,0-.113-.01-.171Z" transform="translate(-9027.029 -1470.672)"/></g><g transform="translate(0.02 35.423)"><path class="c" d="M9027.062,1471.489c0-.086-.007-.171-.007-.258C9027.055,1471.318,9027.06,1471.4,9027.062,1471.489Z" transform="translate(-9027.055 -1471.231)"/></g><g transform="translate(0.084 36.436)"><path class="c" d="M9027.231,1474.019v.016c0,.036,0,.071.01.1h0Z" transform="translate(-9027.231 -1474.019)"/></g><g transform="translate(0.061 36.15)"><path class="c" d="M9027.165,1473.232v.009l.024.269v.007l.009.118C9027.189,1473.5,9027.177,1473.367,9027.165,1473.232Z" transform="translate(-9027.165 -1473.232)"/></g><g transform="translate(0.215 37.54)"><path class="c" d="M9027.593,1477.092v-.035C9027.592,1477.067,9027.593,1477.08,9027.593,1477.092Z" transform="translate(-9027.592 -1477.057)"/></g><g transform="translate(17.433 35.354)"><path class="b" d="M9075.313,1473.457c.015.045.025.091.041.136a14.19,14.19,0,0,1-.365-2.555c0,.065.006.131.012.2,0,.025,0,.047,0,.07,0,.09.014.176.021.264,0,.026,0,.052.009.08.007.079.011.159.022.24,0,.035.009.073.012.106.009.074.021.144.03.218.006.042.01.089.016.133.011.061.018.118.026.174s.018.12.029.179a1.2,1.2,0,0,0,.025.144c.014.072.024.141.036.211.008.031.014.066.02.1.017.088.035.178.055.267A.088.088,0,0,1,9075.313,1473.457Z" transform="translate(-9074.988 -1471.039)"/></g><g transform="translate(0.58 39.421)"><path class="b" d="M9059.576,1508.065a69.039,69.039,0,0,1-13.848-5.976c-9.406-5.434-15.34-12.413-17.133-19.853,1.849,7.633,8.037,14.569,17.171,19.85A69.082,69.082,0,0,0,9059.576,1508.065Z" transform="translate(-9028.596 -1482.236)"/></g><g transform="translate(0 31.657)"><path class="f" d="M9044.568,1461.752c-.017.113-.03.229-.048.342-.01.084-.019.168-.025.253-.02.176-.028.268-.035.362-.015.162-.019.257-.026.352,0,.149-.007.245-.011.335,0,.16,0,.257-.01.351,0,.151,0,.247,0,.341,0,.15,0,.248.009.346,0,.138.007.23.018.322.008.16.016.245.022.334.017.159.021.239.032.32.02.18.031.25.039.323a1.114,1.114,0,0,0,.02.133c.009.059.017.118.024.174s.018.12.029.179.016.1.024.144c.012.068.025.141.039.211.035.182.053.274.071.363,1.234,5.569,5.663,10.591,12.263,14.4a57.819,57.819,0,0,0,23.441,6.9q1.424.129,2.871.2l-1.472,10.047c-14.56-.747-27.472-4.463-37.1-10.022-12.148-7.018-19.09-16.974-17.53-27.609Z" transform="translate(-9026.999 -1460.864)"/></g><g transform="translate(17.431 35.265)"><path class="b" d="M9074.982,1470.879v0Zm0-.013,0-.069v.031C9074.98,1470.841,9074.982,1470.855,9074.982,1470.865Z" transform="translate(-9074.98 -1470.796)"/></g><g transform="translate(0.029 35.682)"><path class="c" d="M9027.093,1472.14c-.006-.065-.008-.133-.014-.2C9027.085,1472.007,9027.087,1472.075,9027.093,1472.14Z" transform="translate(-9027.079 -1471.942)"/></g><g transform="translate(0.061 36.159)"><path class="c" d="M9027.169,1473.292v.02c.008.071.015.144.021.213l-.024-.27C9027.169,1473.269,9027.165,1473.28,9027.169,1473.292Z" transform="translate(-9027.165 -1473.256)"/></g><g transform="translate(0.16 37.128)"><path class="c" d="M9027.469,1476.154c.006.044.011.087.014.132a.11.11,0,0,1,.012.049c-.02-.138-.04-.275-.054-.412v0l.023.2C9027.464,1476.136,9027.469,1476.145,9027.469,1476.154Z" transform="translate(-9027.44 -1475.923)"/></g><g transform="translate(0.156 37.121)"><path class="c" d="M9027.431,1475.9l0,0v0A.026.026,0,0,0,9027.431,1475.9Z" transform="translate(-9027.431 -1475.903)"/></g><g transform="translate(0.16 37.132)"><path class="c" d="M9027.464,1476.135l-.023-.2a.669.669,0,0,0,.01.081C9027.454,1476.054,9027.456,1476.094,9027.464,1476.135Z" transform="translate(-9027.44 -1475.935)"/></g><g transform="translate(0.217 37.563)"><path class="c" d="M9027.6,1477.169a.087.087,0,0,0,0-.025.164.164,0,0,1,0-.023v.011A.159.159,0,0,1,9027.6,1477.169Z" transform="translate(-9027.597 -1477.121)"/></g><g transform="translate(17.799 37.908)"><path class="b" d="M9075.994,1478.071c.076.341.165.683.265,1.017C9076.159,1478.752,9076.07,1478.412,9075.994,1478.071Z" transform="translate(-9075.994 -1478.071)"/></g><g transform="translate(0.255 37.804)"><path class="b" d="M9028,1479.322q-.183-.766-.3-1.538C9027.781,1478.3,9027.882,1478.814,9028,1479.322Z" transform="translate(-9027.701 -1477.784)"/></g><g transform="translate(0.56 39.342)"><path class="b" d="M9028.542,1482.017a.393.393,0,0,0,.02.079A.393.393,0,0,1,9028.542,1482.017Z" transform="translate(-9028.542 -1482.017)"/></g><g transform="translate(1.334 41.89)"><path class="c" d="M9030.794,1489.354c-.039-.107-.082-.215-.123-.322C9030.712,1489.139,9030.755,1489.247,9030.794,1489.354Z" transform="translate(-9030.671 -1489.032)"/></g><g transform="translate(1.915 43.302)"><path class="c" d="M9032.4,1493.221c-.044-.1-.088-.2-.133-.3C9032.316,1493.019,9032.36,1493.121,9032.4,1493.221Z" transform="translate(-9032.271 -1492.918)"/></g><g transform="translate(2.826 45.128)"><path class="c" d="M9034.935,1498.232c-.052-.1-.108-.192-.157-.287C9034.826,1498.041,9034.883,1498.137,9034.935,1498.232Z" transform="translate(-9034.777 -1497.945)"/></g><g transform="translate(2.985 45.415)"><path class="c" d="M9035.3,1498.881c-.026-.047-.055-.1-.084-.145C9035.246,1498.784,9035.274,1498.835,9035.3,1498.881Z" transform="translate(-9035.217 -1498.736)"/></g><g transform="translate(21.022 44.548)"><path class="b" d="M9084.867,1496.348a23.306,23.306,0,0,0,1.764,2.051A23.306,23.306,0,0,1,9084.867,1496.348Z" transform="translate(-9084.867 -1496.348)"/></g><g transform="translate(3.562 46.383)"><path class="c" d="M9037.062,1501.8c-.09-.132-.175-.267-.256-.4C9036.887,1501.532,9036.972,1501.667,9037.062,1501.8Z" transform="translate(-9036.806 -1501.4)"/></g><g transform="translate(23.355 47.173)"><path class="b" d="M9091.291,1503.576c.129.128.262.255.395.38C9091.553,1503.831,9091.42,1503.7,9091.291,1503.576Z" transform="translate(-9091.291 -1503.576)"/></g><g transform="translate(5.785 49.465)"><path class="c" d="M9043.156,1510.161c-.078-.092-.156-.183-.232-.276C9043,1509.978,9043.078,1510.069,9043.156,1510.161Z" transform="translate(-9042.924 -1509.885)"/></g><g transform="translate(6.104 49.85)"><path class="c" d="M9044.124,1511.315c-.1-.122-.214-.247-.319-.371C9043.91,1511.068,9044.021,1511.193,9044.124,1511.315Z" transform="translate(-9043.805 -1510.944)"/></g><g transform="translate(6.423 50.221)"><path class="c" d="M9044.794,1512.092c-.038-.041-.075-.08-.112-.126C9044.719,1512.012,9044.756,1512.051,9044.794,1512.092Z" transform="translate(-9044.682 -1511.966)"/></g><g transform="translate(27.227 50.362)"><path class="b" d="M9101.95,1512.353c.069.049.139.1.211.146C9102.089,1512.453,9102.02,1512.4,9101.95,1512.353Z" transform="translate(-9101.95 -1512.353)"/></g><g transform="translate(6.536 50.347)"><path class="c" d="M9045.219,1512.57c-.077-.086-.152-.17-.228-.257C9045.066,1512.4,9045.142,1512.484,9045.219,1512.57Z" transform="translate(-9044.991 -1512.313)"/></g><g transform="translate(6.762 50.604)"><path class="c" d="M9045.751,1513.17c-.049-.048-.092-.1-.137-.151C9045.659,1513.07,9045.7,1513.123,9045.751,1513.17Z" transform="translate(-9045.614 -1513.02)"/></g><g transform="translate(7.111 50.987)"><path class="c" d="M9046.711,1514.225c-.047-.049-.093-.1-.138-.151C9046.618,1514.125,9046.664,1514.176,9046.711,1514.225Z" transform="translate(-9046.573 -1514.074)"/></g><g transform="translate(29.966 52.108)"><path class="b" d="M9109.532,1517.185l-.042-.025c.017.007.025.016.042.025Z" transform="translate(-9109.49 -1517.16)"/></g><g transform="translate(29.351 51.74)"><path class="b" d="M9108.456,1516.54l-.045-.025c-.206-.121-.41-.244-.613-.368C9108.017,1516.279,9108.231,1516.411,9108.456,1516.54Z" transform="translate(-9107.798 -1516.147)"/></g><g transform="translate(10.047 53.827)"><path class="c" d="M9054.808,1522.026c-.049-.045-.1-.087-.153-.133C9054.706,1521.94,9054.759,1521.981,9054.808,1522.026Z" transform="translate(-9054.654 -1521.893)"/></g><g transform="translate(10.2 53.961)"><path class="c" d="M9055.342,1522.485c-.089-.074-.176-.151-.264-.225C9055.166,1522.334,9055.253,1522.411,9055.342,1522.485Z" transform="translate(-9055.078 -1522.26)"/></g><g transform="translate(34.573 54.418)"><path class="c" d="M9122.5,1523.66c-.11-.048-.218-.094-.324-.142C9122.278,1523.566,9122.386,1523.612,9122.5,1523.66Z" transform="translate(-9122.172 -1523.518)"/></g><g transform="translate(12.353 55.701)"><path class="c" d="M9061.173,1527.178c-.059-.044-.111-.086-.17-.127C9061.062,1527.092,9061.114,1527.134,9061.173,1527.178Z" transform="translate(-9061.003 -1527.052)"/></g><g transform="translate(12.835 56.06)"><path class="c" d="M9062.47,1528.142l-.14-.1Z" transform="translate(-9062.33 -1528.038)"/></g><g transform="translate(25.724 14.897)"><path class="b" d="M9156.136,1420.521l-2.041,1.188c-12.245-7.069-32.117-7.069-44.294.006s-12.1,18.579.148,25.652,32.109,7.073,44.284,0l2.061,1.189c-13.3,7.733-35.01,7.733-48.4,0s-13.454-20.3-.156-28.036S9142.748,1412.8,9156.136,1420.521Z" transform="translate(-9097.81 -1414.726)"/></g><g transform="translate(40.181 56.479)"><path class="c" d="M9137.615,1529.193a.008.008,0,0,0,.006,0l-.012,0Z" transform="translate(-9137.609 -1529.193)"/></g><g transform="translate(40.048 56.44)"><path class="c" d="M9137.609,1529.194l.071.021.009,0-.446-.135c.042.011.088.029.132.04l.019.005.092.029C9137.528,1529.168,9137.569,1529.183,9137.609,1529.194Z" transform="translate(-9137.243 -1529.084)"/></g><g transform="translate(40.416 56.55)"><path class="c" d="M9138.32,1529.409c-.022-.007-.041-.016-.062-.021l.068.021Z" transform="translate(-9138.259 -1529.388)"/></g><g transform="translate(40.495 56.574)"><path class="c" d="M9139.146,1529.651c-.227-.062-.453-.127-.674-.2C9138.693,1529.523,9138.92,1529.588,9139.146,1529.651Z" transform="translate(-9138.473 -1529.455)"/></g><g transform="translate(14.556 57.275)"><path class="c" d="M9067.392,1531.6c-.105-.072-.218-.144-.325-.217C9067.174,1531.457,9067.286,1531.529,9067.392,1531.6Z" transform="translate(-9067.066 -1531.384)"/></g><g transform="translate(43.541 57.404)"><path class="c" d="M9147.581,1531.913c-.238-.056-.482-.116-.723-.174C9147.1,1531.8,9147.343,1531.857,9147.581,1531.913Z" transform="translate(-9146.858 -1531.739)"/></g><g transform="translate(44.257 57.571)"><path class="b" d="M9148.83,1532.2c.055.012.106.027.167.038Z" transform="translate(-9148.83 -1532.199)"/></g><g transform="translate(14.88 57.492)"><path class="c" d="M9068.123,1532.087c-.054-.038-.106-.071-.162-.107C9068.017,1532.016,9068.069,1532.049,9068.123,1532.087Z" transform="translate(-9067.961 -1531.98)"/></g><g transform="translate(40.477 56.565)"><path class="b" d="M9142.37,1530.472a68.457,68.457,0,0,0,9.03,1.429c.588.052,1.179.1,1.773.139a67.21,67.21,0,0,1-14.75-2.613c1.222.372,2.486.705,3.781,1.007Z" transform="translate(-9138.424 -1529.428)"/></g><g transform="translate(55.34 59.183)"><path class="b" d="M9179.337,1536.636c.329.023.654.042.988.059C9180,1536.678,9179.666,1536.659,9179.337,1536.636Z" transform="translate(-9179.337 -1536.636)"/></g><g transform="translate(18.445 59.663)"><path class="c" d="M9077.9,1538.024c-.045-.023-.08-.047-.121-.067C9077.816,1537.977,9077.852,1538,9077.9,1538.024Z" transform="translate(-9077.775 -1537.957)"/></g><g transform="translate(23.424 62.159)"><path class="c" d="M9092.262,1545.171c-.261-.112-.52-.228-.78-.343C9091.742,1544.944,9092,1545.06,9092.262,1545.171Z" transform="translate(-9091.481 -1544.829)"/></g><g transform="translate(45.821 68.423)"><path class="c" d="M9153.683,1562.147l-.548-.075Z" transform="translate(-9153.135 -1562.072)"/></g><g transform="translate(54.85 52.844)"><path class="c" d="M9223.745,1526.607c-1.556.843-3.187,1.624-4.888,2.354-11.141,4.781-24.935,7.2-38.882,6.751l-.191,0-.454-.017c-.187-.007-.372-.016-.558-.024-.332-.01-.554-.024-.786-.035l1.479-10.047c.18.01.369.017.551.025,10.387.448,20.677-1.33,28.873-4.944,1.051-.465,2.068-.956,3.05-1.479Z" transform="translate(-9177.986 -1519.186)"/></g><g transform="translate(56.837 62.619)"><path class="b" d="M9183.46,1552.846c13.946.445,27.737-1.97,38.878-6.751C9211.116,1550.93,9197.5,1553.3,9183.46,1552.846Z" transform="translate(-9183.46 -1546.095)"/></g><g transform="translate(44.052)"><path class="b" d="M9258.2,1422.751l-10.07-5.813-22.413,13.027,10.071,5.811-1.062.618-10.071-5.811-22.417,13.025,10.069,5.812-1.066.619-10.067-5.813-22.407,13.024,10.064,5.811-1.063.619-11.148-6.434,1.065-.619,22.419-13.019,1.056-.621,10.551-6.125-5.911-3.411c-.329.178-.649.356-.98.532l-11.81-7.421c-.979.523-2,1.014-3.049,1.479.537-.239,1.063-.48,1.582-.735,8.679-4.223,13.993-10.157,14.959-16.707,1.062-7.276-3.455-14.423-12.415-19.6-7.057-4.073-16.405-6.6-26.339-7.1a70.752,70.752,0,0,0-19.485,1.66c.534-.125,1.066-.246,1.614-.358,1.115-.227,2.068-.39,3.024-.544,1.346-.209,2.692-.389,4.058-.518l-2.923-9.945a102.738,102.738,0,0,1,15.185-.341c14,.715,27.191,4.273,37.138,10.016,12.627,7.289,19,17.357,17.492,27.612-1.2,8.154-7.176,15.623-16.973,21.356l5.9,3.406,10.81-6.28,1.059-.623,22.418-13.022,1.058-.622,11.145,6.436Z" transform="translate(-9148.263 -1373.718)"/></g></g></g></svg>