<svg xmlns="http://www.w3.org/2000/svg" width="98.6" height="77.834" viewBox="0 0 98.6 77.834"><defs><style>.a{mix-blend-mode:lighten;isolation:isolate;}.b{fill:#50c5ff;}</style></defs><g class="a" transform="translate(0)"><path class="b" d="M8509.683,294.407l-6.85,3.953-3.356,1.938-6.839,3.948.01,3.86,6.84-3.95.057,20.085,3.358-1.938-.058-20.083,6.847-3.953Z" transform="translate(-8411.092 -294.407)"/><path class="b" d="M8270.745,461.212c1.523.4,3.524-.046,5.636-1.265a18.263,18.263,0,0,0,5.611-5.228,12.414,12.414,0,0,0,2.565-6.841c-.006-2.154-.774-3.444-2.293-3.819-1.354-.351-3.3.068-5.911,1.249l-.157.072c-4.328,2.042-4.331.151-4.332-.557-.008-1.656,1.9-4.151,4.154-5.453s4.171-1.014,4.177.64v.2l3.364-1.943v-.193c-.006-1.874-.879-3.181-2.4-3.583a7.2,7.2,0,0,0-5.155,1.161,16.676,16.676,0,0,0-5.145,4.788,11.641,11.641,0,0,0-2.366,6.329c.007,1.959.707,3.2,2.042,3.6,1.215.364,2.9.033,5.155-1.006l.15-.072c5.339-2.454,5.345-.36,5.347.534,0,1.958-2.2,4.891-4.825,6.4s-4.844,1.143-4.85-.818v-.183l-3.36,1.937v.187C8268.164,459.4,8269.082,460.778,8270.745,461.212Z" transform="translate(-8268.157 -383.519)"/><path class="b" d="M8414.512,387.182l-.067-23.943-3.36,1.941.07,23.943Z" transform="translate(-8359.164 -338.234)"/><path class="b" d="M8326.881,408.921l4.872-20.53,4.973,14.845,4.333-2.5,6.613-27.84-3.528,2.037-5.266,22.174-5.371-16.035-3.544,2.045-5.267,22.178-5.373-16.035-3.527,2.037,6.748,20.13Z" transform="translate(-8298.489 -344.382)"/><path class="b" d="M8439.407,359.3l.567-.328-.029-11.024,11.693-6.754-.011-3.85-11.7,6.754-.017-5.209,13.353-7.708-.012-3.859-13.349,7.708-.618.357-2.738,1.581.065,23.943Z" transform="translate(-8375.38 -315.366)"/></g></svg>