<svg xmlns="http://www.w3.org/2000/svg" width="162.428" height="236.413" viewBox="0 0 162.428 236.413"><defs><style>.a{opacity:0.8;mix-blend-mode:screen;isolation:isolate;}.b{fill:#50c5ff;}.c{fill:#1cf2ec;}.d{fill:#ee4bf7;}</style></defs><g transform="translate(0 0)"><g class="a"><g transform="translate(0 212.366)"><path class="b" d="M7856.841,1470.293l.021,7.273-6.726,3.879-.018-7.273Z" transform="translate(-7850.12 -1470.293)"/></g><g transform="translate(0.035 225.259)"><path class="b" d="M7856.938,1505.784l.021,7.273-6.721,3.88-.022-7.275Z" transform="translate(-7850.215 -1505.784)"/></g><g transform="translate(10.859 115.704)"><path class="b" d="M7886.734,1204.2l.024,7.266-6.728,3.886-.018-7.272Z" transform="translate(-7880.013 -1204.203)"/></g><g transform="translate(10.894 128.596)"><path class="b" d="M7886.836,1239.69l.017,7.269-6.722,3.88-.023-7.269Z" transform="translate(-7880.108 -1239.69)"/></g><g transform="translate(10.932 141.487)"><path class="b" d="M7886.938,1275.178l.021,7.272-6.722,3.879-.024-7.266Z" transform="translate(-7880.212 -1275.178)"/></g><g transform="translate(10.969 154.377)"><path class="b" d="M7887.04,1310.661l.022,7.272-6.728,3.883-.018-7.276Z" transform="translate(-7880.316 -1310.661)"/></g><g transform="translate(11.004 167.271)"><path class="b" d="M7887.136,1346.156l.021,7.269-6.725,3.883-.021-7.271Z" transform="translate(-7880.411 -1346.156)"/></g><g transform="translate(11.042 180.16)"><path class="b" d="M7887.241,1381.636l.016,7.275-6.719,3.882-.021-7.275Z" transform="translate(-7880.516 -1381.636)"/></g><g transform="translate(11.074 193.053)"><path class="b" d="M7887.332,1417.127l.018,7.272-6.723,3.883-.023-7.272Z" transform="translate(-7880.603 -1417.127)"/></g><g transform="translate(11.114 205.946)"><path class="b" d="M7887.443,1452.619l.014,7.277-6.722,3.88-.02-7.276Z" transform="translate(-7880.716 -1452.619)"/></g><g transform="translate(11.149 218.84)"><path class="b" d="M7887.533,1488.114l.025,7.273-6.728,3.882-.02-7.274Z" transform="translate(-7880.811 -1488.114)"/></g><g transform="translate(21.904 83.498)"><path class="b" d="M7917.138,1115.546l.021,7.276-6.726,3.882-.017-7.276Z" transform="translate(-7910.417 -1115.546)"/></g><g transform="translate(21.936 96.391)"><path class="b" d="M7917.233,1151.037l.021,7.269-6.723,3.883-.025-7.27Z" transform="translate(-7910.506 -1151.037)"/></g><g transform="translate(21.973 109.282)"><path class="b" d="M7917.338,1186.524l.016,7.269-6.717,3.882-.029-7.268Z" transform="translate(-7910.607 -1186.524)"/></g><g transform="translate(22.011 122.178)"><path class="b" d="M7917.439,1222.024l.019,7.268-6.723,3.882-.023-7.269Z" transform="translate(-7910.712 -1222.024)"/></g><g transform="translate(22.049 135.071)"><path class="b" d="M7917.541,1257.515l.023,7.267-6.729,3.88-.021-7.266Z" transform="translate(-7910.815 -1257.515)"/></g><g transform="translate(22.081 147.957)"><path class="b" d="M7917.633,1292.987l.023,7.273-6.725,3.884-.026-7.273Z" transform="translate(-7910.905 -1292.987)"/></g><g transform="translate(22.121 160.851)"><path class="b" d="M7917.737,1328.483l.026,7.272-6.724,3.884-.024-7.275Z" transform="translate(-7911.016 -1328.483)"/></g><g transform="translate(22.157 173.742)"><path class="b" d="M7917.836,1363.969l.023,7.275-6.725,3.881-.022-7.275Z" transform="translate(-7911.112 -1363.969)"/></g><g transform="translate(22.197 186.635)"><path class="b" d="M7917.948,1399.461l.014,7.272-6.722,3.889-.018-7.279Z" transform="translate(-7911.223 -1399.461)"/></g><g transform="translate(22.235 199.528)"><path class="b" d="M7918.043,1434.953l.026,7.271-6.725,3.882-.017-7.27Z" transform="translate(-7911.328 -1434.953)"/></g><g transform="translate(22.267 212.421)"><path class="b" d="M7918.146,1470.444l.014,7.275-6.728,3.882-.019-7.278Z" transform="translate(-7911.414 -1470.444)"/></g><g transform="translate(33.201 141.536)"><path class="b" d="M7948.245,1275.313l.019,7.275-6.725,3.884-.023-7.277Z" transform="translate(-7941.516 -1275.313)"/></g><g transform="translate(33.242 154.429)"><path class="b" d="M7948.346,1310.8l.023,7.273-6.724,3.885-.018-7.275Z" transform="translate(-7941.627 -1310.805)"/></g><g transform="translate(33.277 167.319)"><path class="b" d="M7948.444,1346.288l.026,7.278-6.727,3.883-.02-7.275Z" transform="translate(-7941.723 -1346.288)"/></g><g transform="translate(33.317 180.214)"><path class="b" d="M7948.557,1381.783l.021,7.275-6.727,3.886-.017-7.275Z" transform="translate(-7941.835 -1381.783)"/></g><g transform="translate(33.349 193.11)"><path class="b" d="M7948.647,1417.283l.024,7.272-6.724,3.883-.025-7.275Z" transform="translate(-7941.922 -1417.283)"/></g><g transform="translate(33.384 206.001)"><path class="b" d="M7948.747,1452.77l.023,7.275-6.729,3.882-.022-7.275Z" transform="translate(-7942.019 -1452.77)"/></g><g transform="translate(44.47 186.689)"><path class="b" d="M7979.256,1399.609l.025,7.275-6.725,3.882-.021-7.273Z" transform="translate(-7972.535 -1399.609)"/></g><g transform="translate(44.507 199.583)"><path class="b" d="M7979.364,1435.1l.02,7.27-6.728,3.885-.018-7.275Z" transform="translate(-7972.638 -1435.104)"/></g><g transform="translate(55.59 180.273)"><path class="b" d="M8009.865,1381.947l.018,7.274-6.722,3.878-.014-7.275Z" transform="translate(-8003.146 -1381.947)"/></g><g transform="translate(55.624 193.166)"><path class="b" d="M8009.961,1417.439l.021,7.272-6.719,3.88-.021-7.272Z" transform="translate(-8003.241 -1417.439)"/></g><g transform="translate(66.591 135.174)"><path class="b" d="M8040.155,1257.8l.023,7.275-6.727,3.887-.021-7.279Z" transform="translate(-8033.43 -1257.799)"/></g><g transform="translate(66.629 148.07)"><path class="b" d="M8040.261,1293.3l.019,7.273-6.724,3.88-.021-7.272Z" transform="translate(-8033.535 -1293.299)"/></g><g transform="translate(66.664 160.96)"><path class="b" d="M8040.355,1328.782l.022,7.276-6.724,3.879-.024-7.27Z" transform="translate(-8033.629 -1328.782)"/></g><g transform="translate(66.701 173.856)"><path class="b" d="M8040.46,1364.281l.02,7.274-6.722,3.879-.023-7.273Z" transform="translate(-8033.734 -1364.281)"/></g><g transform="translate(66.736 186.747)"><path class="b" d="M8040.556,1399.769l.019,7.269-6.722,3.886-.021-7.275Z" transform="translate(-8033.831 -1399.769)"/></g><g transform="translate(77.601 90.084)"><path class="b" d="M8070.46,1133.675l.021,7.266-6.724,3.885-.018-7.269Z" transform="translate(-8063.739 -1133.675)"/></g><g transform="translate(77.636 102.976)"><path class="b" d="M8070.562,1169.166l.018,7.267-6.719,3.882-.026-7.271Z" transform="translate(-8063.834 -1169.166)"/></g><g transform="translate(77.671 115.866)"><path class="b" d="M8070.659,1204.649l.019,7.267-6.72,3.882-.027-7.274Z" transform="translate(-8063.93 -1204.649)"/></g><g transform="translate(77.706 128.758)"><path class="b" d="M8070.757,1240.138l.02,7.269-6.724,3.883-.026-7.272Z" transform="translate(-8064.027 -1240.138)"/></g><g transform="translate(77.749 141.648)"><path class="b" d="M8070.864,1275.621l.021,7.275-6.723,3.882-.017-7.273Z" transform="translate(-8064.146 -1275.621)"/></g><g transform="translate(77.784 154.542)"><path class="b" d="M8070.964,1311.116l.024,7.272-6.727,3.88-.019-7.27Z" transform="translate(-8064.243 -1311.116)"/></g><g transform="translate(77.825 167.435)"><path class="b" d="M8071.073,1346.608l.023,7.273-6.725,3.882-.019-7.275Z" transform="translate(-8064.354 -1346.608)"/></g><g transform="translate(77.857 180.327)"><path class="b" d="M8071.164,1382.095l.024,7.275-6.723,3.883-.024-7.275Z" transform="translate(-8064.441 -1382.095)"/></g><g transform="translate(88.646 57.877)"><path class="b" d="M8100.868,1045.019l.02,7.269-6.722,3.883-.023-7.269Z" transform="translate(-8094.142 -1045.019)"/></g><g transform="translate(88.686 70.772)"><path class="b" d="M8100.976,1080.514l.022,7.269-6.732,3.882-.012-7.27Z" transform="translate(-8094.254 -1080.514)"/></g><g transform="translate(88.718 83.663)"><path class="b" d="M8101.067,1116l.024,7.269-6.729,3.885-.02-7.272Z" transform="translate(-8094.343 -1116.001)"/></g><g transform="translate(88.756 96.556)"><path class="b" d="M8101.171,1151.492l.018,7.269-6.721,3.883-.021-7.268Z" transform="translate(-8094.447 -1151.492)"/></g><g transform="translate(88.797 109.443)"><path class="b" d="M8101.281,1186.968l.021,7.276-6.726,3.879-.019-7.272Z" transform="translate(-8094.558 -1186.968)"/></g><g transform="translate(88.832 122.339)"><path class="b" d="M8101.378,1222.468l.018,7.273-6.724,3.88-.018-7.271Z" transform="translate(-8094.655 -1222.468)"/></g><g transform="translate(88.866 135.231)"><path class="b" d="M8101.474,1257.955l.017,7.272-6.724,3.883-.019-7.274Z" transform="translate(-8094.748 -1257.955)"/></g><g transform="translate(88.901 148.125)"><path class="b" d="M8101.571,1293.45l.021,7.269-6.727,3.883-.02-7.271Z" transform="translate(-8094.845 -1293.45)"/></g><g transform="translate(88.936 161.015)"><path class="b" d="M8101.672,1328.934l.014,7.276-6.721,3.88-.022-7.275Z" transform="translate(-8094.942 -1328.934)"/></g><g transform="translate(88.977 173.906)"><path class="b" d="M8101.776,1364.421l.021,7.275-6.728,3.881-.016-7.273Z" transform="translate(-8095.054 -1364.421)"/></g><g transform="translate(99.978 128.812)"><path class="c" d="M8132.068,1240.285l.021,7.275-6.724,3.877-.027-7.269Z" transform="translate(-8125.339 -1240.285)"/></g><g transform="translate(100.016 141.705)"><path class="b" d="M8132.172,1275.776l.021,7.27-6.73,3.882-.02-7.269Z" transform="translate(-8125.443 -1275.776)"/></g><g transform="translate(100.056 154.596)"><path class="b" d="M8132.281,1311.264l.014,7.274-6.723,3.885-.019-7.274Z" transform="translate(-8125.553 -1311.264)"/></g><g transform="translate(100.094 167.489)"><path class="b" d="M8132.378,1346.755l.021,7.275-6.725,3.88-.018-7.275Z" transform="translate(-8125.656 -1346.755)"/></g><g transform="translate(111.174 148.18)"><path class="b" d="M8162.88,1293.6l.017,7.273-6.719,3.88-.022-7.274Z" transform="translate(-8156.156 -1293.603)"/></g><g transform="translate(111.209 161.07)"><path class="b" d="M8162.978,1329.086l.015,7.275-6.717,3.88-.021-7.275Z" transform="translate(-8156.254 -1329.086)"/></g><g transform="translate(122.219 115.975)"><path class="b" d="M8193.281,1204.949l.019,7.272-6.721,3.882-.018-7.272Z" transform="translate(-8186.561 -1204.949)"/></g><g transform="translate(122.25 128.868)"><path class="b" d="M8193.371,1240.44l.024,7.275-6.725,3.88-.021-7.275Z" transform="translate(-8186.65 -1240.44)"/></g><g transform="translate(122.285 141.758)"><path class="b" d="M8193.476,1275.924l.022,7.275-6.731,3.882-.022-7.273Z" transform="translate(-8186.745 -1275.924)"/></g><g transform="translate(122.32 154.653)"><path class="b" d="M8193.567,1311.42l.024,7.275-6.727,3.883-.025-7.277Z" transform="translate(-8186.84 -1311.42)"/></g><g transform="translate(133.226 70.885)"><path class="b" d="M8223.583,1080.825l.023,7.266-6.724,3.883-.021-7.269Z" transform="translate(-8216.862 -1080.825)"/></g><g transform="translate(133.261 83.769)"><path class="b" d="M8223.683,1116.293l.02,7.273-6.723,3.887-.022-7.276Z" transform="translate(-8216.957 -1116.293)"/></g><g transform="translate(133.298 96.662)"><path class="b" d="M8223.786,1151.784l.022,7.273-6.725,3.886-.022-7.275Z" transform="translate(-8217.062 -1151.784)"/></g><g transform="translate(133.336 109.556)"><path class="b" d="M8223.886,1187.279l.017,7.274-6.721,3.879-.02-7.268Z" transform="translate(-8217.162 -1187.279)"/></g><g transform="translate(133.374 122.446)"><path class="b" d="M8223.993,1222.763l.019,7.276-6.726,3.882-.017-7.276Z" transform="translate(-8217.27 -1222.763)"/></g><g transform="translate(133.409 135.34)"><path class="b" d="M8224.091,1258.255l.019,7.276-6.726,3.879-.019-7.273Z" transform="translate(-8217.365 -1258.255)"/></g><g transform="translate(133.441 148.231)"><path class="b" d="M8224.181,1293.742l.019,7.274-6.722,3.88-.024-7.273Z" transform="translate(-8217.453 -1293.742)"/></g><g transform="translate(144.195 12.89)"><path class="b" d="M8253.778,921.178l.025,7.278-6.727,3.883-.021-7.278Z" transform="translate(-8247.057 -921.178)"/></g><g transform="translate(144.233 25.783)"><path class="b" d="M8253.89,956.669l.016,7.272-6.724,3.882-.02-7.271Z" transform="translate(-8247.162 -956.669)"/></g><g transform="translate(144.271 38.677)"><path class="b" d="M8253.985,992.164l.024,7.269-6.727,3.883-.018-7.27Z" transform="translate(-8247.266 -992.164)"/></g><g transform="translate(144.306 51.57)"><path class="b" d="M8254.084,1027.656l.021,7.27-6.721,3.882-.021-7.27Z" transform="translate(-8247.362 -1027.656)"/></g><g transform="translate(144.343 64.463)"><path class="b" d="M8254.188,1063.148l.021,7.269-6.725,3.883-.018-7.269Z" transform="translate(-8247.466 -1063.148)"/></g><g transform="translate(144.375 77.35)"><path class="b" d="M8254.277,1098.623l.027,7.273-6.729,3.885-.023-7.275Z" transform="translate(-8247.553 -1098.623)"/></g><g transform="translate(144.416 90.245)"><path class="b" d="M8254.39,1134.118l.017,7.272-6.718,3.884-.023-7.275Z" transform="translate(-8247.665 -1134.118)"/></g><g transform="translate(144.454 103.136)"><path class="b" d="M8254.493,1169.605l.021,7.272-6.725,3.885-.021-7.273Z" transform="translate(-8247.768 -1169.605)"/></g><g transform="translate(144.488 116.027)"><path class="b" d="M8254.59,1205.093l.022,7.276-6.728,3.883-.021-7.274Z" transform="translate(-8247.864 -1205.093)"/></g><g transform="translate(144.523 128.922)"><path class="b" d="M8254.685,1240.589l.022,7.274-6.728,3.878-.021-7.269Z" transform="translate(-8247.958 -1240.589)"/></g><g transform="translate(144.563 141.816)"><path class="b" d="M8254.795,1276.084l.017,7.275-6.719,3.879-.021-7.273Z" transform="translate(-8248.071 -1276.084)"/></g><g transform="translate(10.821 102.811)"><path class="d" d="M7886.631,1168.711l.02,7.266-6.719,3.884-.021-7.269Z" transform="translate(-7879.91 -1168.711)"/></g><g transform="translate(21.866 70.606)"><path class="d" d="M7917.035,1080.059l.023,7.276-6.723,3.88-.022-7.276Z" transform="translate(-7910.313 -1080.059)"/></g><g transform="translate(33.169 128.649)"><path class="d" d="M7948.149,1239.838l.021,7.269-6.725,3.883-.017-7.27Z" transform="translate(-7941.428 -1239.838)"/></g><g transform="translate(44.429 173.798)"><path class="d" d="M7979.148,1364.122l.023,7.273-6.724,3.88-.024-7.272Z" transform="translate(-7972.423 -1364.122)"/></g><g transform="translate(66.553 122.281)"><path class="d" d="M8040.052,1222.308l.023,7.275-6.724,3.884-.025-7.278Z" transform="translate(-8033.326 -1222.308)"/></g><g transform="translate(77.566 77.191)"><path class="d" d="M8070.365,1098.184l.018,7.267-6.723,3.879-.017-7.266Z" transform="translate(-8063.643 -1098.184)"/></g><g transform="translate(88.605 44.985)"><path class="d" d="M8100.759,1009.527l.023,7.275-6.727,3.883-.023-7.276Z" transform="translate(-8094.033 -1009.527)"/></g><g transform="translate(99.946 115.916)"><path class="d" d="M8131.971,1204.786l.025,7.276-6.728,3.882-.02-7.273Z" transform="translate(-8125.25 -1204.786)"/></g><g transform="translate(122.181 103.081)"><path class="d" d="M8193.186,1169.454l.015,7.275-6.725,3.88-.019-7.272Z" transform="translate(-8186.457 -1169.454)"/></g><g transform="translate(133.185 57.986)"><path class="d" d="M8223.475,1045.317l.026,7.272-6.727,3.882-.024-7.269Z" transform="translate(-8216.75 -1045.317)"/></g><g transform="translate(144.163)"><path class="d" d="M8253.69,885.694l.02,7.278-6.727,3.879-.014-7.274Z" transform="translate(-8246.97 -885.694)"/></g><g transform="translate(155.571 96.717)"><path class="d" d="M8285.1,1151.935l.022,7.274-6.726,3.883-.02-7.273Z" transform="translate(-8278.373 -1151.935)"/></g><g transform="translate(155.606 109.607)"><path class="b" d="M8285.194,1187.419l.022,7.275-6.724,3.885-.024-7.273Z" transform="translate(-8278.469 -1187.419)"/></g><g transform="translate(155.643 122.503)"><path class="b" d="M8285.3,1222.919l.018,7.272-6.721,3.887-.025-7.278Z" transform="translate(-8278.57 -1222.919)"/></g><g transform="translate(155.681 135.393)"><path class="b" d="M8285.4,1258.4l.023,7.276-6.726,3.879-.021-7.272Z" transform="translate(-8278.676 -1258.402)"/></g></g></g></svg>