<svg xmlns="http://www.w3.org/2000/svg" width="289.166" height="329.395" viewBox="0 0 289.166 329.395"><defs><style>.a,.d,.e{mix-blend-mode:screen;isolation:isolate;}.b{fill:#fff;}.c{fill:#7bb7ff;}.d,.f{fill:#ff57b3;}.e{fill:#22a1ff;}</style></defs><g class="a" transform="translate(0)"><path class="b" d="M7821.619,1061.356l0,.323.5-.285v-.323Z" transform="translate(-7821.326 -755.841)"/><path class="b" d="M7820.818,1062.026v.315l.289-.164,0-.323Z" transform="translate(-7820.818 -756.339)"/><g transform="translate(274.491 160.565)"><path class="c" d="M8576.433,671.235l0,4.088,14.671-8.4,0-4.085Z" transform="translate(-8576.433 -662.839)"/></g><g transform="translate(206.171 199.649)"><path class="c" d="M8388.36,778.819v4.094l14.679-8.4,0-4.086Z" transform="translate(-8388.36 -770.427)"/></g><g transform="translate(137.85 238.738)"><path class="c" d="M8200.29,886.423l0,4.1,14.684-8.4-.019-4.091Z" transform="translate(-8200.29 -878.031)"/></g><g transform="translate(69.53 277.818)"><path class="c" d="M8012.219,994.013l.006,4.089,14.681-8.392-.013-4.1Z" transform="translate(-8012.219 -985.611)"/></g><g transform="translate(1.218 316.909)"><path class="c" d="M7824.172,1101.617l.006,4.088,14.667-8.389-.005-4.1Z" transform="translate(-7824.172 -1093.22)"/></g><path class="c" d="M8592.068,377.877l1.381-.017.318-157.023-1.385.022Z" transform="translate(-8311.898 -220.837)"/><path class="c" d="M8403.719,484.618l1.382-.02.318-157.018-1.387.022Z" transform="translate(-8191.969 -288.803)"/><path class="c" d="M8215.367,590.872l1.384-.024.318-157.976-1.388.023Z" transform="translate(-8072.039 -355.846)"/><path class="c" d="M8027.034,696.932l1.383-.02.316-158.736-1.389.022Z" transform="translate(-7952.123 -422.897)"/><path class="c" d="M7840.536,806.06l1.387-.022.313-157.011-1.386.022Z" transform="translate(-7833.373 -493.479)"/><g transform="translate(6.525 41.565)"><path class="d" d="M7873.881,535.213q8.5-.133,17.587-5.328c18.324-10.485,35.882-34.855,50.652-57.319,2.951-4.466,5.78-8.869,8.518-13.13,10.825-16.807,20.179-31.325,26.468-34.929,9.2-5.1,15.052,1.687,22.458,10.27,9.847,11.4,22.1,25.6,46.99,11.606,40.642-23.25,65.415-100.93,68.106-109.707a1.1,1.1,0,0,0-.771-1.377,1.184,1.184,0,0,0-1.439.775c-2.663,8.7-27.181,85.6-67.038,108.4-23.189,13.035-34.282.2-44.063-11.138-7.447-8.628-14.489-16.772-25.377-10.749-6.806,3.9-15.84,17.929-27.282,35.7-2.744,4.25-5.577,8.651-8.505,13.115-14.62,22.229-31.983,46.342-49.87,56.575-18.648,10.669-34.8,4.468-49.389-18.973a1.164,1.164,0,0,0-1.578-.357,1.089,1.089,0,0,0-.4,1.528C7849.441,527.034,7861.139,535.4,7873.881,535.213Z" transform="translate(-7838.779 -335.257)"/></g><path class="e" d="M7839.928,634.414a1.192,1.192,0,0,0,.943-.483c4.5-6.229,9.4-17.407,15.075-30.351,11.736-26.8,27.812-63.493,50.582-76.518.693-.4,1.4-.772,2.082-1.118,21-10.508,34.855,3.1,48.256,16.267,9.31,9.146,18.86,18.512,30.445,18.34a24.9,24.9,0,0,0,12.15-3.617c7.478-4.266,15.291-12.31,23.877-24.571,14.317-20.433,28.794-34.92,43.024-43.061,27.811-15.915,44.6-2.98,46.417-1.452a1.177,1.177,0,0,0,1.623-.125,1.073,1.073,0,0,0-.1-1.569c-1.943-1.635-19.883-15.483-49.1,1.226-14.523,8.319-29.253,23.038-43.766,43.754-8.393,11.973-15.958,19.789-23.129,23.894-15.875,9.085-27.484-2.322-39.778-14.391-13.335-13.1-28.439-27.936-50.958-16.673-.718.368-1.465.766-2.2,1.188-23.439,13.408-39.023,48.99-51.552,77.59-5.628,12.826-10.474,23.9-14.839,29.924a1.089,1.089,0,0,0,.278,1.555A1.191,1.191,0,0,0,7839.928,634.414Z" transform="translate(-7832.249 -385.357)"/><path class="e" d="M7831.816,888.49c-1.845,3.119-1.845,6.455,0,7.446s4.83-.718,6.675-3.833,1.833-6.452-.014-7.443S7833.65,885.384,7831.816,888.49Z" transform="translate(-7826.94 -643.332)"/><path class="f" d="M8004.883,579.391c-3.72,6.294-3.7,13.025.008,15.03,3.725,2.009,9.753-1.46,13.47-7.751s3.711-13.013,0-15.025C8014.631,569.636,8008.6,573.1,8004.883,579.391Z" transform="translate(-7936.245 -443.844)"/><path class="e" d="M8582.73,487.921c-1.838,3.116-1.826,6.45.016,7.444s4.825-.725,6.671-3.843,1.838-6.446-.013-7.446S8584.576,484.806,8582.73,487.921Z" transform="translate(-8305.079 -388.272)"/><path class="d" d="M8582.967,328.743c-1.84,3.113-1.831,6.448.01,7.446s4.829-.73,6.674-3.84,1.837-6.451-.013-7.447S8584.812,325.632,8582.967,328.743Z" transform="translate(-8305.226 -286.92)"/><path class="e" d="M8394.253,536.779c-1.844,3.119-1.844,6.452,0,7.45s4.833-.724,6.675-3.846,1.841-6.445,0-7.436S8396.091,533.669,8394.253,536.779Z" transform="translate(-8185.061 -419.387)"/><path class="e" d="M8205.646,680.048c-1.846,3.108-1.84,6.444,0,7.446s4.83-.729,6.673-3.841,1.843-6.45-.006-7.444S8207.478,676.928,8205.646,680.048Z" transform="translate(-8064.969 -510.607)"/><path class="d" d="M8394.387,627.742c-1.84,3.114-1.84,6.448.012,7.445s4.827-.727,6.665-3.834,1.841-6.454,0-7.446S8396.233,624.624,8394.387,627.742Z" transform="translate(-8185.148 -477.303)"/><path class="d" d="M7830.011,802.854c-1.835,3.121-1.835,6.448.015,7.45s4.831-.731,6.673-3.843,1.83-6.443,0-7.44S7831.86,799.74,7830.011,802.854Z" transform="translate(-7825.796 -588.805)"/><path class="d" d="M8019.773,817.7c-1.838,3.123-1.833,6.451.006,7.443s4.833-.723,6.673-3.834,1.842-6.446,0-7.446S8021.617,814.575,8019.773,817.7Z" transform="translate(-7946.622 -598.252)"/></g></svg>