<svg xmlns="http://www.w3.org/2000/svg" width="259.108" height="227.232" viewBox="0 0 259.108 227.232"><defs><style>.a{opacity:0.8;}.b{isolation:isolate;}.c{fill:#ee4bf7;}.d{fill:#50c5ff;}.e{fill:#1cf2ec;}</style></defs><g class="a" transform="translate(0 0)"><g class="b" transform="translate(63.411)"><g transform="translate(168.864 62.451)"><path class="c" d="M7700.09,979.974l.018,5.987-4.732,2.732-1.532.881-.017-5.985Z" transform="translate(-7693.826 -979.974)"/></g><g transform="translate(184.06 30.964)"><path class="c" d="M7744.429,893.3l.014,5.987-7.184,4.149-1.583.911-.018-5.982Z" transform="translate(-7735.658 -893.297)"/></g><g transform="translate(141.596 75.848)"><path class="c" d="M7647.51,1016.851l.017,5.985-24.335,14.045-4.418,2.55-.011-5.986Z" transform="translate(-7618.762 -1016.851)"/></g><g transform="translate(118.554 106.158)"><path class="c" d="M7573.043,1100.288l.011,5.984L7557,1115.542l-1.644.949-.02-5.986Z" transform="translate(-7555.334 -1100.288)"/></g><g transform="translate(147.314 18.685)"><path class="c" d="M7682.87,859.5l.017,5.985-40.338,23.289-8.031,4.635-.015-5.985Z" transform="translate(-7634.503 -859.495)"/></g><g transform="translate(123.957 45.742)"><path class="c" d="M7631.9,933.976l.014,5.985-56.89,32.847-4.807,2.774-.011-5.988Z" transform="translate(-7570.207 -933.976)"/></g><g transform="translate(0.122 42.955)"><path class="d" d="M7364.421,926.3l.018,5.987,6.608-3.812-141.72,81.82-.012-5.985Z" transform="translate(-7229.316 -926.305)"/></g><g transform="translate(135.227 28.597)"><path class="c" d="M7626.108,886.78l.012,5.985-18.262,10.547-6.608,3.812-.019-5.987Z" transform="translate(-7601.231 -886.78)"/></g><g transform="translate(137.731 4.942)"><path class="c" d="M7653.043,821.663l.017,5.99-41.348,23.87-3.577,2.069-.012-5.991Z" transform="translate(-7608.124 -821.663)"/></g><g transform="translate(122.755 21.234)"><path class="c" d="M7580.167,866.511l.015,5.987-10.77,6.219-2.494,1.441-.018-5.991Z" transform="translate(-7566.899 -866.511)"/></g><g transform="translate(127.412 2.852)"><path class="c" d="M7601.743,815.909l.017,5.99-19.515,11.268-2.511,1.448-.017-5.988Z" transform="translate(-7579.717 -815.909)"/></g><g transform="translate(114.165)"><path class="c" d="M7565.044,808.059l.018,5.99-20.091,11.6-1.7.98-.018-5.985Z" transform="translate(-7543.251 -808.059)"/></g><g transform="translate(0.299 116.374)"><path class="d" d="M7348.058,1128.412l.021,5.987,1.642-.949-119.9,69.225-.018-5.985Z" transform="translate(-7229.802 -1128.412)"/></g><g transform="translate(0.27 92.442)"><path class="e" d="M7371.047,1062.532l.013,5.985,4.419-2.55-145.742,84.146-.015-5.987Z" transform="translate(-7229.722 -1062.532)"/></g><g transform="translate(0.238 66.064)"><path class="d" d="M7398.26,989.92l.018,5.986,1.532-.88-170.158,98.239-.018-5.987Z" transform="translate(-7229.634 -989.92)"/></g><g transform="translate(0.209 81.36)"><path class="d" d="M7353.3,1032.024l.012,5.988,4.808-2.774-128.546,74.216-.021-5.981Z" transform="translate(-7229.554 -1032.024)"/></g><g transform="translate(0.177 36.029)"><path class="e" d="M7413.35,907.237l.017,5.982,1.584-.911-185.465,107.078-.019-5.984Z" transform="translate(-7229.466 -907.237)"/></g><g transform="translate(0.151 46.609)"><path class="d" d="M7376.557,936.364l.016,5.985,8.03-4.635-155.194,89.6-.014-5.987Z" transform="translate(-7229.395 -936.364)"/></g><g transform="translate(0.087 30.879)"><path class="d" d="M7366.864,893.061l.011,5.991,3.578-2.069L7229.24,978.516l-.02-5.989Z" transform="translate(-7229.22 -893.061)"/></g><g transform="translate(0.058 28.889)"><path class="d" d="M7351.837,887.583l.017,5.991,2.5-1.441-125.192,72.279-.017-5.99Z" transform="translate(-7229.139 -887.583)"/></g><g transform="translate(0.026 15.569)"><path class="d" d="M7356.438,850.918l.017,5.988,2.51-1.448-129.892,74.993-.021-5.991Z" transform="translate(-7229.051 -850.918)"/></g><g transform="translate(0 12.587)"><path class="d" d="M7343.145,842.708l.017,5.985,1.7-.981-115.871,66.9-.014-5.986Z" transform="translate(-7228.98 -842.708)"/></g></g><g transform="translate(63.379 58.996)"><path class="d" d="M7244.286,970.462l.021,5.989-15.4,8.887-.018-5.988Z" transform="translate(-7228.892 -970.462)"/></g><g transform="translate(0 100.439)"><path class="d" d="M7061.414,1084.547l.017,5.987-6.99,4.038-.017-5.989Z" transform="translate(-7054.423 -1084.547)"/></g><g transform="translate(0.028 111.053)"><path class="d" d="M7061.493,1113.765l.013,5.99-6.986,4.034-.02-5.986Z" transform="translate(-7054.5 -1113.765)"/></g><g transform="translate(0.06 121.67)"><path class="d" d="M7061.581,1142.991l.014,5.983-6.99,4.04-.017-5.99Z" transform="translate(-7054.588 -1142.991)"/></g><g transform="translate(0.09 132.282)"><path class="d" d="M7061.663,1172.2l.016,5.994-6.987,4.036-.021-5.987Z" transform="translate(-7054.67 -1172.201)"/></g><g transform="translate(0.119 142.901)"><path class="d" d="M7061.744,1201.436l.017,5.989-6.992,4.036-.017-5.99Z" transform="translate(-7054.751 -1201.436)"/></g><g transform="translate(0.151 153.518)"><path class="d" d="M7061.831,1230.661l.016,5.987-6.993,4.037-.015-5.99Z" transform="translate(-7054.838 -1230.661)"/></g><g transform="translate(0.178 164.131)"><path class="d" d="M7061.909,1259.876l.016,5.986-6.992,4.036-.02-5.986Z" transform="translate(-7054.913 -1259.876)"/></g><g transform="translate(0.21 174.748)"><path class="d" d="M7061.994,1289.1l.017,5.984-6.99,4.039-.017-5.99Z" transform="translate(-7055.004 -1289.102)"/></g><g transform="translate(0.238 185.365)"><path class="d" d="M7062.071,1318.328l.018,5.982-6.99,4.037-.02-5.984Z" transform="translate(-7055.08 -1318.328)"/></g><g transform="translate(0.27 195.977)"><path class="d" d="M7062.162,1347.542l.014,5.986-6.992,4.037-.018-5.985Z" transform="translate(-7055.166 -1347.542)"/></g><g transform="translate(0.302 206.593)"><path class="d" d="M7062.244,1376.764l.019,5.983-6.995,4.041-.014-5.985Z" transform="translate(-7055.254 -1376.764)"/></g><g transform="translate(0.332 217.207)"><path class="d" d="M7062.33,1405.982l.017,5.987-6.991,4.039-.017-5.985Z" transform="translate(-7055.338 -1405.982)"/></g><g transform="translate(18.917 148.595)"><path class="c" d="M7121.661,1217.109l.015,5.988-15.158,8.753-.019-5.985Z" transform="translate(-7106.499 -1217.109)"/></g><g transform="translate(18.891 137.982)"><path class="c" d="M7121.582,1187.894l.015,5.99-15.155,8.751-.016-5.988Z" transform="translate(-7106.426 -1187.894)"/></g><g transform="translate(18.858 127.37)"><path class="c" d="M7121.491,1158.68l.023,5.984-15.162,8.753-.017-5.985Z" transform="translate(-7106.335 -1158.68)"/></g><g transform="translate(18.829 116.754)"><path class="c" d="M7121.414,1129.458l.021,5.987-15.164,8.753-.016-5.991Z" transform="translate(-7106.255 -1129.458)"/></g><g transform="translate(18.797 106.134)"><path class="c" d="M7121.327,1100.224l.018,5.992-15.157,8.75-.019-5.99Z" transform="translate(-7106.168 -1100.224)"/></g><g transform="translate(18.767 95.52)"><path class="c" d="M7121.245,1071.006l.015,5.988-15.158,8.753-.018-5.988Z" transform="translate(-7106.084 -1071.006)"/></g><g transform="translate(18.736 84.905)"><path class="c" d="M7121.158,1041.784l.02,5.988-15.16,8.753-.019-5.988Z" transform="translate(-7105.999 -1041.784)"/></g><g transform="translate(19.067 201.675)"><path class="c" d="M7122.073,1363.227l.015,5.985-15.156,8.751-.021-5.984Z" transform="translate(-7106.91 -1363.227)"/></g><g transform="translate(19.041 191.06)"><path class="c" d="M7122,1334l.016,5.987-15.159,8.75-.013-5.987Z" transform="translate(-7106.838 -1334.005)"/></g><g transform="translate(19.009 180.444)"><path class="c" d="M7121.908,1304.783l.018,5.987-15.157,8.75-.018-5.984Z" transform="translate(-7106.751 -1304.783)"/></g><g transform="translate(18.98 169.832)"><path class="c" d="M7121.827,1275.568l.02,5.983-15.165,8.753-.012-5.986Z" transform="translate(-7106.67 -1275.568)"/></g><g transform="translate(18.946 159.211)"><path class="c" d="M7121.743,1246.331l.013,5.988-15.156,8.753-.021-5.985Z" transform="translate(-7106.579 -1246.331)"/></g><g transform="translate(38.044 105.657)"><path class="c" d="M7174.307,1098.91l.017,5.988-15.158,8.751-.017-5.987Z" transform="translate(-7159.148 -1098.91)"/></g><g transform="translate(38.017 95.04)"><path class="c" d="M7174.231,1069.685l.017,5.992-15.159,8.749-.013-5.987Z" transform="translate(-7159.076 -1069.685)"/></g><g transform="translate(37.984 84.426)"><path class="c" d="M7174.145,1040.466l.02,5.988L7159,1055.207l-.018-5.99Z" transform="translate(-7158.985 -1040.466)"/></g><g transform="translate(37.953 73.811)"><path class="c" d="M7174.06,1011.244l.014,5.988-15.154,8.753-.018-5.991Z" transform="translate(-7158.901 -1011.244)"/></g><g transform="translate(38.103 126.888)"><path class="c" d="M7174.475,1157.355l.016,5.989-15.162,8.753-.017-5.991Z" transform="translate(-7159.312 -1157.355)"/></g><g transform="translate(38.075 116.273)"><path class="c" d="M7174.395,1128.133l.015,5.988-15.159,8.751-.013-5.988Z" transform="translate(-7159.238 -1128.133)"/></g><g transform="translate(38.136 137.504)"><path class="c" d="M7174.563,1186.577l.016,5.985-15.16,8.75-.015-5.982Z" transform="translate(-7159.404 -1186.577)"/></g><g transform="translate(38.287 190.581)"><path class="c" d="M7174.978,1332.687l.013,5.985-15.158,8.753-.015-5.987Z" transform="translate(-7159.819 -1332.687)"/></g><g transform="translate(38.254 179.964)"><path class="c" d="M7174.891,1303.461l.018,5.984-15.162,8.756-.019-5.988Z" transform="translate(-7159.728 -1303.461)"/></g><g transform="translate(38.223 169.35)"><path class="c" d="M7174.8,1274.243l.02,5.982-15.161,8.756-.018-5.983Z" transform="translate(-7159.644 -1274.243)"/></g><g transform="translate(38.194 158.733)"><path class="c" d="M7174.722,1245.017l.018,5.987-15.158,8.753-.018-5.985Z" transform="translate(-7159.564 -1245.017)"/></g><g transform="translate(38.164 148.118)"><path class="c" d="M7174.641,1215.795l.017,5.987-15.156,8.753-.021-5.985Z" transform="translate(-7159.48 -1215.795)"/></g></g></svg>